<svg xmlns="http://www.w3.org/2000/svg" xmlns:xlink="http://www.w3.org/1999/xlink" width="220" zoomAndPan="magnify" viewBox="0 0 165 82.499998" height="110" preserveAspectRatio="xMidYMid meet" version="1.0"><defs><clipPath id="91a597bed8"><path d="M 0.496094 0 L 164.503906 0 L 164.503906 82.003906 L 0.496094 82.003906 Z M 0.496094 0 " clip-rule="nonzero"/></clipPath><clipPath id="6ef72e8000"><path d="M 41.5 0 L 123.5 0 L 123.5 82.003906 L 41.5 82.003906 Z M 41.5 0 " clip-rule="nonzero"/></clipPath></defs><g clip-path="url(#91a597bed8)"><path fill="#ffffff" d="M 0.496094 0 L 164.503906 0 L 164.503906 82.003906 L 0.496094 82.003906 Z M 0.496094 0 " fill-opacity="1" fill-rule="nonzero"/><path fill="#ffffff" d="M 0.496094 0 L 164.503906 0 L 164.503906 82.003906 L 0.496094 82.003906 Z M 0.496094 0 " fill-opacity="1" fill-rule="nonzero"/></g><g clip-path="url(#6ef72e8000)"><path fill="#ffffff" d="M 95.90625 82.042969 C 77.769531 82.042969 59.65625 82.042969 41.539062 82.042969 C 41.539062 54.710938 41.539062 27.375 41.539062 0.0390625 C 68.875 0.0390625 96.207031 0.0390625 123.542969 0.0390625 C 123.542969 27.375 123.542969 54.710938 123.542969 82.042969 C 114.335938 82.042969 105.132812 82.042969 95.90625 82.042969 M 69.6875 53.757812 C 71.496094 53.757812 73.304688 53.757812 75.128906 53.757812 C 73.429688 41.355469 71.734375 28.980469 70.035156 16.605469 C 65.421875 16.605469 60.835938 16.605469 56.234375 16.605469 C 54.671875 28.988281 53.109375 41.359375 51.550781 53.730469 C 51.800781 53.777344 60.980469 53.765625 61.128906 53.722656 C 61.285156 51.554688 61.441406 49.382812 61.597656 47.214844 C 61.902344 47.175781 64.929688 47.1875 65.082031 47.230469 C 65.238281 49.398438 65.390625 51.570312 65.550781 53.757812 C 66.929688 53.757812 68.285156 53.757812 69.6875 53.757812 M 61.6875 54.699219 C 58.273438 54.699219 54.859375 54.699219 51.4375 54.699219 C 51.4375 58.144531 51.4375 61.5625 51.4375 64.996094 C 72.195312 64.996094 92.941406 64.996094 113.703125 64.996094 C 113.703125 61.054688 113.703125 57.121094 113.703125 53.167969 C 112.152344 52.78125 110.597656 52.394531 109.015625 52 C 109.015625 52.914062 109.015625 53.800781 109.015625 54.679688 C 108.660156 54.722656 97.707031 54.707031 97.554688 54.660156 C 97.554688 52.820312 97.554688 50.976562 97.554688 49.117188 C 96.171875 48.769531 94.800781 48.417969 93.398438 48.0625 C 93.398438 50.285156 93.398438 52.484375 93.398438 54.675781 C 93.359375 54.6875 93.339844 54.699219 93.320312 54.699219 C 83.808594 54.699219 74.296875 54.699219 64.785156 54.699219 C 64.757812 54.699219 64.730469 54.695312 64.703125 54.691406 C 64.699219 54.691406 64.695312 54.683594 64.6875 54.679688 C 64.683594 54.671875 64.679688 54.667969 64.667969 54.660156 C 64.511719 52.492188 64.355469 50.324219 64.203125 48.152344 C 63.617188 48.152344 63.050781 48.152344 62.476562 48.152344 C 62.3125 50.339844 62.167969 52.515625 62.003906 54.699219 C 61.890625 54.699219 61.808594 54.699219 61.6875 54.699219 M 101.957031 16.59375 C 98.917969 16.59375 95.878906 16.59375 92.835938 16.59375 C 92.835938 19.105469 92.835938 21.585938 92.835938 24.089844 C 94.722656 24.089844 96.597656 24.089844 98.5 24.089844 C 98.5 33.988281 98.5 43.863281 98.5 53.734375 C 98.796875 53.777344 107.917969 53.761719 108.078125 53.71875 C 108.078125 43.855469 108.078125 33.984375 108.078125 24.089844 C 108.324219 24.089844 108.554688 24.089844 108.785156 24.089844 C 109.027344 24.089844 109.265625 24.089844 109.503906 24.089844 C 109.734375 24.089844 109.96875 24.089844 110.199219 24.089844 C 110.441406 24.089844 110.679688 24.089844 110.917969 24.089844 C 111.152344 24.089844 111.382812 24.089844 111.613281 24.089844 C 111.855469 24.089844 112.09375 24.089844 112.332031 24.089844 C 112.566406 24.089844 112.796875 24.09375 113.03125 24.089844 C 113.265625 24.085938 113.5 24.105469 113.734375 24.082031 C 113.734375 21.574219 113.734375 19.089844 113.734375 16.59375 C 109.8125 16.59375 105.902344 16.59375 101.957031 16.59375 M 91.089844 46.578125 C 89.441406 46.574219 87.796875 46.570312 86.148438 46.570312 C 86.144531 46.570312 86.140625 46.5625 86.132812 46.554688 C 86.128906 46.550781 86.125 46.546875 86.105469 46.527344 C 86.105469 36.566406 86.105469 26.59375 86.105469 16.605469 C 82.910156 16.605469 79.730469 16.605469 76.539062 16.605469 C 76.539062 28.988281 76.539062 41.363281 76.539062 53.742188 C 81.847656 53.742188 87.144531 53.742188 92.445312 53.742188 C 92.445312 51.351562 92.445312 48.976562 92.445312 46.578125 C 92 46.578125 91.566406 46.578125 91.089844 46.578125 M 75.433594 49.035156 C 75.480469 49.34375 75.5 49.652344 75.582031 49.953125 C 75.589844 48.171875 75.589844 46.390625 75.589844 44.609375 C 75.589844 44.574219 75.585938 44.542969 75.582031 44.507812 C 75.582031 44.503906 75.574219 44.496094 75.570312 44.492188 C 75.566406 44.488281 75.5625 44.480469 75.539062 44.460938 C 75.308594 44.445312 75.0625 44.429688 74.800781 44.414062 C 75.011719 45.960938 75.21875 47.480469 75.433594 49.035156 Z M 75.433594 49.035156 " fill-opacity="1" fill-rule="nonzero"/></g><path fill="#0097b2" d="M 69.667969 53.757812 C 68.285156 53.757812 66.929688 53.757812 65.550781 53.757812 C 65.390625 51.570312 65.238281 49.398438 65.082031 47.230469 C 64.929688 47.1875 61.902344 47.175781 61.597656 47.214844 C 61.441406 49.382812 61.285156 51.554688 61.128906 53.722656 C 60.980469 53.765625 51.800781 53.777344 51.550781 53.730469 C 53.109375 41.359375 54.671875 28.988281 56.234375 16.605469 C 60.835938 16.605469 65.421875 16.605469 70.035156 16.605469 C 71.734375 28.980469 73.429688 41.355469 75.128906 53.757812 C 73.304688 53.757812 71.496094 53.757812 69.667969 53.757812 M 63.40625 24.6875 C 63.382812 24.457031 63.367188 24.222656 63.34375 23.992188 C 63.320312 23.75 63.296875 23.503906 63.269531 23.257812 C 63.265625 23.199219 63.253906 23.148438 63.15625 23.183594 C 62.640625 28.988281 62.121094 34.800781 61.601562 40.609375 C 61.804688 40.65625 64.765625 40.648438 64.917969 40.601562 C 64.910156 40.503906 64.90625 40.402344 64.898438 40.296875 C 64.859375 39.910156 64.820312 39.523438 64.785156 39.136719 C 64.726562 38.519531 64.667969 37.898438 64.609375 37.28125 C 64.53125 36.472656 64.453125 35.664062 64.375 34.855469 C 64.316406 34.230469 64.257812 33.605469 64.199219 32.980469 C 64.125 32.183594 64.046875 31.390625 63.96875 30.59375 C 63.910156 29.957031 63.851562 29.316406 63.789062 28.679688 C 63.710938 27.855469 63.632812 27.035156 63.554688 26.210938 C 63.507812 25.714844 63.457031 25.21875 63.40625 24.6875 Z M 63.40625 24.6875 " fill-opacity="1" fill-rule="nonzero"/><path fill="#555555" d="M 61.707031 54.699219 C 61.808594 54.699219 61.890625 54.699219 62.003906 54.699219 C 62.167969 52.515625 62.3125 50.339844 62.476562 48.152344 C 63.050781 48.152344 63.617188 48.152344 64.203125 48.152344 C 64.355469 50.324219 64.511719 52.492188 64.667969 54.660156 C 64.679688 54.667969 64.683594 54.671875 64.6875 54.679688 C 64.695312 54.683594 64.699219 54.691406 64.703125 54.691406 C 64.730469 54.695312 64.757812 54.699219 64.785156 54.699219 C 74.296875 54.699219 83.808594 54.699219 93.320312 54.699219 C 93.339844 54.699219 93.359375 54.6875 93.398438 54.675781 C 93.398438 52.484375 93.398438 50.285156 93.398438 48.0625 C 94.800781 48.417969 96.171875 48.769531 97.554688 49.117188 C 97.554688 50.976562 97.554688 52.820312 97.554688 54.660156 C 97.707031 54.707031 108.660156 54.722656 109.015625 54.679688 C 109.015625 53.800781 109.015625 52.914062 109.015625 52 C 110.597656 52.394531 112.152344 52.78125 113.703125 53.167969 C 113.703125 57.121094 113.703125 61.054688 113.703125 64.996094 C 92.941406 64.996094 72.195312 64.996094 51.4375 64.996094 C 51.4375 61.5625 51.4375 58.144531 51.4375 54.699219 C 54.859375 54.699219 58.273438 54.699219 61.707031 54.699219 M 73.570312 61.804688 C 73.890625 62.300781 74.34375 62.601562 74.929688 62.648438 C 75.863281 62.726562 76.523438 62.320312 76.890625 61.449219 C 76.980469 61.621094 77.046875 61.78125 77.144531 61.917969 C 77.246094 62.058594 77.367188 62.199219 77.503906 62.308594 C 77.632812 62.414062 77.789062 62.5 77.945312 62.558594 C 78.101562 62.617188 78.277344 62.644531 78.445312 62.652344 C 78.613281 62.660156 78.789062 62.648438 78.949219 62.601562 C 79.117188 62.554688 79.28125 62.476562 79.425781 62.378906 C 79.5625 62.289062 79.667969 62.15625 79.816406 62.015625 C 79.816406 62.210938 79.816406 62.375 79.816406 62.546875 C 80.089844 62.546875 80.347656 62.546875 80.605469 62.546875 C 80.605469 61.335938 80.605469 60.136719 80.605469 58.925781 C 80.335938 58.925781 80.082031 58.917969 79.796875 58.933594 C 79.796875 59.121094 79.796875 59.285156 79.796875 59.476562 C 78.824219 58.398438 77.539062 58.667969 76.894531 60.058594 C 76.871094 60.015625 76.851562 59.980469 76.835938 59.945312 C 76.5 59.179688 75.847656 58.773438 75.011719 58.832031 C 74.304688 58.878906 73.78125 59.230469 73.472656 59.863281 C 73.164062 60.503906 73.191406 61.144531 73.515625 61.777344 C 73.433594 61.773438 73.351562 61.765625 73.269531 61.765625 C 72.703125 61.765625 72.136719 61.765625 71.570312 61.765625 C 71.5 61.765625 71.425781 61.757812 71.335938 61.753906 C 71.335938 60.417969 71.335938 59.097656 71.335938 57.753906 C 71.078125 57.753906 70.84375 57.753906 70.605469 57.757812 C 70.558594 57.757812 70.511719 57.765625 70.46875 57.773438 C 70.46875 59.367188 70.46875 60.953125 70.46875 62.546875 C 71.480469 62.546875 72.480469 62.546875 73.492188 62.546875 C 73.496094 62.46875 73.503906 62.398438 73.503906 62.332031 C 73.503906 62.183594 73.5 62.035156 73.507812 61.882812 C 73.507812 61.847656 73.542969 61.8125 73.570312 61.804688 M 93.191406 60.585938 C 93.324219 60.683594 93.441406 60.808594 93.585938 60.871094 C 93.785156 60.957031 94.003906 60.996094 94.210938 61.050781 C 94.417969 61.105469 94.632812 61.128906 94.824219 61.210938 C 95.089844 61.324219 95.117188 61.675781 94.886719 61.851562 C 94.828125 61.894531 94.753906 61.9375 94.683594 61.945312 C 94.53125 61.96875 94.371094 61.984375 94.21875 61.96875 C 93.910156 61.9375 93.703125 61.773438 93.644531 61.449219 C 93.640625 61.4375 93.628906 61.429688 93.609375 61.410156 C 93.363281 61.410156 93.105469 61.410156 92.828125 61.410156 C 92.835938 61.492188 92.835938 61.566406 92.851562 61.640625 C 92.957031 62.121094 93.269531 62.414062 93.722656 62.5625 C 94.140625 62.699219 94.570312 62.695312 94.996094 62.585938 C 95.464844 62.460938 95.796875 62.1875 95.894531 61.683594 C 95.898438 61.667969 95.910156 61.652344 95.925781 61.617188 C 96.3125 62.3125 96.882812 62.683594 97.679688 62.660156 C 98.472656 62.632812 99.023438 62.234375 99.347656 61.496094 C 99.429688 61.648438 99.492188 61.785156 99.574219 61.90625 C 99.660156 62.03125 99.757812 62.148438 99.867188 62.246094 C 99.976562 62.347656 100.105469 62.433594 100.238281 62.5 C 100.371094 62.566406 100.515625 62.613281 100.664062 62.640625 C 100.808594 62.664062 100.964844 62.664062 101.113281 62.648438 C 101.261719 62.632812 101.410156 62.605469 101.546875 62.550781 C 101.6875 62.496094 101.820312 62.417969 101.933594 62.324219 C 102.046875 62.238281 102.136719 62.121094 102.265625 61.988281 C 102.265625 62.203125 102.265625 62.371094 102.265625 62.554688 C 102.535156 62.554688 102.789062 62.566406 103.042969 62.546875 C 103.085938 62.183594 103.070312 59.074219 103.023438 58.9375 C 102.773438 58.9375 102.523438 58.9375 102.25 58.9375 C 102.25 59.121094 102.25 59.292969 102.25 59.519531 C 101.839844 58.921875 101.292969 58.746094 100.660156 58.851562 C 100.023438 58.953125 99.625 59.378906 99.359375 59.984375 C 99.324219 59.914062 99.296875 59.878906 99.277344 59.835938 C 98.917969 59.074219 98.085938 58.683594 97.21875 58.867188 C 96.347656 59.054688 95.75 59.796875 95.742188 60.691406 C 95.742188 60.738281 95.734375 60.789062 95.730469 60.816406 C 95.542969 60.714844 95.375 60.597656 95.1875 60.523438 C 95.015625 60.457031 94.832031 60.433594 94.652344 60.390625 C 94.441406 60.34375 94.222656 60.304688 94.015625 60.238281 C 93.746094 60.152344 93.761719 59.765625 93.953125 59.632812 C 94.011719 59.589844 94.085938 59.558594 94.15625 59.539062 C 94.558594 59.449219 94.832031 59.59375 94.988281 59.972656 C 95.25 59.972656 95.515625 59.972656 95.785156 59.972656 C 95.789062 59.929688 95.792969 59.898438 95.789062 59.863281 C 95.738281 59.398438 95.460938 59.109375 95.042969 58.945312 C 94.625 58.785156 94.1875 58.777344 93.757812 58.90625 C 93.015625 59.125 92.738281 59.925781 93.191406 60.585938 M 59.21875 62.210938 C 58.601562 60.730469 57.988281 59.25 57.375 57.773438 C 57.082031 57.773438 56.804688 57.773438 56.527344 57.773438 C 55.863281 59.367188 55.199219 60.949219 54.542969 62.550781 C 54.867188 62.550781 55.160156 62.550781 55.464844 62.550781 C 55.59375 62.242188 55.722656 61.933594 55.84375 61.636719 C 56.59375 61.636719 57.324219 61.636719 58.054688 61.636719 C 58.183594 61.945312 58.308594 62.246094 58.441406 62.5625 C 58.683594 62.5625 58.921875 62.5625 59.164062 62.5625 C 59.171875 62.617188 59.179688 62.65625 59.183594 62.695312 C 59.28125 63.292969 59.644531 63.652344 60.203125 63.832031 C 60.5625 63.945312 60.933594 63.953125 61.300781 63.90625 C 61.6875 63.855469 62.039062 63.71875 62.328125 63.441406 C 62.703125 63.082031 62.847656 62.632812 62.851562 62.128906 C 62.855469 61.117188 62.851562 60.105469 62.851562 59.09375 C 62.851562 59.042969 62.84375 58.992188 62.835938 58.925781 C 62.695312 58.925781 62.566406 58.925781 62.4375 58.925781 C 62.308594 58.925781 62.183594 58.925781 62.03125 58.925781 C 62.03125 59.121094 62.03125 59.292969 62.03125 59.488281 C 61.996094 59.457031 61.976562 59.445312 61.964844 59.429688 C 61.511719 58.753906 60.5625 58.679688 59.945312 59.027344 C 59.230469 59.429688 58.875 60.300781 59.085938 61.148438 C 59.246094 61.800781 59.804688 62.464844 60.796875 62.464844 C 61.269531 62.464844 61.679688 62.308594 61.960938 61.898438 C 61.976562 61.882812 61.996094 61.867188 62.03125 61.835938 C 62.03125 61.996094 62.042969 62.125 62.03125 62.253906 C 61.992188 62.746094 61.726562 63.078125 61.269531 63.171875 C 61.101562 63.203125 60.917969 63.203125 60.742188 63.195312 C 60.351562 63.175781 60.085938 62.984375 59.980469 62.597656 C 59.980469 62.585938 59.964844 62.578125 59.941406 62.550781 C 59.757812 62.550781 59.5625 62.550781 59.363281 62.550781 C 59.316406 62.4375 59.273438 62.339844 59.21875 62.210938 M 69.074219 60.113281 C 69.058594 60.066406 69.042969 60.019531 69.027344 59.976562 C 68.5625 58.765625 67.152344 58.539062 66.269531 59.144531 C 65.5625 59.628906 65.246094 60.550781 65.582031 61.457031 C 65.867188 62.230469 66.601562 62.761719 67.5625 62.644531 C 68.238281 62.5625 68.726562 62.210938 69.007812 61.582031 C 69.027344 61.535156 69.035156 61.484375 69.050781 61.425781 C 68.734375 61.425781 68.433594 61.425781 68.140625 61.425781 C 67.898438 61.910156 67.378906 61.96875 67.015625 61.859375 C 66.625 61.742188 66.328125 61.351562 66.347656 60.96875 C 67.273438 60.96875 68.199219 60.96875 69.128906 60.96875 C 69.195312 60.679688 69.140625 60.410156 69.074219 60.113281 M 107.375 60.0625 C 107.648438 60.746094 107.914062 61.433594 108.203125 62.113281 C 108.300781 62.339844 108.285156 62.527344 108.167969 62.726562 C 108.148438 62.753906 108.132812 62.785156 108.117188 62.816406 C 108.023438 62.960938 107.894531 63.058594 107.71875 63.070312 C 107.539062 63.082031 107.363281 63.082031 107.183594 63.089844 C 107.121094 63.09375 107.054688 63.097656 106.992188 63.101562 C 106.992188 63.339844 106.992188 63.554688 106.992188 63.777344 C 107.292969 63.777344 107.585938 63.789062 107.875 63.777344 C 108.332031 63.753906 108.65625 63.511719 108.878906 63.125 C 108.976562 62.945312 109.074219 62.761719 109.148438 62.574219 C 109.613281 61.421875 110.074219 60.265625 110.53125 59.113281 C 110.554688 59.058594 110.570312 59 110.589844 58.941406 C 110.28125 58.941406 109.992188 58.941406 109.691406 58.941406 C 109.375 59.769531 109.066406 60.589844 108.765625 61.382812 C 108.457031 60.578125 108.136719 59.753906 107.820312 58.9375 C 107.515625 58.9375 107.230469 58.9375 106.921875 58.9375 C 107.074219 59.316406 107.214844 59.675781 107.375 60.0625 M 104.117188 58.925781 C 103.898438 58.925781 103.683594 58.925781 103.464844 58.925781 C 103.464844 60.148438 103.464844 61.34375 103.464844 62.542969 C 103.746094 62.542969 104.015625 62.542969 104.304688 62.542969 C 104.304688 62.347656 104.304688 62.164062 104.304688 61.984375 C 104.304688 61.527344 104.300781 61.066406 104.308594 60.609375 C 104.316406 60.121094 104.605469 59.734375 105.035156 59.640625 C 105.535156 59.527344 106.007812 59.707031 106.078125 60.367188 C 106.09375 60.5 106.097656 60.636719 106.097656 60.773438 C 106.101562 61.292969 106.097656 61.8125 106.097656 62.332031 C 106.097656 62.402344 106.105469 62.476562 106.109375 62.546875 C 106.398438 62.546875 106.660156 62.546875 106.929688 62.546875 C 106.9375 62.511719 106.949219 62.484375 106.949219 62.460938 C 106.945312 61.742188 106.949219 61.027344 106.929688 60.308594 C 106.925781 60.097656 106.867188 59.878906 106.800781 59.671875 C 106.6875 59.335938 106.464844 59.078125 106.128906 58.941406 C 105.582031 58.714844 104.761719 58.792969 104.34375 59.359375 C 104.328125 59.378906 104.308594 59.390625 104.261719 59.4375 C 104.261719 59.273438 104.261719 59.152344 104.261719 59.03125 C 104.265625 58.953125 104.230469 58.917969 104.117188 58.925781 M 83.660156 62.484375 C 83.679688 62.507812 83.699219 62.550781 83.722656 62.550781 C 83.980469 62.554688 84.238281 62.554688 84.496094 62.554688 C 84.503906 62.507812 84.511719 62.484375 84.511719 62.457031 C 84.511719 61.773438 84.515625 61.089844 84.503906 60.40625 C 84.503906 60.21875 84.464844 60.027344 84.421875 59.84375 C 84.363281 59.609375 84.257812 59.394531 84.089844 59.214844 C 83.558594 58.660156 82.484375 58.695312 81.96875 59.28125 C 81.929688 59.324219 81.894531 59.363281 81.855469 59.40625 C 81.84375 59.398438 81.832031 59.394531 81.820312 59.386719 C 81.820312 59.242188 81.820312 59.09375 81.820312 58.9375 C 81.542969 58.9375 81.289062 58.9375 81.035156 58.9375 C 80.996094 59.203125 81.007812 62.398438 81.050781 62.554688 C 81.316406 62.554688 81.582031 62.5625 81.867188 62.554688 C 81.867188 62.457031 81.867188 62.390625 81.867188 62.320312 C 81.867188 61.808594 81.867188 61.296875 81.867188 60.785156 C 81.867188 60.675781 81.871094 60.566406 81.886719 60.457031 C 81.941406 60.050781 82.214844 59.730469 82.589844 59.640625 C 83.039062 59.535156 83.554688 59.652344 83.640625 60.359375 C 83.65625 60.480469 83.65625 60.601562 83.65625 60.726562 C 83.660156 61.300781 83.660156 61.875 83.660156 62.484375 M 89.429688 58.925781 C 89.320312 58.957031 89.363281 59.050781 89.363281 59.113281 C 89.359375 59.667969 89.359375 60.222656 89.363281 60.773438 C 89.363281 60.9375 89.371094 61.101562 89.390625 61.265625 C 89.46875 61.957031 89.878906 62.445312 90.511719 62.597656 C 90.84375 62.679688 91.183594 62.6875 91.527344 62.617188 C 92.144531 62.496094 92.527344 62.125 92.691406 61.519531 C 92.726562 61.394531 92.75 61.265625 92.753906 61.136719 C 92.765625 60.433594 92.765625 59.730469 92.769531 59.027344 C 92.769531 58.996094 92.753906 58.964844 92.746094 58.9375 C 92.472656 58.9375 92.210938 58.9375 91.921875 58.9375 C 91.921875 59.011719 91.921875 59.078125 91.921875 59.144531 C 91.921875 59.691406 91.925781 60.238281 91.921875 60.785156 C 91.921875 60.921875 91.910156 61.058594 91.886719 61.191406 C 91.820312 61.566406 91.585938 61.8125 91.234375 61.859375 C 90.632812 61.941406 90.308594 61.632812 90.242188 61.160156 C 90.226562 61.046875 90.210938 60.929688 90.210938 60.816406 C 90.207031 60.257812 90.210938 59.695312 90.210938 59.136719 C 90.210938 59.070312 90.203125 59.003906 90.199219 58.925781 C 89.941406 58.925781 89.703125 58.925781 89.429688 58.925781 M 87.097656 61.195312 C 87.097656 61.644531 87.097656 62.089844 87.097656 62.546875 C 87.398438 62.546875 87.675781 62.546875 87.980469 62.546875 C 87.980469 61.875 87.980469 61.214844 87.980469 60.554688 C 87.980469 59.886719 87.976562 59.222656 87.980469 58.542969 C 88.464844 58.542969 88.921875 58.542969 89.386719 58.542969 C 89.386719 58.277344 89.386719 58.023438 89.386719 57.769531 C 88.90625 57.726562 85.824219 57.746094 85.679688 57.789062 C 85.679688 58.035156 85.679688 58.277344 85.679688 58.546875 C 86.15625 58.546875 86.621094 58.546875 87.097656 58.546875 C 87.097656 59.433594 87.097656 60.292969 87.097656 61.195312 M 65.324219 61.523438 C 65.324219 60.214844 65.324219 58.910156 65.324219 57.597656 C 65.027344 57.597656 64.757812 57.597656 64.492188 57.597656 C 64.445312 57.886719 64.460938 62.414062 64.511719 62.558594 C 64.644531 62.558594 64.777344 62.558594 64.914062 62.558594 C 65.046875 62.554688 65.179688 62.554688 65.324219 62.554688 C 65.324219 62.203125 65.324219 61.882812 65.324219 61.523438 M 63.859375 62.554688 C 63.929688 62.554688 64.003906 62.554688 64.070312 62.554688 C 64.113281 62.203125 64.097656 59.078125 64.058594 58.941406 C 63.789062 58.941406 63.519531 58.941406 63.25 58.941406 C 63.210938 59.289062 63.226562 62.402344 63.269531 62.554688 C 63.449219 62.554688 63.632812 62.554688 63.859375 62.554688 M 63.148438 58.011719 C 63.277344 58.316406 63.542969 58.433594 63.863281 58.332031 C 64.0625 58.265625 64.191406 58.097656 64.195312 57.890625 C 64.199219 57.679688 64.089844 57.5 63.886719 57.429688 C 63.453125 57.277344 63.054688 57.558594 63.148438 58.011719 Z M 63.148438 58.011719 " fill-opacity="1" fill-rule="nonzero"/><path fill="#0097b2" d="M 101.976562 16.59375 C 105.902344 16.59375 109.8125 16.59375 113.734375 16.59375 C 113.734375 19.089844 113.734375 21.574219 113.734375 24.082031 C 113.5 24.105469 113.265625 24.085938 113.03125 24.089844 C 112.796875 24.09375 112.566406 24.089844 112.332031 24.089844 C 112.09375 24.089844 111.855469 24.089844 111.613281 24.089844 C 111.382812 24.089844 111.152344 24.089844 110.917969 24.089844 C 110.679688 24.089844 110.441406 24.089844 110.199219 24.089844 C 109.96875 24.089844 109.734375 24.089844 109.503906 24.089844 C 109.265625 24.089844 109.027344 24.089844 108.785156 24.089844 C 108.554688 24.089844 108.324219 24.089844 108.078125 24.089844 C 108.078125 33.984375 108.078125 43.855469 108.078125 53.71875 C 107.917969 53.761719 98.796875 53.777344 98.5 53.734375 C 98.5 43.863281 98.5 33.988281 98.5 24.089844 C 96.597656 24.089844 94.722656 24.089844 92.835938 24.089844 C 92.835938 21.585938 92.835938 19.105469 92.835938 16.59375 C 95.878906 16.59375 98.917969 16.59375 101.976562 16.59375 Z M 101.976562 16.59375 " fill-opacity="1" fill-rule="nonzero"/><path fill="#0197b2" d="M 91.109375 46.578125 C 91.566406 46.578125 92 46.578125 92.445312 46.578125 C 92.445312 48.976562 92.445312 51.351562 92.445312 53.742188 C 87.144531 53.742188 81.847656 53.742188 76.539062 53.742188 C 76.539062 41.363281 76.539062 28.988281 76.539062 16.605469 C 79.730469 16.605469 82.910156 16.605469 86.105469 16.605469 C 86.105469 26.59375 86.105469 36.566406 86.105469 46.527344 C 86.125 46.546875 86.128906 46.550781 86.132812 46.554688 C 86.140625 46.5625 86.144531 46.570312 86.148438 46.570312 C 87.796875 46.570312 89.441406 46.574219 91.109375 46.578125 Z M 91.109375 46.578125 " fill-opacity="1" fill-rule="nonzero"/><path fill="#575757" d="M 75.433594 49.019531 C 75.21875 47.480469 75.011719 45.960938 74.800781 44.414062 C 75.0625 44.429688 75.308594 44.445312 75.539062 44.460938 C 75.5625 44.480469 75.566406 44.488281 75.570312 44.492188 C 75.574219 44.496094 75.582031 44.503906 75.582031 44.507812 C 75.585938 44.542969 75.589844 44.574219 75.589844 44.609375 C 75.589844 46.390625 75.589844 48.171875 75.582031 49.953125 C 75.5 49.652344 75.480469 49.34375 75.433594 49.019531 Z M 75.433594 49.019531 " fill-opacity="1" fill-rule="nonzero"/><path fill="#fdfefe" d="M 63.40625 24.707031 C 63.457031 25.21875 63.507812 25.714844 63.554688 26.210938 C 63.632812 27.035156 63.710938 27.855469 63.789062 28.679688 C 63.851562 29.316406 63.910156 29.957031 63.96875 30.59375 C 64.046875 31.390625 64.125 32.183594 64.199219 32.980469 C 64.257812 33.605469 64.316406 34.230469 64.375 34.855469 C 64.453125 35.664062 64.53125 36.472656 64.609375 37.28125 C 64.667969 37.898438 64.726562 38.519531 64.785156 39.136719 C 64.820312 39.523438 64.859375 39.910156 64.898438 40.296875 C 64.90625 40.402344 64.910156 40.503906 64.917969 40.601562 C 64.765625 40.648438 61.804688 40.65625 61.601562 40.609375 C 62.121094 34.800781 62.640625 28.988281 63.15625 23.183594 C 63.253906 23.148438 63.265625 23.199219 63.269531 23.257812 C 63.296875 23.503906 63.320312 23.75 63.34375 23.992188 C 63.367188 24.222656 63.382812 24.457031 63.40625 24.707031 Z M 63.40625 24.707031 " fill-opacity="1" fill-rule="nonzero"/><path fill="#fdfdfd" d="M 93.183594 60.574219 C 92.738281 59.925781 93.015625 59.125 93.757812 58.90625 C 94.1875 58.777344 94.625 58.785156 95.042969 58.945312 C 95.460938 59.109375 95.738281 59.398438 95.789062 59.863281 C 95.792969 59.898438 95.789062 59.929688 95.785156 59.972656 C 95.515625 59.972656 95.25 59.972656 94.988281 59.972656 C 94.832031 59.59375 94.558594 59.449219 94.15625 59.539062 C 94.085938 59.558594 94.011719 59.589844 93.953125 59.632812 C 93.761719 59.765625 93.746094 60.152344 94.015625 60.238281 C 94.222656 60.304688 94.441406 60.34375 94.652344 60.390625 C 94.832031 60.433594 95.015625 60.457031 95.1875 60.523438 C 95.375 60.597656 95.542969 60.714844 95.730469 60.816406 C 95.734375 60.789062 95.742188 60.738281 95.742188 60.691406 C 95.75 59.796875 96.347656 59.054688 97.21875 58.867188 C 98.085938 58.683594 98.917969 59.074219 99.277344 59.835938 C 99.296875 59.878906 99.324219 59.914062 99.359375 59.984375 C 99.625 59.378906 100.023438 58.953125 100.660156 58.851562 C 101.292969 58.746094 101.839844 58.921875 102.25 59.519531 C 102.25 59.292969 102.25 59.121094 102.25 58.9375 C 102.523438 58.9375 102.773438 58.9375 103.023438 58.9375 C 103.070312 59.074219 103.085938 62.183594 103.042969 62.546875 C 102.789062 62.566406 102.535156 62.554688 102.265625 62.554688 C 102.265625 62.371094 102.265625 62.203125 102.265625 61.988281 C 102.136719 62.121094 102.046875 62.238281 101.933594 62.324219 C 101.820312 62.417969 101.6875 62.496094 101.546875 62.550781 C 101.410156 62.605469 101.261719 62.632812 101.113281 62.648438 C 100.964844 62.664062 100.808594 62.664062 100.664062 62.640625 C 100.515625 62.613281 100.371094 62.566406 100.238281 62.5 C 100.105469 62.433594 99.976562 62.347656 99.867188 62.246094 C 99.757812 62.148438 99.660156 62.03125 99.574219 61.90625 C 99.492188 61.785156 99.429688 61.648438 99.347656 61.496094 C 99.023438 62.234375 98.472656 62.632812 97.679688 62.660156 C 96.882812 62.683594 96.3125 62.3125 95.925781 61.617188 C 95.910156 61.652344 95.898438 61.667969 95.894531 61.683594 C 95.796875 62.1875 95.464844 62.460938 94.996094 62.585938 C 94.570312 62.695312 94.140625 62.699219 93.722656 62.5625 C 93.269531 62.414062 92.957031 62.121094 92.851562 61.640625 C 92.835938 61.566406 92.835938 61.492188 92.828125 61.410156 C 93.105469 61.410156 93.363281 61.410156 93.609375 61.410156 C 93.628906 61.429688 93.640625 61.4375 93.644531 61.449219 C 93.703125 61.773438 93.910156 61.9375 94.21875 61.96875 C 94.371094 61.984375 94.53125 61.96875 94.683594 61.945312 C 94.753906 61.9375 94.828125 61.894531 94.886719 61.851562 C 95.117188 61.675781 95.089844 61.324219 94.824219 61.210938 C 94.632812 61.128906 94.417969 61.105469 94.210938 61.050781 C 94.003906 60.996094 93.785156 60.957031 93.585938 60.871094 C 93.441406 60.808594 93.324219 60.683594 93.183594 60.574219 M 97.027344 59.808594 C 96.484375 60.191406 96.503906 61.03125 96.800781 61.453125 C 97.226562 62.054688 98.207031 62.003906 98.503906 61.34375 C 98.519531 61.308594 98.539062 61.273438 98.570312 61.21875 C 98.800781 61.21875 99.035156 61.21875 99.269531 61.21875 C 99.257812 61.03125 99.234375 60.867188 99.238281 60.703125 C 99.238281 60.542969 99.261719 60.386719 99.277344 60.203125 C 99.019531 60.203125 98.78125 60.203125 98.550781 60.203125 C 98.402344 59.886719 98.175781 59.695312 97.851562 59.632812 C 97.566406 59.578125 97.292969 59.621094 97.027344 59.808594 M 100.425781 61.597656 C 100.816406 61.96875 101.480469 61.972656 101.875 61.578125 C 102.1875 61.257812 102.273438 60.871094 102.171875 60.441406 C 102.0625 59.957031 101.636719 59.617188 101.15625 59.613281 C 100.648438 59.613281 100.238281 59.929688 100.121094 60.433594 C 100.027344 60.859375 100.097656 61.25 100.425781 61.597656 Z M 100.425781 61.597656 " fill-opacity="1" fill-rule="nonzero"/><path fill="#fcfcfc" d="M 59.226562 62.226562 C 59.273438 62.339844 59.316406 62.4375 59.363281 62.550781 C 59.5625 62.550781 59.757812 62.550781 59.941406 62.550781 C 59.964844 62.578125 59.980469 62.585938 59.980469 62.597656 C 60.085938 62.984375 60.351562 63.175781 60.742188 63.195312 C 60.917969 63.203125 61.101562 63.203125 61.269531 63.171875 C 61.726562 63.078125 61.992188 62.746094 62.03125 62.253906 C 62.042969 62.125 62.03125 61.996094 62.03125 61.835938 C 61.996094 61.867188 61.976562 61.882812 61.960938 61.898438 C 61.679688 62.308594 61.269531 62.464844 60.796875 62.464844 C 59.804688 62.464844 59.246094 61.800781 59.085938 61.148438 C 58.875 60.300781 59.230469 59.429688 59.945312 59.027344 C 60.5625 58.679688 61.511719 58.753906 61.964844 59.429688 C 61.976562 59.445312 61.996094 59.457031 62.03125 59.488281 C 62.03125 59.292969 62.03125 59.121094 62.03125 58.925781 C 62.183594 58.925781 62.308594 58.925781 62.4375 58.925781 C 62.566406 58.925781 62.695312 58.925781 62.835938 58.925781 C 62.84375 58.992188 62.851562 59.042969 62.851562 59.09375 C 62.851562 60.105469 62.855469 61.117188 62.851562 62.128906 C 62.847656 62.632812 62.703125 63.082031 62.328125 63.441406 C 62.039062 63.71875 61.6875 63.855469 61.300781 63.90625 C 60.933594 63.953125 60.5625 63.945312 60.203125 63.832031 C 59.644531 63.652344 59.28125 63.292969 59.183594 62.695312 C 59.179688 62.65625 59.171875 62.617188 59.164062 62.5625 C 58.921875 62.5625 58.683594 62.5625 58.441406 62.5625 C 58.308594 62.246094 58.183594 61.945312 58.054688 61.636719 C 57.324219 61.636719 56.59375 61.636719 55.84375 61.636719 C 55.722656 61.933594 55.59375 62.242188 55.464844 62.550781 C 55.160156 62.550781 54.867188 62.550781 54.542969 62.550781 C 55.199219 60.949219 55.863281 59.367188 56.527344 57.773438 C 56.804688 57.773438 57.082031 57.773438 57.375 57.773438 C 57.988281 59.25 58.601562 60.730469 59.226562 62.226562 M 61.023438 59.617188 C 60.984375 59.613281 60.941406 59.613281 60.902344 59.613281 C 60.371094 59.628906 59.976562 59.957031 59.890625 60.476562 C 59.820312 60.890625 59.941406 61.253906 60.285156 61.507812 C 60.628906 61.765625 61.019531 61.800781 61.402344 61.609375 C 61.789062 61.421875 61.996094 61.09375 62 60.660156 C 62 60.175781 61.644531 59.699219 61.023438 59.617188 M 56.488281 60.890625 C 56.898438 60.890625 57.3125 60.890625 57.753906 60.890625 C 57.476562 60.21875 57.214844 59.585938 56.945312 58.925781 C 56.675781 59.597656 56.417969 60.230469 56.148438 60.890625 C 56.273438 60.890625 56.359375 60.890625 56.488281 60.890625 Z M 56.488281 60.890625 " fill-opacity="1" fill-rule="nonzero"/><path fill="#fdfdfd" d="M 73.558594 61.761719 C 73.191406 61.144531 73.164062 60.503906 73.472656 59.863281 C 73.78125 59.230469 74.304688 58.878906 75.011719 58.832031 C 75.847656 58.773438 76.5 59.179688 76.835938 59.945312 C 76.851562 59.980469 76.871094 60.015625 76.894531 60.058594 C 77.539062 58.667969 78.824219 58.398438 79.796875 59.476562 C 79.796875 59.285156 79.796875 59.121094 79.796875 58.933594 C 80.082031 58.917969 80.335938 58.925781 80.605469 58.925781 C 80.605469 60.136719 80.605469 61.335938 80.605469 62.546875 C 80.347656 62.546875 80.089844 62.546875 79.816406 62.546875 C 79.816406 62.375 79.816406 62.210938 79.816406 62.015625 C 79.667969 62.15625 79.5625 62.289062 79.425781 62.378906 C 79.28125 62.476562 79.117188 62.554688 78.949219 62.601562 C 78.789062 62.648438 78.613281 62.660156 78.445312 62.652344 C 78.277344 62.644531 78.101562 62.617188 77.945312 62.558594 C 77.789062 62.5 77.632812 62.414062 77.503906 62.308594 C 77.367188 62.199219 77.246094 62.058594 77.144531 61.917969 C 77.046875 61.78125 76.980469 61.621094 76.890625 61.449219 C 76.523438 62.320312 75.863281 62.726562 74.929688 62.648438 C 74.34375 62.601562 73.890625 62.300781 73.566406 61.789062 C 73.5625 61.769531 73.558594 61.761719 73.558594 61.761719 M 79.761719 60.609375 C 79.746094 60.523438 79.734375 60.433594 79.707031 60.351562 C 79.550781 59.875 79.125 59.585938 78.625 59.617188 C 78.164062 59.644531 77.769531 59.988281 77.675781 60.464844 C 77.648438 60.625 77.648438 60.792969 77.667969 60.953125 C 77.75 61.644531 78.449219 62.054688 79.097656 61.796875 C 79.542969 61.621094 79.808594 61.164062 79.761719 60.609375 M 75.425781 60.96875 C 75 60.96875 74.574219 60.96875 74.144531 60.96875 C 74.1875 61.425781 74.476562 61.769531 74.878906 61.871094 C 75.34375 61.984375 75.683594 61.847656 75.96875 61.414062 C 76.265625 61.414062 76.570312 61.414062 76.890625 61.414062 C 76.859375 61.261719 76.832031 61.121094 76.800781 60.96875 C 76.351562 60.96875 75.910156 60.96875 75.425781 60.96875 M 75.492188 59.621094 C 75.113281 59.511719 74.761719 59.558594 74.457031 59.820312 C 74.3125 59.945312 74.214844 60.101562 74.175781 60.296875 C 74.828125 60.296875 75.457031 60.296875 76.105469 60.296875 C 76.039062 59.945312 75.824219 59.75 75.492188 59.621094 Z M 75.492188 59.621094 " fill-opacity="1" fill-rule="nonzero"/><path fill="#fcfcfc" d="M 69.078125 60.128906 C 69.140625 60.410156 69.195312 60.679688 69.128906 60.96875 C 68.199219 60.96875 67.273438 60.96875 66.347656 60.96875 C 66.328125 61.351562 66.625 61.742188 67.015625 61.859375 C 67.378906 61.96875 67.898438 61.910156 68.140625 61.425781 C 68.433594 61.425781 68.734375 61.425781 69.050781 61.425781 C 69.035156 61.484375 69.027344 61.535156 69.007812 61.582031 C 68.726562 62.210938 68.238281 62.5625 67.5625 62.644531 C 66.601562 62.761719 65.867188 62.230469 65.582031 61.457031 C 65.246094 60.550781 65.5625 59.628906 66.269531 59.144531 C 67.152344 58.539062 68.5625 58.765625 69.027344 59.976562 C 69.042969 60.019531 69.058594 60.066406 69.078125 60.128906 M 68.273438 60.226562 C 68.1875 59.816406 67.753906 59.589844 67.410156 59.570312 C 66.941406 59.546875 66.570312 59.761719 66.402344 60.152344 C 66.382812 60.195312 66.375 60.25 66.359375 60.308594 C 66.988281 60.308594 67.59375 60.308594 68.195312 60.308594 C 68.222656 60.308594 68.25 60.277344 68.273438 60.226562 Z M 68.273438 60.226562 " fill-opacity="1" fill-rule="nonzero"/><path fill="#fcfcfc" d="M 107.367188 60.046875 C 107.214844 59.675781 107.074219 59.316406 106.921875 58.9375 C 107.230469 58.9375 107.515625 58.9375 107.820312 58.9375 C 108.136719 59.753906 108.457031 60.578125 108.765625 61.382812 C 109.066406 60.589844 109.375 59.769531 109.691406 58.941406 C 109.992188 58.941406 110.28125 58.941406 110.589844 58.941406 C 110.570312 59 110.554688 59.058594 110.53125 59.113281 C 110.074219 60.265625 109.613281 61.421875 109.148438 62.574219 C 109.074219 62.761719 108.976562 62.945312 108.878906 63.125 C 108.65625 63.511719 108.332031 63.753906 107.875 63.777344 C 107.585938 63.789062 107.292969 63.777344 106.992188 63.777344 C 106.992188 63.554688 106.992188 63.339844 106.992188 63.101562 C 107.054688 63.097656 107.121094 63.09375 107.183594 63.089844 C 107.363281 63.082031 107.539062 63.082031 107.71875 63.070312 C 107.894531 63.058594 108.023438 62.960938 108.117188 62.816406 C 108.132812 62.785156 108.148438 62.753906 108.167969 62.726562 C 108.285156 62.527344 108.300781 62.339844 108.203125 62.113281 C 107.914062 61.433594 107.648438 60.746094 107.367188 60.046875 Z M 107.367188 60.046875 " fill-opacity="1" fill-rule="nonzero"/><path fill="#fcfcfc" d="M 104.132812 58.925781 C 104.230469 58.917969 104.265625 58.953125 104.261719 59.03125 C 104.261719 59.152344 104.261719 59.273438 104.261719 59.4375 C 104.308594 59.390625 104.328125 59.378906 104.34375 59.359375 C 104.761719 58.792969 105.582031 58.714844 106.128906 58.941406 C 106.464844 59.078125 106.6875 59.335938 106.800781 59.671875 C 106.867188 59.878906 106.925781 60.097656 106.929688 60.308594 C 106.949219 61.027344 106.945312 61.742188 106.949219 62.460938 C 106.949219 62.484375 106.9375 62.511719 106.929688 62.546875 C 106.660156 62.546875 106.398438 62.546875 106.109375 62.546875 C 106.105469 62.476562 106.097656 62.402344 106.097656 62.332031 C 106.097656 61.8125 106.101562 61.292969 106.097656 60.773438 C 106.097656 60.636719 106.09375 60.5 106.078125 60.367188 C 106.007812 59.707031 105.535156 59.527344 105.035156 59.640625 C 104.605469 59.734375 104.316406 60.121094 104.308594 60.609375 C 104.300781 61.066406 104.304688 61.527344 104.304688 61.984375 C 104.304688 62.164062 104.304688 62.347656 104.304688 62.542969 C 104.015625 62.542969 103.746094 62.542969 103.464844 62.542969 C 103.464844 61.34375 103.464844 60.148438 103.464844 58.925781 C 103.683594 58.925781 103.898438 58.925781 104.132812 58.925781 Z M 104.132812 58.925781 " fill-opacity="1" fill-rule="nonzero"/><path fill="#fcfcfc" d="M 83.660156 62.464844 C 83.660156 61.875 83.660156 61.300781 83.65625 60.726562 C 83.65625 60.601562 83.65625 60.480469 83.640625 60.359375 C 83.554688 59.652344 83.039062 59.535156 82.589844 59.640625 C 82.214844 59.730469 81.941406 60.050781 81.886719 60.457031 C 81.871094 60.566406 81.867188 60.675781 81.867188 60.785156 C 81.867188 61.296875 81.867188 61.808594 81.867188 62.320312 C 81.867188 62.390625 81.867188 62.457031 81.867188 62.554688 C 81.582031 62.5625 81.316406 62.554688 81.050781 62.554688 C 81.007812 62.398438 80.996094 59.203125 81.035156 58.9375 C 81.289062 58.9375 81.542969 58.9375 81.820312 58.9375 C 81.820312 59.09375 81.820312 59.242188 81.820312 59.386719 C 81.832031 59.394531 81.84375 59.398438 81.855469 59.40625 C 81.894531 59.363281 81.929688 59.324219 81.96875 59.28125 C 82.484375 58.695312 83.558594 58.660156 84.089844 59.214844 C 84.257812 59.394531 84.363281 59.609375 84.421875 59.84375 C 84.464844 60.027344 84.503906 60.21875 84.503906 60.40625 C 84.515625 61.089844 84.511719 61.773438 84.511719 62.457031 C 84.511719 62.484375 84.503906 62.507812 84.496094 62.554688 C 84.238281 62.554688 83.980469 62.554688 83.722656 62.550781 C 83.699219 62.550781 83.679688 62.507812 83.660156 62.464844 Z M 83.660156 62.464844 " fill-opacity="1" fill-rule="nonzero"/><path fill="#fcfcfc" d="M 89.449219 58.925781 C 89.703125 58.925781 89.941406 58.925781 90.199219 58.925781 C 90.203125 59.003906 90.210938 59.070312 90.210938 59.136719 C 90.210938 59.695312 90.207031 60.257812 90.210938 60.816406 C 90.210938 60.929688 90.226562 61.046875 90.242188 61.160156 C 90.308594 61.632812 90.632812 61.941406 91.234375 61.859375 C 91.585938 61.8125 91.820312 61.566406 91.886719 61.191406 C 91.910156 61.058594 91.921875 60.921875 91.921875 60.785156 C 91.925781 60.238281 91.921875 59.691406 91.921875 59.144531 C 91.921875 59.078125 91.921875 59.011719 91.921875 58.9375 C 92.210938 58.9375 92.472656 58.9375 92.746094 58.9375 C 92.753906 58.964844 92.769531 58.996094 92.769531 59.027344 C 92.765625 59.730469 92.765625 60.433594 92.753906 61.136719 C 92.75 61.265625 92.726562 61.394531 92.691406 61.519531 C 92.527344 62.125 92.144531 62.496094 91.527344 62.617188 C 91.183594 62.6875 90.84375 62.679688 90.511719 62.597656 C 89.878906 62.445312 89.46875 61.957031 89.390625 61.265625 C 89.371094 61.101562 89.363281 60.9375 89.363281 60.773438 C 89.359375 60.222656 89.359375 59.667969 89.363281 59.113281 C 89.363281 59.050781 89.320312 58.957031 89.449219 58.925781 Z M 89.449219 58.925781 " fill-opacity="1" fill-rule="nonzero"/><path fill="#fbfbfb" d="M 87.097656 61.175781 C 87.097656 60.292969 87.097656 59.433594 87.097656 58.546875 C 86.621094 58.546875 86.15625 58.546875 85.679688 58.546875 C 85.679688 58.277344 85.679688 58.035156 85.679688 57.789062 C 85.824219 57.746094 88.90625 57.726562 89.386719 57.769531 C 89.386719 58.023438 89.386719 58.277344 89.386719 58.542969 C 88.921875 58.542969 88.464844 58.542969 87.980469 58.542969 C 87.976562 59.222656 87.980469 59.886719 87.980469 60.554688 C 87.980469 61.214844 87.980469 61.875 87.980469 62.546875 C 87.675781 62.546875 87.398438 62.546875 87.097656 62.546875 C 87.097656 62.089844 87.097656 61.644531 87.097656 61.175781 Z M 87.097656 61.175781 " fill-opacity="1" fill-rule="nonzero"/><path fill="#fafafa" d="M 73.535156 61.769531 C 73.558594 61.761719 73.5625 61.769531 73.5625 61.773438 C 73.542969 61.8125 73.507812 61.847656 73.507812 61.882812 C 73.5 62.035156 73.503906 62.183594 73.503906 62.332031 C 73.503906 62.398438 73.496094 62.46875 73.492188 62.546875 C 72.480469 62.546875 71.480469 62.546875 70.46875 62.546875 C 70.46875 60.953125 70.46875 59.367188 70.46875 57.773438 C 70.511719 57.765625 70.558594 57.757812 70.605469 57.757812 C 70.84375 57.753906 71.078125 57.753906 71.335938 57.753906 C 71.335938 59.097656 71.335938 60.417969 71.335938 61.753906 C 71.425781 61.757812 71.5 61.765625 71.570312 61.765625 C 72.136719 61.765625 72.703125 61.765625 73.269531 61.765625 C 73.351562 61.765625 73.433594 61.773438 73.535156 61.769531 Z M 73.535156 61.769531 " fill-opacity="1" fill-rule="nonzero"/><path fill="#fbfbfb" d="M 65.324219 61.542969 C 65.324219 61.882812 65.324219 62.203125 65.324219 62.554688 C 65.179688 62.554688 65.046875 62.554688 64.914062 62.558594 C 64.777344 62.558594 64.644531 62.558594 64.511719 62.558594 C 64.460938 62.414062 64.445312 57.886719 64.492188 57.597656 C 64.757812 57.597656 65.027344 57.597656 65.324219 57.597656 C 65.324219 58.910156 65.324219 60.214844 65.324219 61.542969 Z M 65.324219 61.542969 " fill-opacity="1" fill-rule="nonzero"/><path fill="#ffffff" d="M 63.839844 62.554688 C 63.632812 62.554688 63.449219 62.554688 63.269531 62.554688 C 63.226562 62.402344 63.210938 59.289062 63.25 58.941406 C 63.519531 58.941406 63.789062 58.941406 64.058594 58.941406 C 64.097656 59.078125 64.113281 62.203125 64.070312 62.554688 C 64.003906 62.554688 63.929688 62.554688 63.839844 62.554688 Z M 63.839844 62.554688 " fill-opacity="1" fill-rule="nonzero"/><path fill="#fcfcfc" d="M 63.144531 57.992188 C 63.054688 57.558594 63.453125 57.277344 63.886719 57.429688 C 64.089844 57.5 64.199219 57.679688 64.195312 57.890625 C 64.191406 58.097656 64.0625 58.265625 63.863281 58.332031 C 63.542969 58.433594 63.277344 58.316406 63.144531 57.992188 Z M 63.144531 57.992188 " fill-opacity="1" fill-rule="nonzero"/><path fill="#565656" d="M 97.039062 59.796875 C 97.292969 59.621094 97.566406 59.578125 97.851562 59.632812 C 98.175781 59.695312 98.402344 59.886719 98.550781 60.203125 C 98.78125 60.203125 99.019531 60.203125 99.277344 60.203125 C 99.261719 60.386719 99.238281 60.542969 99.238281 60.703125 C 99.234375 60.867188 99.257812 61.03125 99.269531 61.21875 C 99.035156 61.21875 98.800781 61.21875 98.570312 61.21875 C 98.539062 61.273438 98.519531 61.308594 98.503906 61.34375 C 98.207031 62.003906 97.226562 62.054688 96.800781 61.453125 C 96.503906 61.03125 96.484375 60.191406 97.039062 59.796875 Z M 97.039062 59.796875 " fill-opacity="1" fill-rule="nonzero"/><path fill="#565656" d="M 100.414062 61.585938 C 100.097656 61.25 100.027344 60.859375 100.121094 60.433594 C 100.238281 59.929688 100.648438 59.613281 101.15625 59.613281 C 101.636719 59.617188 102.0625 59.957031 102.171875 60.441406 C 102.273438 60.871094 102.1875 61.257812 101.875 61.578125 C 101.480469 61.972656 100.816406 61.96875 100.414062 61.585938 Z M 100.414062 61.585938 " fill-opacity="1" fill-rule="nonzero"/><path fill="#565656" d="M 61.042969 59.617188 C 61.644531 59.699219 62 60.175781 62 60.660156 C 61.996094 61.09375 61.789062 61.421875 61.402344 61.609375 C 61.019531 61.800781 60.628906 61.765625 60.285156 61.507812 C 59.941406 61.253906 59.820312 60.890625 59.890625 60.476562 C 59.976562 59.957031 60.371094 59.628906 60.902344 59.613281 C 60.941406 59.613281 60.984375 59.613281 61.042969 59.617188 Z M 61.042969 59.617188 " fill-opacity="1" fill-rule="nonzero"/><path fill="#575757" d="M 56.46875 60.890625 C 56.359375 60.890625 56.273438 60.890625 56.148438 60.890625 C 56.417969 60.230469 56.675781 59.597656 56.945312 58.925781 C 57.214844 59.585938 57.476562 60.21875 57.753906 60.890625 C 57.3125 60.890625 56.898438 60.890625 56.46875 60.890625 Z M 56.46875 60.890625 " fill-opacity="1" fill-rule="nonzero"/><path fill="#565656" d="M 79.765625 60.628906 C 79.808594 61.164062 79.542969 61.621094 79.097656 61.796875 C 78.449219 62.054688 77.75 61.644531 77.667969 60.953125 C 77.648438 60.792969 77.648438 60.625 77.675781 60.464844 C 77.769531 59.988281 78.164062 59.644531 78.625 59.617188 C 79.125 59.585938 79.550781 59.875 79.707031 60.351562 C 79.734375 60.433594 79.746094 60.523438 79.765625 60.628906 Z M 79.765625 60.628906 " fill-opacity="1" fill-rule="nonzero"/><path fill="#585858" d="M 75.449219 60.96875 C 75.910156 60.96875 76.351562 60.96875 76.800781 60.96875 C 76.832031 61.121094 76.859375 61.261719 76.890625 61.414062 C 76.570312 61.414062 76.265625 61.414062 75.96875 61.414062 C 75.683594 61.847656 75.34375 61.984375 74.878906 61.871094 C 74.476562 61.769531 74.1875 61.425781 74.144531 60.96875 C 74.574219 60.96875 75 60.96875 75.449219 60.96875 Z M 75.449219 60.96875 " fill-opacity="1" fill-rule="nonzero"/><path fill="#585858" d="M 75.507812 59.628906 C 75.824219 59.75 76.039062 59.945312 76.105469 60.296875 C 75.457031 60.296875 74.828125 60.296875 74.175781 60.296875 C 74.214844 60.101562 74.3125 59.945312 74.457031 59.820312 C 74.761719 59.558594 75.113281 59.511719 75.507812 59.628906 Z M 75.507812 59.628906 " fill-opacity="1" fill-rule="nonzero"/><path fill="#585858" d="M 68.273438 60.246094 C 68.25 60.277344 68.222656 60.308594 68.195312 60.308594 C 67.59375 60.308594 66.988281 60.308594 66.359375 60.308594 C 66.375 60.25 66.382812 60.195312 66.402344 60.152344 C 66.570312 59.761719 66.941406 59.546875 67.410156 59.570312 C 67.753906 59.589844 68.1875 59.816406 68.273438 60.246094 Z M 68.273438 60.246094 " fill-opacity="1" fill-rule="nonzero"/></svg>