<svg xmlns="http://www.w3.org/2000/svg" xmlns:xlink="http://www.w3.org/1999/xlink" width="220" zoomAndPan="magnify" viewBox="0 0 165 82.499998" height="110" preserveAspectRatio="xMidYMid meet" version="1.0"><defs><clipPath id="57b18f6e65"><path d="M 0.496094 0 L 164.503906 0 L 164.503906 82.003906 L 0.496094 82.003906 Z M 0.496094 0 " clip-rule="nonzero"/></clipPath></defs><g clip-path="url(#57b18f6e65)"><path fill="#ffffff" d="M 0.496094 0 L 164.503906 0 L 164.503906 82.003906 L 0.496094 82.003906 Z M 0.496094 0 " fill-opacity="1" fill-rule="nonzero"/><path fill="#ffffff" d="M 0.496094 0 L 164.503906 0 L 164.503906 82.003906 L 0.496094 82.003906 Z M 0.496094 0 " fill-opacity="1" fill-rule="nonzero"/></g><path fill="#c32033" d="M 93.78125 40.4375 L 94.625 38.109375 L 94.609375 38.101562 L 89.304688 36.167969 L 89.234375 36.144531 C 85.699219 39.941406 79.902344 45.238281 79.902344 45.238281 L 79.902344 55.917969 L 98.359375 45.703125 L 99.078125 39.496094 Z M 93.78125 40.4375 " fill-opacity="1" fill-rule="nonzero"/><path fill="#c32033" d="M 91.707031 22.074219 C 96.269531 26.582031 92.28125 32.636719 91.285156 33.960938 C 91.1875 34.085938 91.085938 34.222656 90.972656 34.359375 L 95.449219 35.984375 L 95.464844 35.992188 L 96.308594 33.671875 L 99.394531 37.351562 L 101.757812 16.90625 L 79.980469 9.136719 L 79.980469 22.648438 C 80.714844 21.324219 86.921875 17.351562 91.707031 22.074219 Z M 91.707031 22.074219 " fill-opacity="1" fill-rule="nonzero"/><path fill="#dd1e34" d="M 66.230469 25.359375 L 66.308594 25.386719 C 66.589844 24.253906 67.1875 23.121094 68.246094 22.074219 C 73.035156 17.351562 79.238281 21.324219 79.980469 22.648438 L 79.980469 9.144531 L 58.203125 16.914062 L 58.867188 22.679688 Z M 66.230469 25.359375 " fill-opacity="1" fill-rule="nonzero"/><path fill="#dd1e34" d="M 68.605469 33.9375 C 68 33.128906 66.292969 30.578125 66.0625 27.691406 L 59.152344 25.175781 L 61.523438 45.703125 L 79.980469 55.917969 L 79.980469 45.238281 C 79.980469 45.238281 71.199219 37.375 68.605469 33.9375 Z M 68.605469 33.9375 " fill-opacity="1" fill-rule="nonzero"/><path fill="#dd1e34" d="M 51.65625 67.628906 L 51 67.78125 C 50.644531 67.867188 50.347656 68.003906 50.140625 68.179688 C 49.933594 68.355469 49.8125 68.539062 49.8125 68.730469 C 49.8125 68.921875 49.886719 69.074219 50.035156 69.175781 C 50.171875 69.28125 50.332031 69.328125 50.5 69.328125 C 50.636719 69.328125 50.753906 69.296875 50.898438 69.226562 C 51.035156 69.152344 51.152344 69.074219 51.257812 68.96875 C 51.359375 68.867188 51.464844 68.761719 51.535156 68.640625 C 51.609375 68.523438 51.65625 68.417969 51.671875 68.332031 L 51.671875 67.628906 Z M 51.742188 70.46875 L 51.742188 69.664062 C 51.710938 69.734375 51.640625 69.816406 51.550781 69.917969 C 51.464844 70.023438 51.34375 70.125 51.191406 70.246094 C 51.058594 70.347656 50.882812 70.4375 50.714844 70.523438 C 50.523438 70.597656 50.339844 70.628906 50.148438 70.628906 C 49.476562 70.628906 48.976562 70.453125 48.632812 70.125 C 48.289062 69.800781 48.113281 69.382812 48.113281 68.890625 C 48.113281 68.59375 48.1875 68.339844 48.335938 68.085938 C 48.488281 67.84375 48.679688 67.621094 48.9375 67.429688 C 49.175781 67.238281 49.453125 67.085938 49.765625 66.953125 C 50.078125 66.816406 50.363281 66.726562 50.675781 66.65625 L 51.65625 66.449219 L 51.65625 66.34375 C 51.65625 66.121094 51.566406 65.914062 51.402344 65.707031 C 51.226562 65.515625 50.984375 65.410156 50.644531 65.410156 C 50.492188 65.410156 50.332031 65.445312 50.179688 65.5 C 50.003906 65.546875 49.851562 65.621094 49.71875 65.691406 C 49.566406 65.761719 49.4375 65.828125 49.320312 65.898438 C 49.199219 65.96875 49.128906 66.019531 49.078125 66.035156 L 48.496094 64.796875 C 48.546875 64.78125 48.648438 64.726562 48.808594 64.644531 C 48.960938 64.574219 49.152344 64.496094 49.390625 64.421875 C 49.613281 64.351562 49.867188 64.289062 50.164062 64.214844 C 50.445312 64.144531 50.746094 64.128906 51.042969 64.128906 C 51.402344 64.128906 51.710938 64.175781 52.007812 64.277344 C 52.285156 64.382812 52.542969 64.519531 52.734375 64.695312 C 52.941406 64.886719 53.089844 65.09375 53.195312 65.347656 C 53.300781 65.601562 53.371094 65.882812 53.371094 66.195312 L 53.371094 70.476562 Z M 51.742188 70.46875 " fill-opacity="1" fill-rule="nonzero"/><path fill="#dd1e34" d="M 58.421875 70.46875 L 58.421875 66.496094 C 58.421875 66.273438 58.347656 66.066406 58.230469 65.859375 C 58.109375 65.652344 57.917969 65.546875 57.664062 65.546875 C 57.527344 65.546875 57.382812 65.578125 57.261719 65.652344 C 57.144531 65.722656 57.039062 65.800781 56.953125 65.90625 C 56.863281 66.011719 56.777344 66.113281 56.730469 66.21875 C 56.65625 66.320312 56.625 66.425781 56.609375 66.511719 L 56.609375 70.453125 L 54.855469 70.453125 L 54.855469 64.253906 L 56.53125 64.253906 L 56.53125 65.0625 C 56.546875 64.988281 56.617188 64.910156 56.707031 64.804688 C 56.792969 64.703125 56.914062 64.597656 57.046875 64.480469 C 57.183594 64.375 57.34375 64.289062 57.511719 64.199219 C 57.6875 64.128906 57.855469 64.097656 58.027344 64.097656 C 58.445312 64.097656 58.785156 64.167969 59.058594 64.320312 C 59.335938 64.46875 59.535156 64.644531 59.710938 64.871094 C 59.886719 65.09375 59.992188 65.332031 60.054688 65.59375 C 60.117188 65.859375 60.160156 66.097656 60.160156 66.320312 L 60.160156 70.4375 L 58.421875 70.4375 Z M 58.421875 70.46875 " fill-opacity="1" fill-rule="nonzero"/><path fill="#dd1e34" d="M 64.753906 66.425781 C 64.753906 66.144531 64.683594 65.90625 64.546875 65.699219 C 64.410156 65.507812 64.203125 65.402344 63.890625 65.402344 C 63.742188 65.402344 63.597656 65.4375 63.492188 65.507812 C 63.390625 65.578125 63.300781 65.660156 63.238281 65.746094 C 63.167969 65.851562 63.117188 65.953125 63.101562 66.074219 C 63.070312 66.195312 63.054688 66.3125 63.054688 66.417969 C 63.054688 66.550781 63.070312 66.671875 63.101562 66.816406 C 63.132812 66.953125 63.175781 67.054688 63.238281 67.160156 C 63.308594 67.261719 63.390625 67.351562 63.492188 67.414062 C 63.597656 67.484375 63.734375 67.519531 63.890625 67.519531 C 64.066406 67.519531 64.1875 67.484375 64.308594 67.429688 C 64.410156 67.359375 64.5 67.292969 64.5625 67.191406 C 64.632812 67.085938 64.683594 66.96875 64.699219 66.847656 C 64.738281 66.695312 64.753906 66.558594 64.753906 66.425781 Z M 65.199219 71.363281 C 65.199219 71.210938 65.097656 71.066406 64.875 70.949219 C 64.648438 70.8125 64.324219 70.757812 63.90625 70.757812 C 63.550781 70.757812 63.269531 70.828125 63.03125 70.949219 C 62.808594 71.082031 62.6875 71.226562 62.6875 71.363281 C 62.6875 71.554688 62.792969 71.707031 63.015625 71.839844 C 63.222656 71.976562 63.53125 72.03125 63.90625 72.03125 C 64.324219 72.03125 64.648438 71.960938 64.875 71.808594 C 65.097656 71.671875 65.199219 71.523438 65.199219 71.363281 Z M 66.179688 65.386719 C 66.214844 65.460938 66.269531 65.578125 66.355469 65.785156 C 66.445312 65.976562 66.476562 66.203125 66.476562 66.441406 C 66.476562 66.800781 66.429688 67.109375 66.300781 67.40625 C 66.199219 67.699219 66.023438 67.957031 65.796875 68.164062 C 65.574219 68.371094 65.320312 68.539062 64.992188 68.640625 C 64.664062 68.761719 64.308594 68.816406 63.890625 68.816406 C 63.789062 68.816406 63.683594 68.851562 63.582031 68.90625 C 63.476562 68.976562 63.429688 69.042969 63.429688 69.128906 C 63.429688 69.234375 63.476562 69.320312 63.566406 69.367188 C 63.652344 69.441406 63.773438 69.472656 63.90625 69.472656 C 64.308594 69.472656 64.699219 69.519531 65.066406 69.609375 C 65.421875 69.710938 65.75 69.832031 66.03125 70.007812 C 66.308594 70.183594 66.53125 70.367188 66.683594 70.613281 C 66.859375 70.835938 66.921875 71.089844 66.921875 71.371094 C 66.921875 71.59375 66.851562 71.816406 66.699219 72.039062 C 66.546875 72.265625 66.339844 72.488281 66.078125 72.679688 C 65.796875 72.871094 65.496094 73.023438 65.128906 73.140625 C 64.769531 73.261719 64.355469 73.316406 63.90625 73.316406 C 63.492188 73.316406 63.117188 73.285156 62.773438 73.195312 C 62.433594 73.109375 62.121094 72.988281 61.882812 72.855469 C 61.625 72.703125 61.433594 72.527344 61.285156 72.304688 C 61.148438 72.097656 61.058594 71.855469 61.058594 71.578125 C 61.058594 71.371094 61.132812 71.179688 61.25 71.011719 C 61.371094 70.835938 61.53125 70.683594 61.699219 70.566406 C 61.875 70.445312 62.058594 70.339844 62.25 70.269531 C 62.441406 70.199219 62.59375 70.164062 62.710938 70.148438 C 62.679688 70.148438 62.609375 70.117188 62.503906 70.101562 C 62.402344 70.070312 62.3125 70.03125 62.191406 69.964844 C 62.089844 69.917969 61.984375 69.832031 61.914062 69.742188 C 61.824219 69.65625 61.792969 69.519531 61.792969 69.382812 C 61.792969 69.28125 61.824219 69.191406 61.882812 69.105469 C 61.929688 69.015625 62.019531 68.929688 62.105469 68.867188 C 62.191406 68.792969 62.28125 68.730469 62.359375 68.691406 C 62.449219 68.640625 62.535156 68.617188 62.601562 68.601562 C 62.496094 68.554688 62.359375 68.46875 62.226562 68.378906 C 62.089844 68.292969 61.945312 68.15625 61.808594 67.980469 C 61.691406 67.804688 61.570312 67.605469 61.484375 67.359375 C 61.394531 67.117188 61.347656 66.808594 61.347656 66.464844 C 61.347656 66.226562 61.394531 65.960938 61.5 65.691406 C 61.601562 65.410156 61.777344 65.171875 61.976562 64.949219 C 62.183594 64.726562 62.457031 64.535156 62.765625 64.398438 C 63.078125 64.246094 63.453125 64.175781 63.882812 64.175781 C 64.164062 64.175781 64.402344 64.191406 64.609375 64.246094 C 64.816406 64.277344 64.9375 64.320312 64.984375 64.335938 L 66.964844 64.335938 L 66.964844 65.4375 L 66.179688 65.4375 Z M 66.179688 65.386719 " fill-opacity="1" fill-rule="nonzero"/><path fill="#dd1e34" d="M 71.429688 70.46875 L 71.429688 69.664062 C 71.398438 69.734375 71.328125 69.816406 71.238281 69.917969 C 71.152344 70.023438 71.046875 70.125 70.910156 70.246094 C 70.792969 70.347656 70.632812 70.4375 70.480469 70.523438 C 70.304688 70.597656 70.136719 70.628906 69.960938 70.628906 C 69.5625 70.628906 69.238281 70.558594 68.980469 70.4375 C 68.726562 70.300781 68.503906 70.125 68.34375 69.917969 C 68.167969 69.710938 68.0625 69.457031 68 69.175781 C 67.929688 68.898438 67.894531 68.609375 67.894531 68.332031 L 67.894531 64.304688 L 69.652344 64.304688 L 69.652344 68.277344 C 69.652344 68.363281 69.652344 68.449219 69.667969 68.554688 C 69.683594 68.660156 69.714844 68.761719 69.769531 68.867188 C 69.820312 68.96875 69.890625 69.058594 69.996094 69.105469 C 70.082031 69.175781 70.21875 69.207031 70.371094 69.207031 C 70.503906 69.207031 70.625 69.175781 70.742188 69.089844 C 70.863281 69 70.96875 68.914062 71.054688 68.808594 C 71.144531 68.707031 71.230469 68.601562 71.277344 68.484375 C 71.328125 68.378906 71.367188 68.292969 71.382812 68.242188 L 71.382812 64.304688 L 73.136719 64.304688 L 73.136719 70.5 L 71.414062 70.5 L 71.414062 70.46875 Z M 71.429688 70.46875 " fill-opacity="1" fill-rule="nonzero"/><path fill="#dd1e34" d="M 77.484375 70.398438 C 77.398438 70.429688 77.292969 70.46875 77.1875 70.484375 C 77.085938 70.515625 76.964844 70.53125 76.847656 70.574219 C 76.726562 70.589844 76.605469 70.605469 76.472656 70.605469 C 76.097656 70.605469 75.800781 70.558594 75.5625 70.429688 C 75.324219 70.308594 75.148438 70.175781 75.011719 69.984375 C 74.875 69.792969 74.789062 69.582031 74.730469 69.359375 C 74.683594 69.136719 74.660156 68.898438 74.660156 68.675781 L 74.660156 61.726562 L 76.414062 61.726562 L 76.414062 68.609375 C 76.414062 68.785156 76.429688 68.90625 76.464844 69.007812 C 76.496094 69.113281 76.566406 69.160156 76.671875 69.160156 C 76.71875 69.160156 76.789062 69.144531 76.894531 69.089844 C 76.996094 69.042969 77.070312 68.984375 77.117188 68.9375 L 77.699219 70.332031 C 77.644531 70.347656 77.570312 70.382812 77.484375 70.398438 Z M 77.484375 70.398438 " fill-opacity="1" fill-rule="nonzero"/><path fill="#dd1e34" d="M 81.464844 67.628906 L 80.8125 67.78125 C 80.453125 67.867188 80.15625 68.003906 79.949219 68.179688 C 79.742188 68.355469 79.621094 68.539062 79.621094 68.730469 C 79.621094 68.921875 79.695312 69.074219 79.84375 69.175781 C 79.980469 69.28125 80.140625 69.328125 80.308594 69.328125 C 80.445312 69.328125 80.5625 69.296875 80.707031 69.226562 C 80.84375 69.152344 80.960938 69.074219 81.066406 68.96875 C 81.167969 68.867188 81.273438 68.761719 81.34375 68.640625 C 81.417969 68.523438 81.464844 68.417969 81.480469 68.332031 L 81.480469 67.628906 Z M 81.527344 70.46875 L 81.527344 69.664062 C 81.496094 69.734375 81.425781 69.816406 81.335938 69.917969 C 81.25 70.023438 81.128906 70.125 80.976562 70.246094 C 80.84375 70.347656 80.667969 70.4375 80.5 70.523438 C 80.308594 70.597656 80.125 70.628906 79.933594 70.628906 C 79.261719 70.628906 78.761719 70.453125 78.417969 70.125 C 78.074219 69.800781 77.898438 69.382812 77.898438 68.890625 C 77.898438 68.59375 77.972656 68.339844 78.121094 68.085938 C 78.273438 67.84375 78.464844 67.621094 78.71875 67.429688 C 78.960938 67.238281 79.238281 67.085938 79.550781 66.953125 C 79.863281 66.816406 80.148438 66.726562 80.460938 66.65625 L 81.441406 66.449219 L 81.441406 66.34375 C 81.441406 66.121094 81.351562 65.914062 81.183594 65.707031 C 81.011719 65.515625 80.769531 65.410156 80.425781 65.410156 C 80.277344 65.410156 80.117188 65.445312 79.964844 65.5 C 79.789062 65.546875 79.636719 65.621094 79.503906 65.691406 C 79.351562 65.761719 79.222656 65.828125 79.105469 65.898438 C 78.984375 65.96875 78.914062 66.019531 78.863281 66.035156 L 78.28125 64.796875 C 78.328125 64.78125 78.433594 64.726562 78.59375 64.644531 C 78.746094 64.574219 78.9375 64.496094 79.175781 64.421875 C 79.398438 64.351562 79.652344 64.289062 79.949219 64.214844 C 80.226562 64.144531 80.53125 64.128906 80.828125 64.128906 C 81.183594 64.128906 81.496094 64.175781 81.792969 64.277344 C 82.085938 64.382812 82.324219 64.519531 82.519531 64.695312 C 82.726562 64.886719 82.875 65.09375 82.980469 65.347656 C 83.082031 65.601562 83.15625 65.882812 83.15625 66.195312 L 83.15625 70.476562 Z M 81.527344 70.46875 " fill-opacity="1" fill-rule="nonzero"/><path fill="#dd1e34" d="M 88.070312 65.921875 C 88.023438 65.890625 87.933594 65.835938 87.8125 65.785156 C 87.695312 65.738281 87.605469 65.699219 87.535156 65.699219 C 87.359375 65.699219 87.207031 65.730469 87.070312 65.800781 C 86.9375 65.875 86.816406 65.953125 86.730469 66.042969 C 86.625 66.144531 86.554688 66.234375 86.507812 66.335938 C 86.457031 66.441406 86.417969 66.527344 86.402344 66.578125 L 86.402344 70.453125 L 84.648438 70.453125 L 84.648438 64.253906 L 86.316406 64.253906 L 86.316406 65.0625 C 86.332031 65.011719 86.386719 64.941406 86.464844 64.820312 C 86.539062 64.71875 86.640625 64.613281 86.777344 64.496094 C 86.898438 64.390625 87.054688 64.289062 87.222656 64.214844 C 87.398438 64.128906 87.582031 64.097656 87.789062 64.097656 C 87.863281 64.097656 87.941406 64.113281 88.03125 64.128906 C 88.117188 64.144531 88.203125 64.175781 88.285156 64.199219 C 88.371094 64.230469 88.4375 64.269531 88.507812 64.304688 C 88.578125 64.335938 88.613281 64.375 88.644531 64.390625 Z M 88.070312 65.921875 " fill-opacity="1" fill-rule="nonzero"/><path fill="#dd1e34" d="M 90.804688 69.589844 C 90.804688 69.726562 90.773438 69.871094 90.71875 69.992188 C 90.667969 70.109375 90.582031 70.230469 90.496094 70.316406 C 90.390625 70.40625 90.285156 70.46875 90.167969 70.539062 C 90.046875 70.589844 89.910156 70.628906 89.753906 70.628906 C 89.601562 70.628906 89.457031 70.597656 89.335938 70.539062 C 89.21875 70.492188 89.097656 70.421875 89.011719 70.316406 C 88.90625 70.230469 88.835938 70.109375 88.789062 69.992188 C 88.738281 69.871094 88.699219 69.734375 88.699219 69.589844 C 88.699219 69.457031 88.730469 69.3125 88.789062 69.191406 C 88.84375 69.074219 88.921875 68.96875 89.011719 68.867188 C 89.097656 68.777344 89.21875 68.691406 89.335938 68.640625 C 89.457031 68.59375 89.59375 68.554688 89.753906 68.554688 C 89.902344 68.554688 90.046875 68.585938 90.167969 68.640625 C 90.285156 68.691406 90.40625 68.761719 90.496094 68.867188 C 90.582031 68.96875 90.667969 69.074219 90.71875 69.191406 C 90.773438 69.3125 90.804688 69.457031 90.804688 69.589844 Z M 90.804688 69.589844 " fill-opacity="1" fill-rule="nonzero"/><path fill="#dd1e34" d="M 95.015625 70.398438 C 94.929688 70.429688 94.824219 70.46875 94.722656 70.484375 C 94.617188 70.515625 94.5 70.53125 94.378906 70.574219 C 94.257812 70.589844 94.140625 70.605469 94.003906 70.605469 C 93.628906 70.605469 93.332031 70.558594 93.09375 70.429688 C 92.855469 70.308594 92.679688 70.175781 92.542969 69.984375 C 92.410156 69.792969 92.320312 69.582031 92.265625 69.359375 C 92.21875 69.136719 92.191406 68.898438 92.191406 68.675781 L 92.191406 61.726562 L 93.949219 61.726562 L 93.949219 68.609375 C 93.949219 68.785156 93.964844 68.90625 93.996094 69.007812 C 94.027344 69.113281 94.101562 69.160156 94.203125 69.160156 C 94.25 69.160156 94.324219 69.144531 94.425781 69.089844 C 94.53125 69.042969 94.601562 68.984375 94.648438 68.9375 L 95.230469 70.332031 C 95.160156 70.347656 95.105469 70.382812 95.015625 70.398438 Z M 95.015625 70.398438 " fill-opacity="1" fill-rule="nonzero"/><path fill="#dd1e34" d="M 99.507812 67.214844 C 99.507812 67.078125 99.492188 66.902344 99.460938 66.710938 C 99.429688 66.519531 99.355469 66.351562 99.269531 66.160156 C 99.179688 65.984375 99.0625 65.835938 98.925781 65.730469 C 98.789062 65.609375 98.597656 65.554688 98.40625 65.554688 C 98.199219 65.554688 98.007812 65.601562 97.871094 65.730469 C 97.738281 65.835938 97.617188 65.96875 97.53125 66.144531 C 97.441406 66.320312 97.394531 66.488281 97.355469 66.679688 C 97.320312 66.871094 97.304688 67.054688 97.304688 67.214844 C 97.304688 67.390625 97.320312 67.589844 97.355469 67.820312 C 97.386719 68.042969 97.441406 68.265625 97.503906 68.476562 C 97.59375 68.683594 97.695312 68.851562 97.832031 68.992188 C 97.96875 69.128906 98.160156 69.199219 98.398438 69.199219 C 98.621094 69.199219 98.8125 69.128906 98.964844 69.007812 C 99.101562 68.875 99.21875 68.714844 99.308594 68.507812 C 99.394531 68.316406 99.445312 68.09375 99.484375 67.867188 C 99.492188 67.628906 99.507812 67.40625 99.507812 67.214844 Z M 101.300781 67.214844 C 101.300781 67.507812 101.253906 67.835938 101.167969 68.226562 C 101.078125 68.625 100.925781 68.984375 100.703125 69.34375 C 100.480469 69.703125 100.1875 70 99.8125 70.238281 C 99.4375 70.476562 98.964844 70.597656 98.382812 70.597656 C 97.800781 70.597656 97.3125 70.476562 96.957031 70.238281 C 96.582031 70 96.285156 69.703125 96.078125 69.359375 C 95.871094 69.015625 95.71875 68.632812 95.632812 68.257812 C 95.542969 67.859375 95.511719 67.519531 95.511719 67.207031 C 95.511719 66.894531 95.558594 66.550781 95.6875 66.195312 C 95.808594 65.835938 95.980469 65.507812 96.207031 65.195312 C 96.445312 64.886719 96.738281 64.628906 97.097656 64.4375 C 97.457031 64.230469 97.886719 64.128906 98.390625 64.128906 C 98.925781 64.128906 99.371094 64.230469 99.730469 64.4375 C 100.105469 64.644531 100.402344 64.902344 100.625 65.226562 C 100.847656 65.539062 101.023438 65.882812 101.128906 66.226562 C 101.246094 66.59375 101.300781 66.917969 101.300781 67.214844 Z M 101.300781 67.214844 " fill-opacity="1" fill-rule="nonzero"/><path fill="#dd1e34" d="M 105.722656 70.46875 L 103.792969 70.46875 L 101.851562 64.269531 L 103.742188 64.269531 L 104.796875 68.660156 L 105.839844 64.269531 L 107.667969 64.269531 Z M 105.722656 70.46875 " fill-opacity="1" fill-rule="nonzero"/><path fill="#dd1e34" d="M 112 66.664062 C 112 66.578125 111.96875 66.472656 111.910156 66.335938 C 111.863281 66.203125 111.792969 66.058594 111.71875 65.921875 C 111.632812 65.785156 111.527344 65.667969 111.410156 65.578125 C 111.289062 65.476562 111.152344 65.429688 110.996094 65.429688 C 110.820312 65.429688 110.667969 65.476562 110.546875 65.5625 C 110.429688 65.652344 110.324219 65.753906 110.238281 65.890625 C 110.148438 66.027344 110.101562 66.167969 110.046875 66.304688 C 110.011719 66.441406 109.972656 66.585938 109.972656 66.679688 L 111.984375 66.679688 L 111.984375 66.664062 Z M 109.941406 67.765625 C 109.941406 67.957031 109.972656 68.125 110.027344 68.300781 C 110.078125 68.476562 110.164062 68.640625 110.285156 68.777344 C 110.386719 68.914062 110.539062 69.035156 110.699219 69.121094 C 110.875 69.207031 111.058594 69.257812 111.265625 69.257812 C 111.457031 69.257812 111.625 69.242188 111.800781 69.183594 C 111.976562 69.152344 112.144531 69.097656 112.300781 69.035156 C 112.453125 68.960938 112.582031 68.914062 112.703125 68.84375 C 112.804688 68.769531 112.894531 68.707031 112.941406 68.667969 L 113.523438 70.0625 C 113.449219 70.09375 113.332031 70.148438 113.179688 70.214844 C 113.027344 70.285156 112.835938 70.332031 112.628906 70.390625 C 112.421875 70.4375 112.183594 70.492188 111.902344 70.539062 C 111.648438 70.589844 111.371094 70.613281 111.074219 70.613281 C 110.492188 70.613281 110.003906 70.507812 109.644531 70.285156 C 109.269531 70.0625 108.992188 69.78125 108.769531 69.457031 C 108.5625 69.128906 108.410156 68.753906 108.339844 68.355469 C 108.25 67.957031 108.21875 67.566406 108.21875 67.199219 C 108.21875 66.902344 108.265625 66.59375 108.394531 66.234375 C 108.511719 65.875 108.6875 65.546875 108.914062 65.238281 C 109.136719 64.925781 109.429688 64.671875 109.757812 64.445312 C 110.101562 64.238281 110.5 64.121094 110.960938 64.121094 C 111.496094 64.121094 111.925781 64.238281 112.269531 64.460938 C 112.613281 64.6875 112.894531 64.964844 113.101562 65.292969 C 113.308594 65.621094 113.441406 65.960938 113.53125 66.304688 C 113.617188 66.664062 113.652344 66.960938 113.652344 67.199219 L 113.652344 67.75 L 109.941406 67.75 Z M 109.941406 67.765625 " fill-opacity="1" fill-rule="nonzero"/></svg>