<svg xmlns="http://www.w3.org/2000/svg" xmlns:xlink="http://www.w3.org/1999/xlink" width="220" zoomAndPan="magnify" viewBox="0 0 165 82.499998" height="110" preserveAspectRatio="xMidYMid meet" version="1.0"><defs><clipPath id="93145d172a"><path d="M 0.496094 0 L 164.503906 0 L 164.503906 82.003906 L 0.496094 82.003906 Z M 0.496094 0 " clip-rule="nonzero"/></clipPath><clipPath id="6ea10fb682"><path d="M 57.898438 11.882812 L 82.5 11.882812 L 82.5 36.484375 L 57.898438 36.484375 Z M 57.898438 11.882812 " clip-rule="nonzero"/></clipPath><clipPath id="21e31afbb2"><path d="M 70.199219 36.484375 L 57.898438 24.183594 L 64.050781 24.183594 L 64.050781 11.882812 L 76.351562 11.882812 L 76.351562 24.183594 L 82.5 24.183594 L 70.199219 36.484375 " clip-rule="nonzero"/></clipPath></defs><g clip-path="url(#93145d172a)"><path fill="#ffffff" d="M 0.496094 0 L 164.503906 0 L 164.503906 89.457031 L 0.496094 89.457031 Z M 0.496094 0 " fill-opacity="1" fill-rule="nonzero"/><path fill="#ffffff" d="M 0.496094 0 L 164.503906 0 L 164.503906 82.003906 L 0.496094 82.003906 Z M 0.496094 0 " fill-opacity="1" fill-rule="nonzero"/><path fill="#ffffff" d="M 0.496094 0 L 164.503906 0 L 164.503906 82.003906 L 0.496094 82.003906 Z M 0.496094 0 " fill-opacity="1" fill-rule="nonzero"/></g><path fill="#000000" d="M 62.386719 44.445312 C 62.386719 44.445312 67.414062 43.476562 67.414062 38.835938 C 67.414062 34.773438 63.933594 31.292969 55.230469 31.292969 C 49.234375 31.292969 43.820312 31.679688 43.820312 31.679688 L 43.820312 58.757812 C 43.820312 58.757812 49.234375 59.144531 55.421875 59.144531 C 65.09375 59.144531 68.574219 55.660156 68.574219 51.40625 C 68.574219 45.605469 62.386719 44.636719 62.386719 44.636719 Z M 53.875 38.257812 L 55.230469 38.257812 C 56.582031 38.257812 57.359375 39.03125 57.359375 39.996094 C 57.359375 40.964844 56.582031 41.738281 55.230469 41.738281 L 53.875 41.738281 Z M 55.421875 52.179688 C 54.648438 52.179688 53.875 52.179688 53.875 52.179688 L 53.875 48.3125 L 55.421875 48.3125 C 56.96875 48.3125 57.742188 49.085938 57.742188 50.246094 C 57.742188 51.40625 56.96875 52.179688 55.421875 52.179688 Z M 55.421875 52.179688 " fill-opacity="1" fill-rule="nonzero"/><path fill="#000000" d="M 86.753906 49.859375 C 84.046875 49.859375 82.109375 47.925781 82.109375 45.21875 C 82.109375 42.511719 84.046875 40.578125 86.753906 40.578125 C 89.460938 40.578125 91.78125 42.703125 91.78125 42.703125 L 96.421875 35.355469 C 96.421875 35.355469 92.941406 31.101562 85.59375 31.101562 C 77.46875 31.101562 71.28125 37.289062 71.28125 45.21875 C 71.28125 53.148438 77.46875 59.335938 85.59375 59.335938 C 93.328125 59.335938 96.808594 54.695312 96.808594 54.695312 L 96.808594 45.21875 L 87.527344 45.21875 L 87.527344 49.859375 C 87.527344 49.859375 87.140625 49.859375 86.753906 49.859375 Z M 86.753906 49.859375 " fill-opacity="1" fill-rule="nonzero"/><path fill="#000000" d="M 110.734375 49.085938 L 120.789062 49.085938 L 120.789062 41.351562 L 110.734375 41.351562 L 110.734375 39.417969 L 121.5625 39.417969 L 121.5625 31.679688 L 100.675781 31.679688 L 100.675781 58.757812 L 122.335938 58.757812 L 122.335938 51.019531 L 110.734375 51.019531 Z M 110.734375 49.085938 " fill-opacity="1" fill-rule="nonzero"/><g clip-path="url(#6ea10fb682)"><g clip-path="url(#21e31afbb2)"><path fill="#000000" d="M 57.898438 11.882812 L 82.5 11.882812 L 82.5 36.484375 L 57.898438 36.484375 Z M 57.898438 11.882812 " fill-opacity="1" fill-rule="nonzero"/></g></g><path fill="#000000" d="M 45.613281 62.019531 L 44.132812 62.019531 L 44.132812 66 L 47.144531 66 L 47.144531 64.691406 L 45.613281 64.691406 Z M 45.613281 62.019531 " fill-opacity="1" fill-rule="nonzero"/><path fill="#000000" d="M 48.878906 62.902344 C 48.113281 62.902344 47.683594 63.355469 47.683594 63.355469 L 48.167969 64.125 C 48.167969 64.125 48.394531 63.894531 48.679688 63.894531 C 49.136719 63.894531 49.191406 64.207031 49.191406 64.207031 L 48.738281 64.207031 C 47.769531 64.207031 47.371094 64.605469 47.371094 65.148438 C 47.371094 65.6875 47.769531 66.085938 48.394531 66.085938 C 48.90625 66.085938 49.136719 65.660156 49.136719 65.660156 L 49.25 66 L 50.554688 66 C 50.554688 65.554688 50.554688 64.980469 50.554688 64.492188 C 50.554688 63.613281 49.847656 62.902344 48.878906 62.902344 Z M 48.90625 65.175781 C 48.824219 65.175781 48.738281 65.089844 48.738281 65.003906 C 48.738281 64.835938 48.878906 64.691406 49.191406 64.691406 C 49.191406 65.035156 49.050781 65.175781 48.90625 65.175781 Z M 48.90625 65.175781 " fill-opacity="1" fill-rule="nonzero"/><path fill="#000000" d="M 54.988281 63.894531 C 54.988281 63.894531 55.730469 63.753906 55.730469 63.070312 C 55.730469 62.476562 55.21875 61.964844 53.9375 61.964844 C 53.058594 61.964844 52.261719 62.019531 52.261719 62.019531 L 52.261719 66 C 52.261719 66 53.058594 66.054688 53.964844 66.054688 C 55.386719 66.054688 55.898438 65.542969 55.898438 64.917969 C 55.898438 64.066406 54.988281 63.925781 54.988281 63.925781 Z M 53.738281 62.988281 L 53.9375 62.988281 C 54.136719 62.988281 54.25 63.101562 54.25 63.242188 C 54.25 63.382812 54.136719 63.5 53.9375 63.5 L 53.738281 63.5 Z M 53.964844 65.035156 C 53.851562 65.035156 53.738281 65.035156 53.738281 65.035156 L 53.738281 64.464844 L 53.964844 64.464844 C 54.195312 64.464844 54.308594 64.578125 54.308594 64.75 C 54.308594 64.917969 54.195312 65.035156 53.964844 65.035156 Z M 53.964844 65.035156 " fill-opacity="1" fill-rule="nonzero"/><path fill="#000000" d="M 57.773438 63.328125 L 57.660156 62.988281 L 56.351562 62.988281 L 56.351562 66 L 57.71875 66 L 57.71875 64.75 C 57.71875 64.351562 57.945312 64.125 58.230469 64.125 C 58.398438 64.125 58.628906 64.238281 58.628906 64.238281 L 58.855469 62.988281 C 58.855469 62.988281 58.683594 62.902344 58.457031 62.902344 C 58.003906 62.902344 57.773438 63.328125 57.773438 63.328125 Z M 57.773438 63.328125 " fill-opacity="1" fill-rule="nonzero"/><path fill="#000000" d="M 59.082031 62.988281 L 59.082031 66 L 60.445312 66 L 60.445312 62.988281 Z M 59.082031 62.644531 L 60.445312 62.644531 L 60.445312 61.566406 L 59.082031 61.566406 Z M 59.082031 62.644531 " fill-opacity="1" fill-rule="nonzero"/><path fill="#000000" d="M 62.890625 65.886719 C 62.890625 66.199219 62.664062 66.425781 62.320312 66.425781 C 62.039062 66.425781 61.808594 66.199219 61.808594 66.199219 L 61.242188 67.109375 C 61.242188 67.109375 61.695312 67.589844 62.519531 67.589844 C 63.488281 67.589844 64.253906 66.824219 64.253906 65.886719 L 64.253906 62.988281 L 63.003906 62.988281 L 62.890625 63.328125 C 62.890625 63.328125 62.664062 62.902344 62.09375 62.902344 C 61.46875 62.902344 60.902344 63.46875 60.902344 64.4375 C 60.902344 65.402344 61.46875 65.972656 62.09375 65.972656 C 62.664062 65.972656 62.890625 65.542969 62.890625 65.542969 Z M 62.320312 64.4375 C 62.320312 64.207031 62.464844 64.066406 62.632812 64.066406 C 62.804688 64.066406 62.945312 64.207031 62.945312 64.4375 C 62.945312 64.664062 62.804688 64.804688 62.632812 64.804688 C 62.464844 64.804688 62.320312 64.664062 62.320312 64.4375 Z M 62.320312 64.4375 " fill-opacity="1" fill-rule="nonzero"/><path fill="#000000" d="M 66.160156 62.902344 C 65.390625 62.902344 64.964844 63.355469 64.964844 63.355469 L 65.449219 64.125 C 65.449219 64.125 65.675781 63.894531 65.960938 63.894531 C 66.414062 63.894531 66.472656 64.207031 66.472656 64.207031 L 66.015625 64.207031 C 65.050781 64.207031 64.652344 64.605469 64.652344 65.148438 C 64.652344 65.6875 65.050781 66.085938 65.675781 66.085938 C 66.1875 66.085938 66.414062 65.660156 66.414062 65.660156 L 66.527344 66 L 67.835938 66 C 67.835938 65.554688 67.835938 64.980469 67.835938 64.492188 C 67.835938 63.613281 67.125 62.902344 66.160156 62.902344 Z M 66.1875 65.175781 C 66.101562 65.175781 66.015625 65.089844 66.015625 65.003906 C 66.015625 64.835938 66.160156 64.691406 66.472656 64.691406 C 66.472656 65.035156 66.328125 65.175781 66.1875 65.175781 Z M 66.1875 65.175781 " fill-opacity="1" fill-rule="nonzero"/><path fill="#000000" d="M 68.574219 64.125 L 68.574219 64.605469 C 68.574219 65.601562 69.085938 66.113281 69.9375 66.113281 C 70.222656 66.113281 70.449219 66.054688 70.449219 66.054688 L 70.449219 64.917969 C 70.449219 64.917969 70.335938 64.949219 70.222656 64.949219 C 70.050781 64.949219 69.9375 64.835938 69.9375 64.605469 L 69.9375 64.125 L 70.449219 64.125 L 70.449219 62.988281 L 69.9375 62.988281 L 69.9375 62.019531 L 68.574219 62.019531 L 68.574219 62.988281 L 68.175781 62.988281 L 68.175781 64.125 Z M 68.574219 64.125 " fill-opacity="1" fill-rule="nonzero"/><path fill="#000000" d="M 72.355469 62.902344 C 71.585938 62.902344 71.160156 63.355469 71.160156 63.355469 L 71.644531 64.125 C 71.644531 64.125 71.871094 63.894531 72.15625 63.894531 C 72.609375 63.894531 72.667969 64.207031 72.667969 64.207031 L 72.210938 64.207031 C 71.246094 64.207031 70.847656 64.605469 70.847656 65.148438 C 70.847656 65.6875 71.246094 66.085938 71.871094 66.085938 C 72.382812 66.085938 72.609375 65.660156 72.609375 65.660156 L 72.722656 66 L 74.03125 66 C 74.03125 65.554688 74.03125 64.980469 74.03125 64.492188 C 74.03125 63.613281 73.320312 62.902344 72.355469 62.902344 Z M 72.382812 65.175781 C 72.296875 65.175781 72.210938 65.089844 72.210938 65.003906 C 72.210938 64.835938 72.355469 64.691406 72.667969 64.691406 C 72.667969 65.035156 72.523438 65.175781 72.382812 65.175781 Z M 72.382812 65.175781 " fill-opacity="1" fill-rule="nonzero"/><path fill="#000000" d="M 75.566406 64.492188 C 75.566406 65.515625 76.132812 66.085938 76.757812 66.085938 C 77.328125 66.085938 77.554688 65.660156 77.554688 65.660156 C 77.554688 65.660156 77.554688 65.660156 77.667969 66 L 78.917969 66 L 78.917969 61.792969 L 77.554688 61.792969 L 77.554688 63.328125 C 77.554688 63.328125 77.328125 62.902344 76.757812 62.902344 C 76.132812 62.902344 75.566406 63.46875 75.566406 64.492188 Z M 76.984375 64.492188 C 76.984375 64.207031 77.128906 64.066406 77.296875 64.066406 C 77.46875 64.066406 77.609375 64.207031 77.609375 64.492188 C 77.609375 64.777344 77.46875 64.917969 77.296875 64.917969 C 77.128906 64.917969 76.984375 64.777344 76.984375 64.492188 Z M 76.984375 64.492188 " fill-opacity="1" fill-rule="nonzero"/><path fill="#000000" d="M 80.964844 62.902344 C 80.082031 62.902344 79.375 63.613281 79.375 64.492188 C 79.375 65.375 80.082031 66.085938 81.050781 66.085938 C 81.816406 66.085938 82.242188 65.628906 82.242188 65.628906 L 81.761719 64.863281 C 81.761719 64.863281 81.53125 65.089844 81.25 65.089844 C 80.792969 65.089844 80.738281 64.777344 80.738281 64.777344 L 82.554688 64.777344 C 82.554688 64.753906 82.554688 64.515625 82.554688 64.492188 C 82.554688 63.613281 81.84375 62.902344 80.964844 62.902344 Z M 80.710938 64.238281 C 80.710938 64.011719 80.824219 63.894531 80.964844 63.894531 C 81.105469 63.894531 81.21875 64.011719 81.21875 64.238281 Z M 80.710938 64.238281 " fill-opacity="1" fill-rule="nonzero"/><path fill="#000000" d="M 82.953125 62.988281 L 82.953125 66 L 84.316406 66 L 84.316406 62.988281 Z M 82.953125 62.644531 L 84.316406 62.644531 L 84.316406 61.566406 L 82.953125 61.566406 Z M 82.953125 62.644531 " fill-opacity="1" fill-rule="nonzero"/><path fill="#000000" d="M 88.238281 64.691406 C 87.839844 64.691406 87.558594 64.40625 87.558594 64.011719 C 87.558594 63.613281 87.839844 63.328125 88.238281 63.328125 C 88.636719 63.328125 88.980469 63.640625 88.980469 63.640625 L 89.660156 62.558594 C 89.660156 62.558594 89.148438 61.933594 88.070312 61.933594 C 86.875 61.933594 85.964844 62.84375 85.964844 64.011719 C 85.964844 65.175781 86.875 66.085938 88.070312 66.085938 C 89.207031 66.085938 89.71875 65.402344 89.71875 65.402344 L 89.71875 64.011719 L 88.351562 64.011719 L 88.351562 64.691406 C 88.351562 64.691406 88.296875 64.691406 88.238281 64.691406 Z M 88.238281 64.691406 " fill-opacity="1" fill-rule="nonzero"/><path fill="#000000" d="M 91.707031 62.902344 C 90.824219 62.902344 90.117188 63.613281 90.117188 64.492188 C 90.117188 65.375 90.824219 66.085938 91.792969 66.085938 C 92.558594 66.085938 92.984375 65.628906 92.984375 65.628906 L 92.503906 64.863281 C 92.503906 64.863281 92.273438 65.089844 91.992188 65.089844 C 91.535156 65.089844 91.480469 64.777344 91.480469 64.777344 L 93.296875 64.777344 C 93.296875 64.753906 93.296875 64.515625 93.296875 64.492188 C 93.296875 63.613281 92.585938 62.902344 91.707031 62.902344 Z M 91.453125 64.238281 C 91.453125 64.011719 91.566406 63.894531 91.707031 63.894531 C 91.847656 63.894531 91.960938 64.011719 91.960938 64.238281 Z M 91.453125 64.238281 " fill-opacity="1" fill-rule="nonzero"/><path fill="#000000" d="M 95.175781 62.902344 C 94.292969 62.902344 93.582031 63.613281 93.582031 64.492188 C 93.582031 65.375 94.292969 66.085938 95.257812 66.085938 C 96.027344 66.085938 96.453125 65.628906 96.453125 65.628906 L 95.96875 64.863281 C 95.96875 64.863281 95.742188 65.089844 95.457031 65.089844 C 95.003906 65.089844 94.945312 64.777344 94.945312 64.777344 L 96.765625 64.777344 C 96.765625 64.753906 96.765625 64.515625 96.765625 64.492188 C 96.765625 63.613281 96.054688 62.902344 95.175781 62.902344 Z M 94.917969 64.238281 C 94.917969 64.011719 95.03125 63.894531 95.175781 63.894531 C 95.316406 63.894531 95.429688 64.011719 95.429688 64.238281 Z M 94.917969 64.238281 " fill-opacity="1" fill-rule="nonzero"/><path fill="#000000" d="M 100.488281 62.988281 L 99.011719 62.988281 L 98.527344 64.125 L 98.527344 61.792969 L 97.164062 61.792969 L 97.164062 66 L 98.527344 66 L 98.527344 64.804688 L 99.097656 66 L 100.601562 66 L 99.691406 64.464844 Z M 100.488281 62.988281 " fill-opacity="1" fill-rule="nonzero"/><path fill="#000000" d="M 103.5 64.578125 L 104.980469 64.578125 L 104.980469 63.441406 L 103.5 63.441406 L 103.5 63.15625 L 105.09375 63.15625 L 105.09375 62.019531 L 102.023438 62.019531 L 102.023438 66 L 105.207031 66 L 105.207031 64.863281 L 103.5 64.863281 Z M 103.5 64.578125 " fill-opacity="1" fill-rule="nonzero"/><path fill="#000000" d="M 108.191406 65.089844 C 108.191406 64.179688 107.082031 64.125 107.082031 63.953125 C 107.082031 63.894531 107.136719 63.839844 107.222656 63.839844 C 107.535156 63.839844 107.765625 64.066406 107.765625 64.066406 L 108.191406 63.382812 C 108.191406 63.382812 107.707031 62.902344 106.941406 62.902344 C 106.058594 62.902344 105.605469 63.355469 105.605469 63.894531 C 105.605469 64.804688 106.710938 64.863281 106.710938 65.035156 C 106.710938 65.089844 106.65625 65.148438 106.570312 65.148438 C 106.144531 65.148438 105.859375 64.863281 105.859375 64.863281 L 105.433594 65.542969 C 105.433594 65.542969 105.917969 66.085938 106.855469 66.085938 C 107.734375 66.085938 108.191406 65.628906 108.191406 65.089844 Z M 108.191406 65.089844 " fill-opacity="1" fill-rule="nonzero"/><path fill="#000000" d="M 108.816406 64.125 L 108.816406 64.605469 C 108.816406 65.601562 109.328125 66.113281 110.179688 66.113281 C 110.464844 66.113281 110.691406 66.054688 110.691406 66.054688 L 110.691406 64.917969 C 110.691406 64.917969 110.578125 64.949219 110.464844 64.949219 C 110.292969 64.949219 110.179688 64.835938 110.179688 64.605469 L 110.179688 64.125 L 110.691406 64.125 L 110.691406 62.988281 L 110.179688 62.988281 L 110.179688 62.019531 L 108.816406 62.019531 L 108.816406 62.988281 L 108.417969 62.988281 L 108.417969 64.125 Z M 108.816406 64.125 " fill-opacity="1" fill-rule="nonzero"/><path fill="#000000" d="M 111.257812 62.988281 L 111.257812 66 L 112.625 66 L 112.625 62.988281 Z M 111.257812 62.644531 L 112.625 62.644531 L 112.625 61.566406 L 111.257812 61.566406 Z M 111.257812 62.644531 " fill-opacity="1" fill-rule="nonzero"/><path fill="#000000" d="M 115.351562 62.902344 C 114.839844 62.902344 114.613281 63.328125 114.613281 63.328125 L 114.5 62.988281 L 113.191406 62.988281 L 113.191406 66 L 114.554688 66 L 114.554688 64.40625 C 114.554688 64.179688 114.667969 64.066406 114.785156 64.066406 C 114.898438 64.066406 115.011719 64.179688 115.011719 64.40625 L 115.011719 66 L 116.375 66 L 116.375 64.40625 C 116.375 63.355469 115.921875 62.902344 115.351562 62.902344 Z M 115.351562 62.902344 " fill-opacity="1" fill-rule="nonzero"/><path fill="#000000" d="M 117.113281 64.125 L 117.113281 64.605469 C 117.113281 65.601562 117.625 66.113281 118.476562 66.113281 C 118.761719 66.113281 118.988281 66.054688 118.988281 66.054688 L 118.988281 64.917969 C 118.988281 64.917969 118.875 64.949219 118.761719 64.949219 C 118.589844 64.949219 118.476562 64.835938 118.476562 64.605469 L 118.476562 64.125 L 118.988281 64.125 L 118.988281 62.988281 L 118.476562 62.988281 L 118.476562 62.019531 L 117.113281 62.019531 L 117.113281 62.988281 L 116.714844 62.988281 L 116.714844 64.125 Z M 117.113281 64.125 " fill-opacity="1" fill-rule="nonzero"/><path fill="#000000" d="M 119.558594 62.988281 L 119.558594 66 L 120.921875 66 L 120.921875 62.988281 Z M 119.558594 62.644531 L 120.921875 62.644531 L 120.921875 61.566406 L 119.558594 61.566406 Z M 119.558594 62.644531 " fill-opacity="1" fill-rule="nonzero"/></svg>