<?xml version="1.0" encoding="UTF-8" standalone="no"?>
<svg
   width="1000"
   height="247.5"
   viewBox="0 0 932.40093 230.76924"
   class="looka-1j8o68f"
   version="1.1"
   id="svg18"
   sodipodi:docname="ctrlsecday.svg"
   inkscape:version="1.1.2 (0a00cf5339, 2022-02-04)"
   inkscape:export-filename="/home/trotto/Desktop/ctrlsecday/ctrlsecday.png"
   inkscape:export-xdpi="121.21"
   inkscape:export-ydpi="121.21"
   xmlns:inkscape="http://www.inkscape.org/namespaces/inkscape"
   xmlns:sodipodi="http://sodipodi.sourceforge.net/DTD/sodipodi-0.dtd"
   xmlns="http://www.w3.org/2000/svg"
   xmlns:svg="http://www.w3.org/2000/svg">
  <sodipodi:namedview
     id="namedview20"
     pagecolor="#ffffff"
     bordercolor="#666666"
     borderopacity="1.0"
     inkscape:pageshadow="2"
     inkscape:pageopacity="0.0"
     inkscape:pagecheckerboard="0"
     showgrid="false"
     inkscape:zoom="0.70710678"
     inkscape:cx="385.3732"
     inkscape:cy="120.20815"
     inkscape:window-width="1551"
     inkscape:window-height="1017"
     inkscape:window-x="2160"
     inkscape:window-y="26"
     inkscape:window-maximized="0"
     inkscape:current-layer="svg18" />
  <defs
     id="SvgjsDefs1143" />
  <g
     id="g25"
     transform="translate(62.103949,328.34178)">
    <g
       id="SvgjsG1144"
       featurekey="rootContainer"
       fill="#2b2b2b"
       transform="matrix(2.3310024,0,0,2.3310024,-62.103954,-328.34178)"
       inkscape:export-filename="/home/trotto/Desktop/ctrlsecday/ctrsecday.png"
       inkscape:export-xdpi="121.21"
       inkscape:export-ydpi="121.21">
      <rect
         width="400"
         height="99"
         rx="5"
         id="rect3"
         x="0"
         y="0" />
    </g>
    <g
       id="SvgjsG1145"
       featurekey="nYIUkx-0"
       transform="matrix(-1.9672153,0,0,1.9672153,144.55891,-310.58354)"
       fill="#fce38a"
       inkscape:export-filename="/home/trotto/Desktop/ctrlsecday/ctrsecday.png"
       inkscape:export-xdpi="121.21"
       inkscape:export-ydpi="121.21">
      <path
         d="m 83.122,8.759 c 0,-1.915 -14.045,-3.478 -31.673,-3.563 v 0 c -0.017,0 -0.033,0 -0.049,0 C 50.937,5.193 50.472,5.192 50.005,5.192 v 0 c -0.033,0 -0.065,0 -0.098,0 -1.777,0 -3.522,0.015 -5.225,0.044 0.102,0.682 0.155,1.37 0.155,2.063 0,5.057 -2.744,9.908 -7.724,13.66 -5.358,4.035 -12.54,6.276 -20.248,6.326 -0.003,2.043 -0.007,3.741 -0.012,5.168 v 0 c -0.037,11.437 -0.103,5.274 -0.103,17.529 0,17.056 19.615,38.017 33.186,44.826 12.559,-6.301 32.896,-27.04 33.186,-44.826 0.29,-17.785 0,-22.429 0,-41.223 z M 76.405,49.873 C 76.3,56.284 72.578,64.304 65.926,72.453 61.234,78.2 55.18,83.722 49.923,87.079 44.403,83.607 38.322,78.049 33.493,72.033 27.029,63.978 23.469,56.146 23.469,49.982 c 0,-6.553 0.018,-7.764 0.042,-9.298 0.019,-1.269 0.041,-2.706 0.058,-7.207 6.608,-1.013 12.691,-3.465 17.586,-7.152 5.253,-3.957 8.658,-8.961 9.887,-14.413 12.091,0.043 20.866,0.774 25.37,1.477 0.013,4.795 0.043,8.689 0.069,11.861 l 0.001,0.108 c 0.028,3.587 0.052,6.686 0.052,10.202 -0.001,4.411 -0.042,8.959 -0.129,14.313 z"
         id="path6" />
    </g>
    <g
       id="SvgjsG1146"
       featurekey="PXhRQw-0"
       transform="matrix(2.8753128,0,0,2.8753128,27.885349,-332.58216)"
       fill="#fce38a">
      <path
         d="m 54.381618,12.037101 c 4.552681,0 7.420979,1.418928 8.604662,4.256877 0.333869,0.698088 0.500792,1.160955 0.500792,1.388578 h -2.868298 v 0.865011 h 3.073194 v -0.04553 c 0,-0.151765 -0.06829,-0.424919 -0.204875,-0.819488 h 5.258509 v 0.865012 h -4.985315 v 0.06829 c 0.257972,1.214056 0.440093,2.526807 0.54634,3.938229 0,0.07587 -1.995617,0.220047 -5.986946,0.432494 v -0.04552 c 0,-3.62704 -1.244429,-5.44056 -3.733334,-5.44056 h -0.637389 c -1.86662,0 -3.004895,0.789138 -3.414452,2.367366 -0.33387,1.335478 -0.500793,3.088345 -0.500793,5.258508 v 4.438928 l -0.04553,0.66014 h -2.071492 v 1.047133 h 2.071492 v 7.899068 H 58.7749 v -8.217716 h 5.030769 v 8.217716 h -2.8 v 5.053613 h -5.85035 v 0.432517 h -4.55268 V 44.225251 H 45.98166 v -2.526807 h 3.073193 v -1.092657 h -4.598368 v -3.733334 h -1.980443 v -4.598368 h 1.047133 c -0.04553,-1.912144 -0.06829,-3.414452 -0.06829,-4.507226 0,-4.962471 0.242821,-8.088578 0.728439,-9.378555 0.440093,-1.487226 1.168531,-2.769697 2.185314,-3.847086 1.805921,-1.669324 4.476924,-2.503963 8.012821,-2.503963 z m 10.425727,0 h 19.121446 v 5.44056 h -6.328206 v 22.558741 h 2.868299 v 0.66014 h -2.868299 v 2.481352 h -1.707272 v 0.865012 h 1.20648 v 0.614615 h -5.804662 c -0.07587,0 -0.113823,-0.03795 -0.113823,-0.113823 V 17.47843 H 64.80742 v -5.44056 z m 10.539534,27.999068 v 0.66014 h 2.208089 v -0.66014 z m 7.990117,-27.931469 11.154312,-2.2e-5 c 3.733334,0 6.146152,1.312704 7.238932,3.938229 0.47046,1.350629 0.70566,2.898601 0.70566,4.643822 v 1.365827 c 0,3.156643 -0.69049,5.561771 -2.07149,7.216084 h -2.367367 v 1.20648 h 3.619347 v 7.785082 H 99.4766 v 1.20648 h 3.2324 v 4.598368 h -6.783682 v -7.352681 h -2.617716 v -4.757575 h -4.552681 v 8.058275 h 0.978835 v 4.643823 h -6.282751 c -0.07587,0 -0.113823,-0.03795 -0.113823,-0.113823 V 31.476635 h 2.8 v -0.93331 h -2.8 V 12.104636 Z m 6.396597,5.305362 v 9.196503 h 1.547925 c 2.321888,0 3.665035,-0.220046 4.029138,-0.66014 0.379393,-0.24282 0.675338,-0.736037 0.887785,-1.479673 h 2.413054 V 23.305796 H 96.42618 v 0.113823 c -0.121399,0.698088 -0.212448,1.047133 -0.27317,1.047133 h -3.118648 v -1.160956 h 3.278088 c 0.07587,0 0.113823,-0.03035 0.113823,-0.09105 0.03035,-0.940886 0.04553,-1.472028 0.04553,-1.593427 0,-2.033543 -0.349045,-3.278088 -1.047133,-3.733333 -0.54634,-0.318695 -1.547926,-0.478042 -3.004895,-0.478042 h -2.686014 z m 14.067967,-5.372961 h 6.4648 v 13.385082 h -1.252 v 13.817483 h 9.62913 v 2.890909 h -1.91214 v 0.66014 h 1.91214 v 1.86662 h -6.23729 v -0.500793 h -8.55921 c -0.0303,-0.364219 -0.0455,-0.637389 -0.0455,-0.819487 v -7.284383 h 1.63899 v -0.978834 h -1.63899 v -23.03683 z m 14.842,30.093241 h 2.36737 v 0.660139 h -2.36737 z M 143.5243,12.12801 c 3.61189,0 6.0324,1.160979 7.26154,3.482751 0.84983,1.760396 1.27477,3.48275 1.27477,5.167366 h -0.0455 c -2.47366,0.212454 -4.16573,0.318695 -5.07622,0.318695 0,-1.198905 -0.3718,-2.208089 -1.11544,-3.027506 -0.69808,-0.394569 -1.34305,-0.591865 -1.93491,-0.591865 h -0.91056 c -1.54793,0 -2.48881,0.59944 -2.82261,1.798322 -0.0759,0.349044 -0.11383,0.622191 -0.11383,0.819487 v 0.478042 c 0,1.699697 0.89536,2.928904 2.68602,3.687645 0.15177,0.136574 1.39617,0.705665 3.73333,1.707273 1.24443,0.576667 2.39767,1.28993 3.46014,2.139767 v 0.04552 h -5.71375 v 0.637389 h 7.53473 v 0.910559 h 0.95608 v 9.879488 h -1.86662 v 5.076223 H 136.35385 V 39.580943 H 132.9394 V 36.16649 h 1.93492 v -1.183706 h -1.93492 v -0.796737 h 6.62424 v 5.395105 h 6.78368 v -8.126573 h -5.07622 v -2.663403 h -6.30559 v -0.63739 h 3.05035 v -0.04552 c -2.67087,-1.775571 -4.00653,-4.28718 -4.00653,-7.534732 v -0.432518 c 0,-2.716317 0.83468,-4.780419 2.50396,-6.191841 1.51758,-1.214056 3.85455,-1.821096 7.01119,-1.821096 z m 8.21771,16.025408 h 2.29914 v 0.63739 h -2.29914 z m -20.9883,6.829138 h 2.18532 v 1.183706 h -2.18532 z m 26.47424,-22.922145 h 16.07109 v 5.326807 c 0,0.07587 -0.0379,0.113818 -0.11382,0.113818 h -9.53799 v 7.079487 h 8.5592 v 0.04553 c 0,0.212447 -0.038,1.365827 -0.11382,3.46014 -0.0303,0 -0.0455,0.02284 -0.0455,0.0683 h 0.38699 v 1.638998 h -7.42098 v 6.69254 h -1.98044 v 0.66014 h 1.98044 v 2.025968 h 8.39977 v 0.773962 h -0.66014 v 4.006527 h -10.0387 v 0.705665 h -4.78042 V 32.98043 h -0.70566 v -4.12028 h -5.21282 v -0.705664 h 5.21282 v -16.09394 z m 0.0455,16.093007 v 0.705665 h 2.68602 v -0.705665 z m 30.02543,-16.116317 c 4.55268,0 7.42098,1.418928 8.60466,4.256877 0.33387,0.698088 0.5008,1.160955 0.5008,1.388578 h -2.8683 v 0.865011 h 3.07319 v -0.04553 c 0,-0.151765 -0.0683,-0.424919 -0.20487,-0.819488 h 5.25851 v 0.865012 h -4.98532 v 0.06829 c 0.25797,1.214056 0.4401,2.526807 0.54634,3.938229 0,0.07587 -1.99561,0.220047 -5.98694,0.432494 v -0.04552 c 0,-3.62704 -1.24443,-5.44056 -3.73334,-5.44056 h -0.63739 c -1.86662,0 -3.00489,0.789138 -3.41445,2.367366 -0.33387,1.335478 -0.50079,3.088345 -0.50079,5.258508 v 4.438928 l -0.0455,0.66014 h -2.07149 v 1.047133 h 2.07149 v 7.899068 h 8.78672 v -8.217716 h 5.03077 v 8.217716 h -2.8 v 5.053613 h -5.85035 v 0.432517 h -4.55268 V 44.22525 h -4.62098 v -2.526807 h 3.07319 v -1.092657 h -4.59837 v -3.733334 h -1.98044 v -4.598368 h 1.04713 c -0.0455,-1.912144 -0.0683,-3.414452 -0.0683,-4.507226 0,-4.962471 0.24283,-8.088578 0.72844,-9.378555 0.4401,-1.487226 1.16853,-2.769697 2.18532,-3.847086 1.80592,-1.669324 4.47692,-2.503963 8.01282,-2.503963 z m 24.56199,0.02331 h 9.9021 c 4.14289,0 6.99604,1.403776 8.55921,4.211189 1.30511,2.20049 1.95767,5.834965 1.95767,10.90373 h 0.97883 v 7.785081 H 223.6295 V 34.0954 h 3.00489 v -6.92028 h -0.86501 v -2.845455 c 0,-3.202098 -0.71326,-5.243123 -2.13979,-6.123543 -0.84984,-0.485618 -2.20047,-0.728438 -4.05198,-0.728438 h -1.32031 v 9.537995 h 0.88779 v 7.944523 h -6.5331 v -7.329837 h -0.75121 V 12.059968 Z m -2.91377,22.899301 h 2.95921 v 1.047133 h 7.23892 v 2.13979 h 4.48439 v -2.13979 h 9.62913 v 2.13979 h -6.62424 v 5.804662 h -7.48928 v 0.705665 h -7.19324 c -0.0607,0 -0.091,-0.03795 -0.091,-0.113823 v -8.536364 h -2.91375 v -1.047133 z m 10.19825,0 h 4.48438 v 1.047133 h -4.48438 z m 14.11329,0 h 6.41934 v 1.047133 h -6.41934 z m 11.56415,-22.899301 h 5.48602 c 0.0759,0.318695 1.85902,6.252448 5.34941,17.801166 h 0.97884 v 10.721678 h -2.25362 v 0.842261 h 2.25362 v 2.299138 h -6.05525 v -6.601399 h -7.42098 v 2.8 h -3.00489 v 4.734965 h -5.50886 v -0.318694 h 0.43252 v -4.416084 h 2.25361 v -9.128205 h 1.86662 z m 2.57226,9.172494 v 0.06831 c -0.47046,2.57972 -1.381,6.662238 -2.7317,12.246853 h 5.09907 v -3.687646 h -0.43252 c -1.21406,-5.281119 -1.8211,-8.156876 -1.8211,-8.627506 h -0.11382 z m -14.34116,8.582285 h 4.27948 v 0.978834 h -4.27948 z M 250.582,44.110784 h 7.32984 v 0.546341 H 250.582 Z m 9.51515,-32.096993 h 6.41934 c 0,3.141492 0.54634,5.812355 1.639,8.012821 1.18371,2.852914 1.98802,5.121911 2.41305,6.806294 v 0.04552 h 0.0683 c 0.54634,-2.003217 1.67693,-5.106527 3.39184,-9.310257 0.4401,-2.003216 0.66014,-3.854545 0.66014,-5.554312 h 6.03241 c -0.36422,3.278089 -0.81949,5.690909 -1.36583,7.238928 l -3.61935,8.240559 h -2.20809 v 5.645455 h -3.34615 v 1.092657 h 3.34615 v 10.425875 h -6.23729 c -0.0759,0 -0.11383,-0.03795 -0.11383,-0.113823 V 39.44444 h -0.97883 v -9.037296 h 1.84387 v -0.842261 h -2.02597 c -0.16692,-0.197296 -1.4265,-3.027506 -3.77879,-8.490909 -0.98641,-2.185315 -1.47965,-3.505595 -1.47965,-3.960839 h 2.68602 v -1.138182 h -2.91376 c -0.28834,-2.413054 -0.43251,-3.733334 -0.43251,-3.96084 z m -3.89262,3.960373 h 4.32518 l 0.18212,1.138182 h -4.50723 v -1.138182 z m 17.3232,17.164569 h 2.68601 v 1.092657 h -2.68601 z"
         id="path9"
         sodipodi:nodetypes="ccccccscccccccssscscccccccccccccccccccccccccscccccccccccccccccssccccccccccscsscccccccccccccccccssccccccccsccccccsccscscsccccccccccccccccscccccccccccccccccsscssccccccccccccccccccccccccccccccssccccccccccccccsccccsscccsccccccccccccccccccccccccccccccccccccccscccccccssscscccccccccccccccccccccccccccscccscccccccccscscccccccccccccccccccccccssccccccccccsccccscccccccccccccccccccccccccsscccsccscsccccsccccccccccccccccccccccsscccccccsccc"
         style="stroke-width:2.331"
         inkscape:export-filename="/home/trotto/Desktop/ctrlsecday/ctrsecday.png"
         inkscape:export-xdpi="121.21"
         inkscape:export-ydpi="121.21" />
    </g>
    <g
       id="SvgjsG1147"
       featurekey="mlRtrp-0"
       transform="matrix(1.1887594,0,0,1.1887594,147.5217,-188.90642)"
       fill="#fce38a"
       inkscape:export-filename="/home/trotto/Desktop/ctrlsecday/ctrsecday.png"
       inkscape:export-xdpi="121.21"
       inkscape:export-ydpi="121.21">
      <path
         d="M 2.0996,20 V 6.582 h 13.584 V 9.4433 H 5.8203 v 2.2168 h 9.3555 v 2.8613 H 5.8203 v 2.6172 h 10 v 2.8613 H 2.0993 Z M 39.88912,9.502 V 20 h -3.623 V 9.502 h -5.6934 V 6.5821 h 15.02 V 9.502 h -5.7031 z M 73.879477,20 v -5.5957 h -9.2188 V 20 h -3.623 V 6.582 h 3.623 v 4.8828 h 9.2188 V 6.582 h 3.623 V 20 Z m 20.875885,0 V 6.582 h 3.623 V 20 Z m 35.660888,-0.91797 c -0.46875,0.19531 -0.94076,0.37102 -1.416,0.52727 -0.47524,0.15625 -0.9668,0.29134 -1.4746,0.40527 -0.5078,0.11393 -1.0433,0.2002 -1.6064,0.25879 -0.5631,0.05859 -1.167,0.08789 -1.8115,0.08789 -1.3672,0 -2.6253,-0.14648 -3.7744,-0.43945 -1.1491,-0.29297 -2.1387,-0.73405 -2.9688,-1.3232 -0.8301,-0.58915 -1.4763,-1.3249 -1.9385,-2.207 -0.4622,-0.8821 -0.69336,-1.9124 -0.69336,-3.0908 0,-1.1784 0.23112,-2.2087 0.69336,-3.0908 0.46224,-0.8821 1.1084,-1.6179 1.9385,-2.207 0.8301,-0.5891 1.8196,-1.0303 2.9688,-1.3232 1.1492,-0.2929 2.4072,-0.43945 3.7744,-0.43945 0.64453,0 1.2483,0.029297 1.8115,0.087891 0.5632,0.058594 1.0986,0.14485 1.6064,0.25879 0.5078,0.11394 0.99932,0.24902 1.4746,0.40527 0.47528,0.15625 0.94727,0.33203 1.416,0.52734 v 3.2617 c -0.37109,-0.20183 -0.76172,-0.40202 -1.1719,-0.60059 -0.41018,-0.19857 -0.86263,-0.3776 -1.3574,-0.5371 -0.49477,-0.1595 -1.0384,-0.28971 -1.6309,-0.39062 -0.5925,-0.10091 -1.2598,-0.15137 -2.002,-0.15137 -1.1394,0 -2.085,0.11719 -2.8369,0.35156 -0.7519,0.23437 -1.3525,0.54688 -1.8018,0.9375 -0.4493,0.39062 -0.76497,0.83821 -0.94727,1.3428 -0.1823,0.50459 -0.27344,1.0271 -0.27344,1.5674 0,0.35808 0.0391,0.71127 0.11719,1.0596 0.0781,0.34833 0.20833,0.67709 0.39063,0.98633 0.1823,0.30924 0.41992,0.59408 0.71289,0.8545 0.29297,0.26042 0.65755,0.48503 1.0938,0.67383 0.43625,0.1888 0.94564,0.33691 1.5283,0.44434 0.58266,0.10743 1.2549,0.16113 2.0166,0.16113 0.74219,0 1.4095,-0.0472 2.002,-0.1416 0.5925,-0.0944 1.136,-0.21973 1.6309,-0.37598 0.4949,-0.15625 0.94727,-0.33366 1.3574,-0.53223 0.41013,-0.19857 0.80078,-0.40201 1.1719,-0.61034 v 3.2617 0 z m 27.21329,-1.62113 h -7.4805 L 148.88924,20 h -4.043 l 7.0215,-13.418 h 4.043 L 162.93224,20 h -4.043 z m -6.1818,-2.6172 h 4.9023 l -2.4414,-4.9414 z M 178.18261,20 V 6.582 h 3.623 v 10.479 h 9.7949 v 2.9395 h -13.418 z m 62.78573,0 v -5.5957 h -9.2188 V 20 h -3.623 V 6.582 h 3.623 v 4.8828 h 9.2188 V 6.582 h 3.623 V 20 Z m 31.65729,-2.5391 h -7.4805 L 263.88533,20 h -4.043 l 7.0215,-13.418 h 4.043 L 277.92833,20 h -4.043 z m -6.1818,-2.6172 h 4.9023 l -2.4414,-4.9414 z m 41.52027,4.23833 c -0.46875,0.19531 -0.94076,0.37102 -1.416,0.52727 -0.47524,0.15625 -0.9668,0.29134 -1.4746,0.40527 -0.5078,0.11393 -1.0433,0.2002 -1.6064,0.25879 -0.5631,0.05859 -1.167,0.08789 -1.8115,0.08789 -1.3672,0 -2.6253,-0.14648 -3.7744,-0.43945 -1.1491,-0.29297 -2.1387,-0.73405 -2.9688,-1.3232 -0.8301,-0.58915 -1.4763,-1.3249 -1.9385,-2.207 -0.4622,-0.8821 -0.69336,-1.9124 -0.69336,-3.0908 0,-1.1784 0.23112,-2.2087 0.69336,-3.0908 0.46224,-0.8821 1.1084,-1.6179 1.9385,-2.207 0.8301,-0.5891 1.8196,-1.0303 2.9688,-1.3232 1.1492,-0.2929 2.4072,-0.43945 3.7744,-0.43945 0.64453,0 1.2483,0.029297 1.8115,0.087891 0.5632,0.058594 1.0986,0.14485 1.6064,0.25879 0.5078,0.11394 0.99932,0.24902 1.4746,0.40527 0.47528,0.15625 0.94727,0.33203 1.416,0.52734 v 3.2617 c -0.37109,-0.20183 -0.76172,-0.40202 -1.1719,-0.60059 -0.41018,-0.19857 -0.86263,-0.3776 -1.3574,-0.5371 -0.49477,-0.1595 -1.0384,-0.28971 -1.6309,-0.39062 -0.5925,-0.10091 -1.2598,-0.15137 -2.002,-0.15137 -1.1394,0 -2.085,0.11719 -2.8369,0.35156 -0.7519,0.23437 -1.3525,0.54688 -1.8018,0.9375 -0.4493,0.39062 -0.76497,0.83821 -0.94727,1.3428 -0.1823,0.50459 -0.27344,1.0271 -0.27344,1.5674 0,0.35808 0.0391,0.71127 0.11719,1.0596 0.0781,0.34833 0.20833,0.67709 0.39063,0.98633 0.1823,0.30924 0.41992,0.59408 0.71289,0.8545 0.29297,0.26042 0.65755,0.48503 1.0938,0.67383 0.43625,0.1888 0.94564,0.33691 1.5283,0.44434 0.58266,0.10743 1.2549,0.16113 2.0166,0.16113 0.74219,0 1.4095,-0.0472 2.002,-0.1416 0.5925,-0.0944 1.136,-0.21973 1.6309,-0.37598 0.4949,-0.15625 0.94727,-0.33366 1.3574,-0.53223 0.41013,-0.19857 0.80078,-0.40201 1.1719,-0.61034 v 3.2617 0 z m 20.07449,-7.38283 7.4219,-5.1172 h 4.8535 l -9.0332,6.4355 9.6387,6.9824 h -5.2832 l -7.5977,-5.5762 v 5.5762 h -3.6426 V 6.5819 h 3.6426 v 5.1172 z M 356.07226,20 V 6.582 h 3.623 V 20 Z m 33.55088,0 -9.0527,-9.2188 V 20 h -3.623 V 6.582 h 3.9355 l 9.0625,9.2578 V 6.582 h 3.6035 V 20 Z M 419.44415,6.24 c 1.3151,0 2.5375,0.11229 3.667,0.33689 1.1295,0.2246 2.1663,0.5127 3.1104,0.86426 v 3.2813 c -0.37109,-0.20833 -0.78938,-0.41016 -1.2549,-0.60547 -0.46552,-0.19531 -0.97168,-0.36784 -1.5186,-0.51758 -0.54692,-0.14974 -1.1328,-0.27018 -1.7578,-0.36132 -0.625,-0.09114 -1.2825,-0.13672 -1.9727,-0.13672 -0.85938,0 -1.6081,0.061846 -2.2461,0.18555 -0.638,0.123704 -1.1849,0.28972 -1.6406,0.49805 -0.4557,0.20833 -0.83008,0.45084 -1.123,0.72753 -0.29292,0.27669 -0.52409,0.57129 -0.69336,0.88379 -0.16927,0.3125 -0.28646,0.63151 -0.35156,0.95703 -0.0651,0.32552 -0.0977,0.64127 -0.0977,0.94726 0,0.26692 0.0277,0.55664 0.083,0.86914 0.0553,0.3125 0.15951,0.625 0.31251,0.9375 0.153,0.3125 0.36621,0.61198 0.63965,0.89844 0.27344,0.28646 0.62988,0.54036 1.0693,0.76172 0.43942,0.22136 0.96843,0.39877 1.5869,0.53224 0.61847,0.13347 1.3542,0.2002 2.207,0.2002 0.42969,0 0.80403,-0.01302 1.123,-0.03906 0.31897,-0.02604 0.61035,-0.06186 0.87402,-0.10743 0.26367,-0.04557 0.51106,-0.10092 0.74219,-0.16603 0.23113,-0.06511 0.47038,-0.13347 0.71777,-0.20508 v -1.6211 h -4.0625 v -2.9395 h 7.6855 v 6.8555 c -0.48177,0.16276 -1.0205,0.31088 -1.6162,0.44435 -0.5957,0.13347 -1.2109,0.2474 -1.8457,0.34181 -0.6348,0.09441 -1.2712,0.16765 -1.9092,0.21973 -0.638,0.05208 -1.2402,0.07813 -1.8066,0.07813 -0.87891,0 -1.722,-0.05859 -2.5293,-0.17578 -0.8073,-0.117186 -1.5608,-0.29785 -2.2607,-0.54199 -0.6999,-0.24414 -1.3379,-0.55501 -1.9141,-0.93262 -0.5762,-0.37761 -1.0677,-0.82683 -1.4746,-1.3477 -0.4069,-0.52087 -0.72266,-1.1182 -0.94727,-1.792 -0.22461,-0.6738 -0.33691,-1.4307 -0.33691,-2.2705 0,-0.83333 0.11719,-1.5886 0.35156,-2.2656 0.23437,-0.677 0.56152,-1.2761 0.98145,-1.7969 0.41993,-0.5208 0.92448,-0.97005 1.5137,-1.3477 0.58922,-0.37765 1.237,-0.68848 1.9434,-0.93262 0.7064,-0.24414 1.4616,-0.4248 2.2656,-0.54199 0.804,-0.11719 1.6325,-0.17578 2.4854,-0.17578 z m 60.02265,6.8166 c -0.1237,0.91146 -0.41013,1.7448 -0.85935,2.5 -0.44922,0.7552 -1.0156,1.429 -1.6992,2.0215 0.56641,0.40364 1.1442,0.80729 1.7334,1.2109 0.5892,0.40361 1.1897,0.80729 1.8018,1.2109 h -4.5801 c -0.44271,-0.27995 -0.88216,-0.57292 -1.3184,-0.87891 -0.78776,0.37109 -1.6113,0.6543 -2.4707,0.84961 -0.8594,0.19531 -1.7155,0.29297 -2.5684,0.29297 -0.98311,0 -1.8604,-0.08301 -2.6318,-0.24902 -0.7714,-0.166012 -1.4226,-0.41179 -1.9531,-0.7373 -0.5305,-0.32551 -0.93587,-0.73079 -1.2158,-1.2158 -0.27993,-0.48501 -0.41992,-1.0466 -0.41992,-1.6846 0,-0.48828 0.0846,-0.93425 0.25391,-1.3379 0.16927,-0.40365 0.39876,-0.77148 0.68848,-1.1035 0.28972,-0.33202 0.62663,-0.63477 1.0107,-0.9082 0.38407,-0.27343 0.78775,-0.52409 1.2109,-0.75195 -0.35156,-0.48177 -0.62337,-0.95377 -0.81543,-1.416 -0.19206,-0.46223 -0.28809,-0.91471 -0.28809,-1.3574 0,-0.5013 0.11394,-0.94727 0.3418,-1.3379 0.22786,-0.39063 0.56314,-0.72103 1.0059,-0.99121 0.44276,-0.27018 0.98467,-0.47689 1.626,-0.62013 0.64133,-0.14324 1.3786,-0.21484 2.2119,-0.21484 0.74219,0 1.3948,0.076494 1.958,0.22949 0.5632,0.152996 1.0319,0.35971 1.4063,0.62013 0.3744,0.26042 0.65592,0.55827 0.84472,0.89355 0.1888,0.33528 0.2832,0.68196 0.2832,1.04 0,0.44922 -0.1123,0.85612 -0.33691,1.2207 -0.22461,0.36458 -0.52246,0.69986 -0.89355,1.0059 -0.37109,0.30604 -0.79427,0.58756 -1.2695,0.84472 -0.47523,0.25716 -0.9668,0.49967 -1.4746,0.72753 0.48828,0.46224 1.0303,0.94238 1.626,1.4404 0.5957,0.49802 1.2451,1.0107 1.9482,1.5381 0.38411,-0.33854 0.69824,-0.74382 0.94238,-1.2158 0.24414,-0.47198 0.39876,-1.014 0.46387,-1.626 h 3.4375 z m -9.9023,4.5801 c 0.36458,0 0.75032,-0.0244 1.1572,-0.07322 0.40688,-0.04883 0.82194,-0.12858 1.2451,-0.23926 -0.70313,-0.52734 -1.3688,-1.0433 -1.9971,-1.5479 -0.6283,-0.5046 -1.2093,-1.0107 -1.7432,-1.5186 -0.46224,0.24739 -0.83496,0.51106 -1.1182,0.79102 -0.28324,0.27996 -0.4248,0.5892 -0.4248,0.92774 0,0.1888 0.0423,0.38248 0.12695,0.58104 0.0846,0.19856 0.23601,0.3776 0.4541,0.5371 0.21809,0.1595 0.5127,0.28971 0.88379,0.39062 0.37109,0.10091 0.8431,0.15137 1.416,0.15137 z M 468.7441,9.697 c 0,0.18229 0.0488,0.3825 0.14648,0.6006 0.0976,0.2181 0.23763,0.45735 0.41992,0.71777 0.33854,-0.13672 0.6543,-0.26855 0.94727,-0.39551 0.29297,-0.12696 0.54851,-0.25391 0.7666,-0.38086 0.21809,-0.12695 0.38899,-0.25879 0.5127,-0.39551 0.12371,-0.13672 0.18555,-0.2832 0.18555,-0.43945 0,-0.078125 -0.0195,-0.16602 -0.0586,-0.26367 -0.0391,-0.09765 -0.10742,-0.1888 -0.20508,-0.27344 -0.0977,-0.08464 -0.23274,-0.15625 -0.40527,-0.21484 -0.17253,-0.05859 -0.39551,-0.087891 -0.66895,-0.087891 -0.33203,0 -0.60547,0.030928 -0.82031,0.092773 -0.21484,0.061845 -0.38249,0.14322 -0.50293,0.24413 -0.12044,0.10091 -0.20345,0.21973 -0.24902,0.35645 -0.0456,0.13672 -0.0684,0.2832 -0.0684,0.43945 z"
         id="path12" />
    </g>
    <g
       id="SvgjsG1148"
       featurekey="mlRtrp-1"
       transform="matrix(1.1887594,0,0,1.1887594,148.58904,-149.27986)"
       fill="#fce38a"
       inkscape:export-filename="/home/trotto/Desktop/ctrlsecday/ctrsecday.png"
       inkscape:export-xdpi="121.21"
       inkscape:export-ydpi="121.21">
      <path
         d="m 16.885,19.08203 c -0.46875,0.19531 -0.94076,0.37102 -1.416,0.52727 -0.47524,0.15625 -0.9668,0.29134 -1.4746,0.40527 -0.5078,0.11393 -1.0433,0.2002 -1.6064,0.25879 -0.5631,0.05859 -1.167,0.08789 -1.8115,0.08789 -1.3672,0 -2.6253,-0.14648 -3.7744,-0.43945 C 5.653,19.62883 4.6634,19.18775 3.8333,18.5986 3.0032,18.00945 2.357,17.2737 1.8948,16.3916 1.4326,15.5095 1.20144,14.4792 1.20144,13.3008 1.20144,12.1224 1.43256,11.0921 1.8948,10.21 2.35704,9.3279 3.0032,8.5921 3.8333,8.003 4.6634,7.4139 5.6529,6.9727 6.8021,6.6798 7.9513,6.3869 9.2093,6.24035 10.5765,6.24035 c 0.64453,0 1.2483,0.029297 1.8115,0.087891 0.5632,0.058594 1.0986,0.14485 1.6064,0.25879 0.5078,0.11394 0.99932,0.24902 1.4746,0.40527 0.47528,0.15625 0.94727,0.33203 1.416,0.52734 v 3.2617 c -0.37109,-0.20183 -0.76172,-0.40202 -1.1719,-0.60059 -0.41018,-0.19857 -0.86263,-0.3776 -1.3574,-0.5371 -0.49477,-0.1595 -1.0384,-0.28971 -1.6309,-0.39062 -0.5925,-0.10091 -1.2598,-0.15137 -2.002,-0.15137 -1.1394,0 -2.085,0.11719 -2.8369,0.35156 -0.7519,0.23437 -1.3525,0.54688 -1.8018,0.9375 -0.4493,0.39062 -0.76497,0.83821 -0.94727,1.3428 -0.1823,0.50459 -0.27344,1.0271 -0.27344,1.5674 0,0.35808 0.039063,0.71127 0.11719,1.0596 0.078127,0.34833 0.20833,0.67709 0.39063,0.98633 0.1823,0.30924 0.41992,0.59408 0.71289,0.8545 0.29297,0.26042 0.65755,0.48503 1.0938,0.67383 0.43625,0.1888 0.94564,0.33691 1.5283,0.44434 0.58266,0.10743 1.2549,0.16113 2.0166,0.16113 0.74219,0 1.4095,-0.0472 2.002,-0.1416 0.5925,-0.0944 1.136,-0.21973 1.6309,-0.37598 0.4949,-0.15625 0.94727,-0.33366 1.3574,-0.53223 0.41013,-0.19857 0.80078,-0.40201 1.1719,-0.61034 v 3.2617 0 z M 41.735285,14.5215 V 20 h -3.6133 v -5.4785 l -6.5039,-7.9395 h 4.0625 l 4.2578,5.4004 4.2383,-5.4004 h 4.0625 z m 37.359098,1.7773 c 0,0.52083 -0.06837,0.97333 -0.20509,1.3574 -0.136721,0.38407 -0.32715,0.71451 -0.57129,0.99121 -0.24414,0.2767 -0.53711,0.5013 -0.87891,0.67383 -0.3418,0.17253 -0.7194,0.30925 -1.1328,0.41016 -0.4134,0.10091 -0.85449,0.1709 -1.3232,0.20996 -0.46871,0.03906 -0.95378,0.05859 -1.4551,0.05859 h -9.7363 v -13.418 h 9.5605 c 0.38411,0 0.76985,0.016279 1.1572,0.048828 0.38735,0.032549 0.75684,0.092773 1.1084,0.18066 0.35156,0.087887 0.67871,0.20996 0.98145,0.36621 0.30274,0.15625 0.56641,0.36133 0.79102,0.61523 0.22461,0.2539 0.40039,0.55989 0.52734,0.91797 0.12695,0.35808 0.19043,0.78125 0.19043,1.2695 0,0.87239 -0.21484,1.5642 -0.64453,2.0752 -0.42969,0.511 -1.1067,0.85123 -2.0313,1.0205 0.65104,0.04558 1.2093,0.14486 1.6748,0.29786 0.4655,0.153 0.84473,0.36133 1.1377,0.625 0.29297,0.26367 0.50781,0.58594 0.64453,0.9668 0.13672,0.38086 0.20508,0.8252 0.20508,1.333 z m -4.521,-5.7422 c 0,-0.16927 -0.02605,-0.3304 -0.07813,-0.4834 -0.05208,-0.153 -0.14648,-0.28809 -0.2832,-0.40527 -0.13672,-0.11718 -0.32227,-0.21159 -0.55664,-0.2832 -0.23437,-0.07161 -0.53386,-0.10742 -0.89844,-0.10742 h -5.3418 v 2.5195 h 5.3418 c 0.36458,0 0.66406,-0.03255 0.89844,-0.09766 0.23438,-0.06511 0.41992,-0.153 0.55664,-0.26367 0.13672,-0.11067 0.23112,-0.24251 0.2832,-0.39551 0.05208,-0.153 0.07813,-0.31413 0.07813,-0.4834 z m 0.84,5.3223 c 0,-0.30599 -0.05208,-0.55177 -0.15625,-0.73731 -0.10417,-0.18554 -0.26693,-0.32878 -0.48829,-0.42969 -0.22136,-0.10091 -0.50781,-0.16764 -0.85938,-0.20019 -0.35157,-0.03255 -0.77148,-0.04883 -1.2598,-0.04883 h -5.2344 v 2.8418 h 5.2344 c 0.48828,0 0.9082,-0.01628 1.2598,-0.04883 0.3516,-0.03255 0.63802,-0.10091 0.85938,-0.20508 0.22136,-0.10417 0.38412,-0.24902 0.48829,-0.43457 0.10417,-0.18555 0.15625,-0.43132 0.15625,-0.7373 z M 95.448721,20 V 6.582 h 13.583999 v 2.8613 h -9.863299 v 2.2168 h 9.355499 v 2.8613 h -9.355499 v 2.6172 h 9.999999 v 2.8613 H 95.448421 Z m 33.893119,0 h -3.623 V 6.582 h 9.082 c 0.97656,0 1.805,0.10091 2.4854,0.30273 0.6804,0.20182 1.2337,0.48828 1.6602,0.85938 0.4265,0.3711 0.73568,0.81868 0.92774,1.3428 0.19206,0.52412 0.28809,1.1084 0.28809,1.7529 0,0.56641 -0.0798,1.0612 -0.23926,1.4844 -0.1595,0.4232 -0.37435,0.78613 -0.64453,1.0889 -0.27018,0.30277 -0.58432,0.55827 -0.94239,0.7666 -0.35807,0.20833 -0.73568,0.38086 -1.1328,0.51758 l 4.3945,5.3027 h -4.2383 l -4.0625,-4.9414 h -3.9551 v 4.9414 z m 7.1583,-9.1797 c 0,-0.26042 -0.0342,-0.48174 -0.10254,-0.66403 -0.0684,-0.18229 -0.18718,-0.33041 -0.35645,-0.44435 -0.16927,-0.11394 -0.39551,-0.19694 -0.67871,-0.24902 -0.2832,-0.05208 -0.6364,-0.078125 -1.0596,-0.078125 h -4.9609 v 2.8711 h 4.9609 c 0.42317,0 0.77637,-0.02604 1.0596,-0.07813 0.28323,-0.05208 0.50944,-0.13509 0.67871,-0.24902 0.16927,-0.11393 0.28809,-0.26205 0.35645,-0.44435 0.0684,-0.1823 0.10254,-0.40365 0.10254,-0.66407 z m 53.68454,-0.459 c -0.25391,-0.1237 -0.58916,-0.26372 -1.0059,-0.41997 -0.41674,-0.15625 -0.88867,-0.30437 -1.416,-0.44434 -0.52733,-0.13997 -1.1003,-0.25716 -1.7188,-0.35156 -0.6185,-0.0944 -1.2532,-0.1416 -1.9043,-0.1416 -0.52083,0 -0.96517,0.016279 -1.333,0.048828 -0.36783,0.032549 -0.67709,0.074863 -0.92774,0.12694 -0.25065,0.052077 -0.44922,0.1123 -0.5957,0.18066 -0.14648,0.06836 -0.25879,0.13835 -0.33691,0.20996 -0.0781,0.07161 -0.12858,0.14322 -0.15137,0.21483 -0.0228,0.07161 -0.0342,0.13672 -0.0342,0.19531 0,0.19531 0.0977,0.36621 0.29297,0.5127 0.19531,0.14649 0.46224,0.27669 0.80078,0.39063 0.33854,0.11394 0.73242,0.22136 1.1816,0.32227 0.44918,0.10091 0.9261,0.20508 1.4307,0.3125 0.5046,0.10742 1.0254,0.22461 1.5625,0.35156 0.5371,0.12695 1.0579,0.27507 1.5625,0.44434 0.5046,0.16927 0.98145,0.36621 1.4307,0.59082 0.44925,0.22461 0.8431,0.48665 1.1816,0.78613 0.3385,0.29948 0.60547,0.64453 0.80078,1.0352 0.19531,0.39067 0.29297,0.83659 0.29297,1.3379 0,0.64453 -0.11394,1.1979 -0.3418,1.6602 -0.22786,0.4623 -0.53223,0.85286 -0.91309,1.1719 -0.38086,0.31904 -0.82194,0.57455 -1.3232,0.76661 -0.50126,0.19206 -1.0271,0.34018 -1.5771,0.44435 -0.55,0.10417 -1.1067,0.17253 -1.6699,0.20508 -0.5632,0.03255 -1.0986,0.04883 -1.6064,0.04883 -1.3281,0 -2.5569,-0.10905 -3.6865,-0.32715 -1.1296,-0.2181 -2.1272,-0.4899 -2.9932,-0.81542 v -3.2031 c 0.89192,0.49479 1.9092,0.88217 3.0518,1.1621 1.1426,0.27993 2.3649,0.41992 3.667,0.41992 0.76823,0 1.3948,-0.04069 1.8799,-0.12207 0.4851,-0.08138 0.86426,-0.18555 1.1377,-0.3125 0.27344,-0.12695 0.45898,-0.2653 0.55664,-0.41504 0.0977,-0.14974 0.14648,-0.29297 0.14648,-0.42969 0,-0.21484 -0.0977,-0.40202 -0.29297,-0.56152 -0.19531,-0.1595 -0.46224,-0.29947 -0.80078,-0.41991 -0.33854,-0.12044 -0.73242,-0.23111 -1.1816,-0.33202 -0.44918,-0.10091 -0.9261,-0.20182 -1.4307,-0.30272 -0.5046,-0.1009 -1.0237,-0.20996 -1.5576,-0.32715 -0.5339,-0.11719 -1.053,-0.25554 -1.5576,-0.41504 -0.5046,-0.1595 -0.98145,-0.34505 -1.4307,-0.55664 -0.44925,-0.21159 -0.8431,-0.46225 -1.1816,-0.75196 -0.3385,-0.28971 -0.60547,-0.625 -0.80078,-1.0059 -0.19531,-0.3809 -0.29297,-0.82194 -0.29297,-1.3232 0,-0.59245 0.10417,-1.1035 0.3125,-1.5332 0.20833,-0.4297 0.4899,-0.7959 0.84472,-1.0986 0.35482,-0.3027 0.76497,-0.54851 1.2305,-0.7373 0.46553,-0.18879 0.95541,-0.33528 1.4697,-0.43945 0.51429,-0.10417 1.0352,-0.17578 1.5625,-0.21484 0.5273,-0.03906 1.0286,-0.058594 1.5039,-0.058594 0.52083,0 1.0563,0.026045 1.6064,0.078125 0.5501,0.05208 1.0921,0.12532 1.626,0.21973 0.5339,0.09441 1.0498,0.20346 1.5479,0.32716 0.4981,0.1237 0.95866,0.25391 1.3818,0.39063 v 3.1055 z M 207.7788,20 V 6.582 h 13.584 v 2.8613 h -9.8633 v 2.2168 h 9.3555 v 2.8613 h -9.3555 v 2.6172 h 10 v 2.8613 h -13.721 z m 45.05542,-0.91797 c -0.46875,0.19531 -0.94076,0.37102 -1.416,0.52727 -0.47524,0.15625 -0.9668,0.29134 -1.4746,0.40527 -0.5078,0.11393 -1.0433,0.2002 -1.6064,0.25879 -0.5631,0.05859 -1.167,0.08789 -1.8115,0.08789 -1.3672,0 -2.6253,-0.14648 -3.7744,-0.43945 -1.1491,-0.29297 -2.1387,-0.73405 -2.9688,-1.3232 -0.8301,-0.58915 -1.4763,-1.3249 -1.9385,-2.207 -0.4622,-0.8821 -0.69336,-1.9124 -0.69336,-3.0908 0,-1.1784 0.23112,-2.2087 0.69336,-3.0908 0.46224,-0.8821 1.1084,-1.6179 1.9385,-2.207 0.8301,-0.5891 1.8196,-1.0303 2.9688,-1.3232 1.1492,-0.2929 2.4072,-0.43945 3.7744,-0.43945 0.64453,0 1.2483,0.029297 1.8115,0.087891 0.5632,0.058594 1.0986,0.14485 1.6064,0.25879 0.5078,0.11394 0.99932,0.24902 1.4746,0.40527 0.47528,0.15625 0.94727,0.33203 1.416,0.52734 v 3.2617 c -0.37109,-0.20183 -0.76172,-0.40202 -1.1719,-0.60059 -0.41018,-0.19857 -0.86263,-0.3776 -1.3574,-0.5371 -0.49477,-0.1595 -1.0384,-0.28971 -1.6309,-0.39062 -0.5925,-0.10091 -1.2598,-0.15137 -2.002,-0.15137 -1.1394,0 -2.085,0.11719 -2.8369,0.35156 -0.7519,0.23437 -1.3525,0.54688 -1.8018,0.9375 -0.4493,0.39062 -0.76497,0.83821 -0.94727,1.3428 -0.1823,0.50459 -0.27344,1.0271 -0.27344,1.5674 0,0.35808 0.0391,0.71127 0.11719,1.0596 0.0781,0.34833 0.20833,0.67709 0.39063,0.98633 0.1823,0.30924 0.41992,0.59408 0.71289,0.8545 0.29297,0.26042 0.65755,0.48503 1.0938,0.67383 0.43625,0.1888 0.94564,0.33691 1.5283,0.44434 0.58266,0.10743 1.2549,0.16113 2.0166,0.16113 0.74219,0 1.4095,-0.0472 2.002,-0.1416 0.5925,-0.0944 1.136,-0.21973 1.6309,-0.37598 0.4949,-0.15625 0.94727,-0.33366 1.3574,-0.53223 0.41013,-0.19857 0.80078,-0.40201 1.1719,-0.61034 v 3.2617 0 z M 285.1055,15.4785 c 0,0.67058 -0.16599,1.3021 -0.49802,1.8945 -0.33203,0.5924 -0.83008,1.1101 -1.4941,1.5527 -0.66402,0.4426 -1.4925,0.79264 -2.4854,1.0498 -0.9929,0.25716 -2.1533,0.38574 -3.4814,0.38574 -1.3281,0 -2.4919,-0.12858 -3.4912,-0.38574 -0.9993,-0.25716 -1.8311,-0.60709 -2.4951,-1.0498 -0.664,-0.44271 -1.1621,-0.96028 -1.4941,-1.5527 -0.332,-0.59242 -0.49805,-1.2239 -0.49805,-1.8945 V 6.582 h 3.6133 v 7.5977 c 0,0.44922 0.057,0.87402 0.1709,1.2744 0.11394,0.40038 0.32878,0.75032 0.64453,1.0498 0.31575,0.29948 0.75846,0.53711 1.3281,0.71289 0.56964,0.17578 1.3103,0.26367 2.2217,0.26367 0.90495,0 1.6406,-0.08789 2.207,-0.26367 0.5664,-0.175779 1.0075,-0.41341 1.3232,-0.71289 0.3157,-0.29948 0.52896,-0.64941 0.63964,-1.0498 0.11068,-0.40039 0.16602,-0.8252 0.16602,-1.2744 V 6.582 h 3.623 v 8.8965 0 z M 305.88383,20 h -3.623 V 6.582 h 9.082 c 0.97656,0 1.805,0.10091 2.4854,0.30273 0.6804,0.20182 1.2337,0.48828 1.6602,0.85938 0.4265,0.3711 0.73568,0.81868 0.92774,1.3428 0.19206,0.52412 0.28809,1.1084 0.28809,1.7529 0,0.56641 -0.0797,1.0612 -0.23926,1.4844 -0.1595,0.4232 -0.37435,0.78613 -0.64453,1.0889 -0.27018,0.30277 -0.58432,0.55827 -0.94239,0.7666 -0.35807,0.20833 -0.73568,0.38086 -1.1328,0.51758 l 4.3945,5.3027 h -4.2383 l -4.0625,-4.9414 h -3.9551 v 4.9414 z m 7.1583,-9.1797 c 0,-0.26042 -0.0342,-0.48174 -0.10254,-0.66403 -0.0684,-0.18229 -0.18718,-0.33041 -0.35645,-0.44435 -0.16927,-0.11394 -0.39551,-0.19694 -0.67871,-0.24902 -0.2832,-0.05208 -0.6364,-0.078125 -1.0596,-0.078125 h -4.9609 v 2.8711 h 4.9609 c 0.42317,0 0.77637,-0.02604 1.0596,-0.07813 0.28323,-0.05208 0.50944,-0.13509 0.67871,-0.24902 0.16927,-0.11393 0.28809,-0.26205 0.35645,-0.44435 0.0684,-0.1823 0.10254,-0.40365 0.10254,-0.66407 z M 333.79052,20 V 6.582 h 3.623 V 20 Z M 362.18551,9.502 V 20 h -3.623 V 9.502 h -5.6934 V 6.5821 h 15.02 V 9.502 h -5.7031 z m 29.56735,5.0195 V 20 h -3.6133 v -5.4785 l -6.5039,-7.9395 h 4.0625 l 4.2578,5.4004 4.2383,-5.4004 h 4.0625 z m 59.06485,-1.2403 c 0,0.85938 -0.0944,1.6228 -0.28318,2.29 -0.18879,0.6672 -0.4541,1.2483 -0.7959,1.7432 -0.3418,0.4949 -0.75195,0.91472 -1.2305,1.2598 -0.47855,0.34508 -1.0107,0.62174 -1.5967,0.83007 -0.586,0.20833 -1.2175,0.3597 -1.8945,0.4541 -0.677,0.0944 -1.3835,0.1416 -2.1191,0.1416 h -8.5156 v -13.418 h 8.4961 c 0.73567,0 1.4421,0.047197 2.1191,0.1416 0.677,0.094403 1.3103,0.24577 1.8994,0.4541 0.5891,0.20833 1.1247,0.4834 1.6064,0.8252 0.4817,0.3418 0.89355,0.76172 1.2354,1.2598 0.34185,0.49808 0.6071,1.0791 0.7959,1.7432 0.1888,0.6641 0.2832,1.4226 0.2832,2.2754 z m -3.652,0 c 0,-0.64453 -0.083,-1.2044 -0.24902,-1.6797 -0.16601,-0.4753 -0.43294,-0.86752 -0.80078,-1.1768 -0.36784,-0.30928 -0.84799,-0.54037 -1.4404,-0.69337 -0.59241,-0.153 -1.3151,-0.22949 -2.168,-0.22949 h -4.502 v 7.5781 h 4.502 c 0.85286,0 1.5755,-0.07649 2.168,-0.22949 0.5925,-0.152996 1.0726,-0.38737 1.4404,-0.70313 0.3678,-0.31576 0.63477,-0.71126 0.80078,-1.1865 0.16601,-0.47524 0.24902,-1.0352 0.24902,-1.6797 z m 30.78756,4.1797 h -7.4805 L 469.21297,20 h -4.043 l 7.0215,-13.418 h 4.043 L 483.25597,20 h -4.043 z m -6.1818,-2.6172 h 4.9023 l -2.4414,-4.9414 z m 35.15327,-0.3222 V 20 h -3.6133 v -5.4785 l -6.5039,-7.9395 h 4.0625 l 4.2578,5.4004 4.2383,-5.4004 h 4.0625 z"
         id="path15" />
    </g>
  </g>
</svg>
