<svg version="1.1" id="Layer_1" xmlns="http://www.w3.org/2000/svg" xmlns:xlink="http://www.w3.org/1999/xlink" x="0px" y="0px"
	 width="100%" viewBox="0 0 1800 900" enable-background="new 0 0 1800 900" xml:space="preserve">
<path fill="#FFFFFF" opacity="1.000000" stroke="none" 
	d="
M1177.000000,901.000000 
	C784.666687,901.000000 392.833344,901.000000 1.000000,901.000000 
	C1.000000,601.000000 1.000000,301.000000 1.000000,1.000000 
	C601.000000,1.000000 1201.000000,1.000000 1801.000000,1.000000 
	C1801.000000,301.000000 1801.000000,601.000000 1801.000000,901.000000 
	C1593.166626,901.000000 1385.333374,901.000000 1177.000000,901.000000 
M633.596069,351.832184 
	C613.263000,352.398590 601.429993,364.320129 593.195801,381.714386 
	C593.195801,372.857635 593.195801,364.000854 593.195801,355.171509 
	C578.121643,355.171509 563.541443,355.171509 548.918579,355.171509 
	C548.918579,440.525330 548.918579,525.570435 548.918579,610.776367 
	C563.794495,610.776367 578.388672,610.776367 593.452026,610.776367 
	C593.452026,596.944397 593.451965,583.330688 593.452026,569.716980 
	C593.452332,520.066406 593.428650,470.415833 593.476013,420.765320 
	C593.484192,412.230286 594.040161,403.737213 599.128296,396.363495 
	C603.899658,389.448883 610.728882,387.007843 618.740967,388.300934 
	C626.257019,389.514008 630.804749,394.585938 632.689941,401.666321 
	C633.741638,405.615784 633.959351,409.879181 633.964172,414.001770 
	C634.038696,477.647705 634.016418,541.293762 634.016663,604.939819 
	C634.016663,606.871826 634.016724,608.803894 634.016724,610.697571 
	C649.367737,610.697571 664.107483,610.697571 679.112366,610.697571 
	C679.112366,608.919495 679.112427,607.442383 679.112366,605.965271 
	C679.111572,540.653137 679.137634,475.340973 679.063721,410.028931 
	C679.057129,404.218079 678.669067,398.376648 677.998291,392.602875 
	C674.939209,366.271027 659.712891,352.062347 633.596069,351.832184 
M429.641510,547.833923 
	C429.641510,527.262085 429.641510,506.690186 429.641510,485.641541 
	C456.863586,485.641541 483.778015,485.641541 510.584808,485.641541 
	C510.584808,463.846710 510.922302,442.525177 510.423950,421.223206 
	C510.215332,412.305023 508.903320,403.276306 506.925507,394.562836 
	C502.040527,373.041931 489.988983,357.664368 467.236298,353.548706 
	C458.642517,351.994202 449.650085,351.707184 440.900848,352.126038 
	C415.980011,353.319122 397.422913,367.011292 390.016937,390.804108 
	C386.553314,401.931488 384.455200,413.901093 384.221130,425.538910 
	C383.497375,461.521729 383.647736,497.533081 384.155945,533.523499 
	C384.321777,545.266235 385.767120,557.155884 388.135162,568.668213 
	C392.974670,592.195068 406.096375,608.457642 431.046143,612.681274 
	C443.992981,614.872986 456.938934,614.572693 469.733124,611.512207 
	C486.168427,607.580627 497.733948,597.826477 503.255585,581.764526 
	C505.668152,574.746521 507.709778,567.383606 508.395966,560.034973 
	C509.811981,544.870667 510.204895,529.610779 511.025665,514.260132 
	C495.260651,514.260132 480.712097,514.260132 465.852509,514.260132 
	C465.852509,525.583618 466.184204,536.580078 465.730164,547.544006 
	C465.450439,554.299194 464.626740,561.182983 462.857513,567.685303 
	C460.861877,575.019836 455.322540,578.057373 447.525299,577.725586 
	C439.154846,577.369263 433.888275,573.631592 432.213501,566.013672 
	C430.968781,560.351990 430.529663,554.513184 429.641510,547.833923 
M196.368988,581.803650 
	C204.380676,559.881104 203.154633,537.073486 203.367477,514.245239 
	C188.284225,514.245239 173.738770,514.245239 158.927231,514.245239 
	C158.927231,523.380493 159.182312,532.199219 158.851700,540.995972 
	C158.552628,548.953857 158.232178,557.001404 156.796234,564.802368 
	C155.116745,573.926270 149.688675,577.813293 141.093475,577.732361 
	C131.996841,577.646729 126.976677,573.684143 124.930260,564.620544 
	C124.054741,560.742859 123.198685,556.766846 123.117233,552.819336 
	C122.674088,531.343628 122.469994,509.862946 122.214363,488.383606 
	C122.205254,487.617920 122.518379,486.848358 122.769371,485.665710 
	C149.829758,485.665710 176.739151,485.665710 203.490585,485.665710 
	C203.490585,463.570038 203.818512,441.931549 203.330505,420.311523 
	C203.133057,411.564484 201.838135,402.698547 199.852219,394.163696 
	C194.845963,372.648193 182.577652,357.472595 159.870163,353.433746 
	C151.433975,351.933228 142.614899,351.716766 134.025391,352.111298 
	C109.144592,353.254211 90.505714,366.936920 83.058517,390.660034 
	C79.617622,401.621033 77.457848,413.411469 77.231789,424.875397 
	C76.512619,461.345093 76.547516,497.845886 77.211136,534.317871 
	C77.445236,547.183960 79.270470,560.253723 82.243355,572.785950 
	C87.465828,594.801453 101.249176,609.359863 124.325188,612.539062 
	C134.593826,613.953796 145.311050,613.913330 155.629913,612.772217 
	C174.685608,610.664856 188.976578,601.120850 196.368988,581.803650 
M1410.933105,521.500000 
	C1410.933105,551.249573 1410.933105,580.999146 1410.933105,610.742432 
	C1422.829834,610.742432 1434.084717,610.742432 1445.788818,610.742432 
	C1445.788818,609.210083 1445.788940,607.910706 1445.788940,606.611267 
	C1445.787964,540.129089 1445.837280,473.646851 1445.709106,407.164917 
	C1445.696045,400.370544 1445.160400,393.477509 1443.922729,386.805450 
	C1441.140869,371.808411 1434.462280,359.095734 1418.972290,353.981995 
	C1403.774292,348.964661 1389.138428,350.746552 1377.075928,362.070129 
	C1371.906860,366.922577 1368.046753,373.169495 1363.676636,378.676086 
	C1363.676636,355.295349 1363.676636,331.386078 1363.676636,307.322235 
	C1351.883301,307.322235 1340.508667,307.322235 1329.258789,307.322235 
	C1329.258789,408.692200 1329.258789,509.733459 1329.258789,610.710327 
	C1340.848633,610.710327 1352.097534,610.710327 1363.746460,610.710327 
	C1363.746460,608.457275 1363.746460,606.491821 1363.746460,604.526306 
	C1363.746460,542.209717 1363.741333,479.893097 1363.759888,417.576477 
	C1363.760986,414.080261 1363.357910,410.432800 1364.195801,407.122253 
	C1365.560181,401.731659 1366.986084,396.066071 1369.839844,391.407074 
	C1374.866455,383.200684 1386.028564,379.651642 1395.959473,382.258179 
	C1405.000122,384.631104 1409.205078,391.182312 1410.204590,400.088837 
	C1410.574829,403.388062 1410.895874,406.714935 1410.900269,410.029663 
	C1410.949585,446.853058 1410.932373,483.676544 1410.933105,521.500000 
M344.204407,439.811737 
	C348.310272,411.697571 352.416138,383.583405 356.571442,355.130707 
	C342.295471,355.130707 328.556946,355.130707 314.477173,355.130707 
	C314.276550,356.967560 314.091949,358.587646 313.923767,360.209442 
	C312.447327,374.446747 310.985413,388.685577 309.496918,402.921600 
	C306.987274,426.923798 304.243195,450.903870 302.002777,474.931061 
	C299.699951,499.627686 297.905884,524.371643 295.778778,549.085388 
	C295.677185,550.265747 294.507324,551.354126 293.834930,552.485352 
	C293.068054,551.449341 291.770081,550.482422 291.624817,549.365540 
	C290.938110,544.086670 290.616699,538.761658 290.074188,533.462402 
	C287.633484,509.621765 285.349518,485.763000 282.651367,461.951263 
	C279.654175,435.500427 276.275787,409.092712 273.049316,382.667969 
	C271.927124,373.477509 270.763031,364.292236 269.629150,355.193451 
	C255.244705,355.193451 241.339203,355.193451 227.245117,355.193451 
	C239.603363,440.595764 251.910522,525.644897 264.220917,610.716431 
	C282.807983,610.716431 301.056122,610.716431 319.477783,610.716431 
	C319.688873,609.685852 319.891724,608.899170 320.007629,608.099976 
	C323.946106,580.942688 327.892883,553.786560 331.803253,526.625183 
	C335.927032,497.981750 340.014893,469.333160 344.204407,439.811737 
M1073.039307,583.851929 
	C1066.896484,581.764709 1063.592041,577.160156 1062.348999,571.099243 
	C1061.315308,566.059692 1060.287720,560.927185 1060.150269,555.811890 
	C1059.627075,536.328308 1059.453979,516.835327 1059.177490,497.345398 
	C1059.116577,493.055115 1059.168701,488.763214 1059.168701,483.881897 
	C1085.009521,483.881897 1110.381348,483.881897 1135.504150,483.881897 
	C1135.504150,462.792725 1135.877563,442.300629 1135.348633,421.831848 
	C1135.079102,411.399994 1133.960693,400.851410 1131.862793,390.635529 
	C1128.019531,371.919617 1118.297363,357.495575 1098.250122,353.512970 
	C1090.191772,351.912109 1081.636108,351.553101 1073.431030,352.201111 
	C1053.197754,353.799072 1038.317993,363.939514 1031.896973,383.526062 
	C1028.312134,394.461426 1025.515625,406.151855 1025.216553,417.576782 
	C1024.226562,455.382568 1024.208252,493.224945 1024.516846,531.047607 
	C1024.626343,544.473694 1025.826660,558.044189 1028.149536,571.264038 
	C1031.880249,592.496582 1042.587158,608.664307 1065.584595,612.527527 
	C1073.686401,613.888367 1082.237061,614.082947 1090.412476,613.211914 
	C1113.880493,610.711487 1126.348511,599.742981 1130.863159,576.637817 
	C1133.433228,563.485168 1133.959717,549.905823 1134.960938,536.485352 
	C1135.486938,529.434387 1135.053833,522.311890 1135.053833,515.302612 
	C1123.362915,515.302612 1112.288940,515.302612 1100.973389,515.302612 
	C1100.973389,518.593506 1101.036621,521.575623 1100.962280,524.554199 
	C1100.638184,537.540955 1100.604248,550.546143 1099.842407,563.507996 
	C1098.839478,580.569702 1089.239502,587.902283 1073.039307,583.851929 
M1210.168335,485.500031 
	C1210.179443,464.675140 1209.695801,443.833191 1210.413208,423.032654 
	C1210.764160,412.860901 1212.380981,402.485443 1215.211182,392.719879 
	C1217.764038,383.910675 1225.429810,380.662994 1235.256104,381.659302 
	C1243.962891,382.542084 1247.812500,386.206177 1250.067871,395.860626 
	C1250.482056,397.633484 1250.895020,399.450684 1250.945190,401.257507 
	C1251.338135,415.402435 1251.646484,429.549774 1251.968384,443.696625 
	C1252.008179,445.442230 1251.973877,447.189575 1251.973877,448.717438 
	C1263.821167,448.717438 1274.912109,448.717438 1285.875610,448.717438 
	C1285.875610,436.733978 1286.364014,425.059753 1285.717773,413.448700 
	C1285.221191,404.527863 1283.946045,395.531097 1281.868408,386.842804 
	C1277.734009,369.553925 1267.860352,356.903351 1249.558960,353.448242 
	C1241.476440,351.922333 1232.967163,351.661469 1224.729370,352.146149 
	C1202.984131,353.425476 1188.112305,364.777344 1181.998657,385.787109 
	C1178.731445,397.015228 1176.468628,408.906952 1176.175537,420.560150 
	C1175.262939,456.856232 1175.167725,493.184357 1175.476929,529.493896 
	C1175.592651,543.082275 1177.446045,556.682861 1179.024170,570.217590 
	C1179.592529,575.091797 1181.355591,579.912170 1183.126709,584.545715 
	C1190.381104,603.523499 1205.040527,612.186523 1224.623047,613.656860 
	C1258.075562,616.168640 1276.450073,604.102539 1282.893677,572.911743 
	C1286.929199,553.378479 1286.408447,533.499817 1286.041626,513.679260 
	C1286.037109,513.433167 1285.622192,513.194641 1285.597778,513.168274 
	C1274.323486,513.168274 1263.255859,513.168274 1251.883667,513.168274 
	C1251.883667,525.345825 1252.239868,537.172729 1251.755981,548.965210 
	C1251.444336,556.559082 1250.553345,564.263672 1248.736938,571.626343 
	C1246.590088,580.329529 1241.260986,583.860535 1232.855957,583.994751 
	C1222.397949,584.161682 1216.825195,580.937195 1213.908569,572.053955 
	C1212.372314,567.375183 1211.285400,562.340332 1211.170654,557.438843 
	C1210.617554,533.797668 1210.463745,510.147217 1210.168335,485.500031 
M733.050964,598.257385 
	C736.335144,604.554993 741.591553,608.499207 748.368225,610.055420 
	C753.520020,611.238342 758.836121,612.143250 764.104187,612.292969 
	C775.690125,612.622253 787.291931,612.395142 798.907410,612.395142 
	C798.907410,600.822266 798.907410,589.745361 798.907410,578.414062 
	C795.979614,578.267517 793.342041,578.192139 790.714539,577.988281 
	C788.069397,577.782898 785.389587,577.664917 782.803284,577.130188 
	C776.357300,575.797302 774.529114,573.684875 773.772217,567.080750 
	C773.564270,565.266602 773.500549,563.427185 773.500061,561.599365 
	C773.486023,507.132843 773.488220,452.666351 773.487915,398.199829 
	C773.487915,396.459503 773.487976,394.719147 773.487976,392.473663 
	C782.196655,392.473663 790.105957,392.473663 798.026855,392.473663 
	C798.026855,381.400421 798.026855,370.847687 798.026855,359.898804 
	C789.757324,359.898804 781.816895,359.898804 773.393311,359.898804 
	C773.393311,343.258820 773.393311,327.013458 773.393311,310.542419 
	C758.320190,310.542419 743.744019,310.542419 728.687622,310.542419 
	C728.687622,326.976562 728.687622,343.231262 728.687622,360.043030 
	C721.481079,360.043030 714.740112,360.043030 708.119141,360.043030 
	C708.119141,371.173187 708.119141,381.736603 708.119141,392.822876 
	C715.044128,392.822876 721.627441,392.822876 728.564697,392.822876 
	C728.564697,395.321503 728.564758,397.295258 728.564758,399.269012 
	C728.564941,456.067413 728.548706,512.865784 728.581360,569.664185 
	C728.586792,579.155029 728.698425,588.661743 733.050964,598.257385 
M1740.240112,374.432190 
	C1740.240112,368.677826 1740.240112,362.923492 1740.240112,356.796265 
	C1730.803589,356.796265 1722.037842,356.796265 1712.708130,356.796265 
	C1712.708130,341.200134 1712.708130,325.978088 1712.708130,310.549927 
	C1700.892700,310.549927 1689.649902,310.549927 1677.873291,310.549927 
	C1677.873291,326.015106 1677.873291,341.242065 1677.873291,356.849365 
	C1669.906860,356.849365 1662.464478,356.849365 1654.769775,356.849365 
	C1654.769775,365.485840 1654.769775,373.728668 1654.769775,382.644897 
	C1662.544800,382.644897 1670.078979,382.644897 1677.914185,382.644897 
	C1677.914185,385.285095 1677.914185,387.263336 1677.914185,389.241577 
	C1677.914673,450.377930 1677.856201,511.514435 1678.000610,572.650452 
	C1678.016235,579.258362 1678.837891,585.926392 1679.943481,592.455139 
	C1681.546509,601.921997 1687.480469,607.751465 1696.736938,610.157959 
	C1711.145874,613.903992 1725.772705,611.634033 1740.535400,612.335693 
	C1740.535400,602.914246 1740.535400,594.162292 1740.535400,585.109802 
	C1736.380127,584.902832 1732.413330,584.882874 1728.486206,584.477905 
	C1714.001221,582.984436 1712.729248,581.516907 1712.727661,566.788574 
	C1712.721313,507.318054 1712.724731,447.847565 1712.724609,388.377045 
	C1712.724609,386.592010 1712.724609,384.806976 1712.724609,382.437073 
	C1722.140503,382.437073 1731.029419,382.437073 1740.240234,382.437073 
	C1740.240234,379.700256 1740.240234,377.552612 1740.240112,374.432190 
M931.739014,356.054199 
	C929.835022,356.330322 927.934814,356.809448 926.026428,356.844543 
	C920.288208,356.950104 914.546875,356.882568 908.922119,356.882568 
	C908.922119,365.850952 908.922119,374.073914 908.922119,382.771606 
	C916.744873,382.771606 924.157654,382.771606 931.914124,382.771606 
	C931.914124,385.231537 931.914124,387.204010 931.914185,389.176483 
	C931.914673,450.315399 931.856384,511.454437 932.000183,572.593018 
	C932.015686,579.201538 932.826660,585.871033 933.933533,592.399475 
	C935.575806,602.086121 941.561829,608.832520 951.195923,610.046875 
	C965.437561,611.842041 979.861755,612.189453 994.376953,613.164673 
	C994.376953,602.842957 994.376953,593.980530 994.376953,585.232361 
	C988.343628,584.774170 982.693054,584.483643 977.075623,583.883545 
	C969.995239,583.127197 967.511047,580.429016 966.947144,573.327881 
	C966.802246,571.503906 966.735352,569.668884 966.735046,567.838928 
	C966.723877,507.866150 966.725220,447.893402 966.724792,387.920624 
	C966.724792,386.187012 966.724792,384.453430 966.724792,382.306580 
	C976.356812,382.306580 985.125549,382.306580 993.907349,382.306580 
	C993.907349,373.648193 993.907349,365.416443 993.907349,356.804688 
	C984.814087,356.804688 976.048157,356.804688 966.717041,356.804688 
	C966.717041,341.208069 966.717041,325.985504 966.717041,310.547119 
	C954.900635,310.547119 943.657837,310.547119 931.892944,310.547119 
	C931.892944,325.568573 931.892944,340.348236 931.739014,356.054199 
M877.314941,598.479187 
	C877.314941,517.401611 877.314941,436.324005 877.314941,355.193878 
	C862.174683,355.193878 847.453125,355.193878 832.617310,355.193878 
	C832.617310,440.552124 832.617310,525.574158 832.617310,610.705322 
	C847.595154,610.705322 862.303040,610.705322 877.314514,610.705322 
	C877.314514,606.762573 877.314514,603.115112 877.314941,598.479187 
M1621.451172,522.500122 
	C1621.451172,466.770813 1621.451172,411.041473 1621.451172,355.114136 
	C1609.663208,355.114136 1598.426025,355.114136 1587.086548,355.114136 
	C1587.086548,440.490570 1587.086548,525.616150 1587.086548,610.704224 
	C1598.703735,610.704224 1609.960083,610.704224 1621.152588,610.704224 
	C1621.277222,610.083740 1621.399780,609.758240 1621.400024,609.432617 
	C1621.423218,580.788452 1621.437012,552.144287 1621.451172,522.500122 
M832.100281,328.250671 
	C833.227478,329.174774 834.333435,330.868073 835.485229,330.899902 
	C843.810913,331.129730 852.145813,331.023682 860.477844,331.023895 
	C866.066772,331.024048 871.655640,331.023926 877.210327,331.023926 
	C877.210327,317.621948 877.210327,304.896179 877.210327,292.169342 
	C862.075623,292.169342 847.309265,292.169342 832.098877,292.169342 
	C832.098877,304.045135 832.098877,315.667847 832.100281,328.250671 
M1621.451172,316.498291 
	C1621.451172,310.755524 1621.451172,305.012726 1621.451172,299.280823 
	C1609.498657,299.280823 1598.252930,299.280823 1587.069336,299.280823 
	C1587.069336,309.966583 1587.069336,320.351349 1587.069336,330.728333 
	C1598.667358,330.728333 1609.921631,330.728333 1621.451416,330.728333 
	C1621.451416,326.126770 1621.451416,321.811310 1621.451172,316.498291 
M1529.049683,596.495972 
	C1529.049683,590.218262 1529.049683,583.940552 1529.049683,577.453979 
	C1518.964111,577.453979 1509.398315,577.453979 1499.660400,577.453979 
	C1499.660400,588.734192 1499.660400,599.759766 1499.660400,610.708374 
	C1509.615967,610.708374 1519.198853,610.708374 1529.049683,610.708374 
	C1529.049683,606.105469 1529.049683,601.799011 1529.049683,596.495972 
z"/>
<path fill="#314459" opacity="1.000000" stroke="none" 
	d="
M634.071899,351.830994 
	C659.712891,352.062347 674.939209,366.271027 677.998291,392.602875 
	C678.669067,398.376648 679.057129,404.218079 679.063721,410.028931 
	C679.137634,475.340973 679.111572,540.653137 679.112366,605.965271 
	C679.112427,607.442383 679.112366,608.919495 679.112366,610.697571 
	C664.107483,610.697571 649.367737,610.697571 634.016724,610.697571 
	C634.016724,608.803894 634.016663,606.871826 634.016663,604.939819 
	C634.016418,541.293762 634.038696,477.647705 633.964172,414.001770 
	C633.959351,409.879181 633.741638,405.615784 632.689941,401.666321 
	C630.804749,394.585938 626.257019,389.514008 618.740967,388.300934 
	C610.728882,387.007843 603.899658,389.448883 599.128296,396.363495 
	C594.040161,403.737213 593.484192,412.230286 593.476013,420.765320 
	C593.428650,470.415833 593.452332,520.066406 593.452026,569.716980 
	C593.451965,583.330688 593.452026,596.944397 593.452026,610.776367 
	C578.388672,610.776367 563.794495,610.776367 548.918579,610.776367 
	C548.918579,525.570435 548.918579,440.525330 548.918579,355.171509 
	C563.541443,355.171509 578.121643,355.171509 593.195801,355.171509 
	C593.195801,364.000854 593.195801,372.857635 593.195801,381.714386 
	C601.429993,364.320129 613.263000,352.398590 634.071899,351.830994 
z"/>
<path fill="#32455A" opacity="1.000000" stroke="none" 
	d="
M429.686646,548.293579 
	C430.529663,554.513184 430.968781,560.351990 432.213501,566.013672 
	C433.888275,573.631592 439.154846,577.369263 447.525299,577.725586 
	C455.322540,578.057373 460.861877,575.019836 462.857513,567.685303 
	C464.626740,561.182983 465.450439,554.299194 465.730164,547.544006 
	C466.184204,536.580078 465.852509,525.583618 465.852509,514.260132 
	C480.712097,514.260132 495.260651,514.260132 511.025665,514.260132 
	C510.204895,529.610779 509.811981,544.870667 508.395966,560.034973 
	C507.709778,567.383606 505.668152,574.746521 503.255585,581.764526 
	C497.733948,597.826477 486.168427,607.580627 469.733124,611.512207 
	C456.938934,614.572693 443.992981,614.872986 431.046143,612.681274 
	C406.096375,608.457642 392.974670,592.195068 388.135162,568.668213 
	C385.767120,557.155884 384.321777,545.266235 384.155945,533.523499 
	C383.647736,497.533081 383.497375,461.521729 384.221130,425.538910 
	C384.455200,413.901093 386.553314,401.931488 390.016937,390.804108 
	C397.422913,367.011292 415.980011,353.319122 440.900848,352.126038 
	C449.650085,351.707184 458.642517,351.994202 467.236298,353.548706 
	C489.988983,357.664368 502.040527,373.041931 506.925507,394.562836 
	C508.903320,403.276306 510.215332,412.305023 510.423950,421.223206 
	C510.922302,442.525177 510.584808,463.846710 510.584808,485.641541 
	C483.778015,485.641541 456.863586,485.641541 429.641510,485.641541 
	C429.641510,506.690186 429.641510,527.262085 429.686646,548.293579 
M465.950653,440.499390 
	C465.950531,436.506165 466.148193,432.501160 465.910858,428.522095 
	C465.347900,419.084045 465.139374,409.573425 463.728027,400.252563 
	C462.432617,391.696960 457.544342,387.660919 450.331482,387.138184 
	C441.502777,386.498322 435.161713,390.091919 432.448212,398.289154 
	C430.853333,403.107178 429.865967,408.329865 429.751953,413.396362 
	C429.408966,428.636505 429.628296,443.889313 429.628296,459.305664 
	C441.641022,459.305664 453.672852,459.305664 465.950623,459.305664 
	C465.950623,453.129211 465.950623,447.314148 465.950653,440.499390 
z"/>
<path fill="#32455A" opacity="1.000000" stroke="none" 
	d="
M196.239456,582.167358 
	C188.976578,601.120850 174.685608,610.664856 155.629913,612.772217 
	C145.311050,613.913330 134.593826,613.953796 124.325188,612.539062 
	C101.249176,609.359863 87.465828,594.801453 82.243355,572.785950 
	C79.270470,560.253723 77.445236,547.183960 77.211136,534.317871 
	C76.547516,497.845886 76.512619,461.345093 77.231789,424.875397 
	C77.457848,413.411469 79.617622,401.621033 83.058517,390.660034 
	C90.505714,366.936920 109.144592,353.254211 134.025391,352.111298 
	C142.614899,351.716766 151.433975,351.933228 159.870163,353.433746 
	C182.577652,357.472595 194.845963,372.648193 199.852219,394.163696 
	C201.838135,402.698547 203.133057,411.564484 203.330505,420.311523 
	C203.818512,441.931549 203.490585,463.570038 203.490585,485.665710 
	C176.739151,485.665710 149.829758,485.665710 122.769371,485.665710 
	C122.518379,486.848358 122.205254,487.617920 122.214363,488.383606 
	C122.469994,509.862946 122.674088,531.343628 123.117233,552.819336 
	C123.198685,556.766846 124.054741,560.742859 124.930260,564.620544 
	C126.976677,573.684143 131.996841,577.646729 141.093475,577.732361 
	C149.688675,577.813293 155.116745,573.926270 156.796234,564.802368 
	C158.232178,557.001404 158.552628,548.953857 158.851700,540.995972 
	C159.182312,532.199219 158.927231,523.380493 158.927231,514.245239 
	C173.738770,514.245239 188.284225,514.245239 203.367477,514.245239 
	C203.154633,537.073486 204.380676,559.881104 196.239456,582.167358 
M145.487427,459.669617 
	C149.906464,459.669617 154.325485,459.669617 158.707230,459.669617 
	C158.707230,443.759247 158.886597,428.624725 158.604630,413.498871 
	C158.512726,408.568512 157.632843,403.551727 156.378403,398.767181 
	C154.350327,391.031982 150.129242,387.611969 143.278305,387.135284 
	C134.925293,386.554077 128.777267,389.628723 126.077011,396.994263 
	C124.224174,402.048370 122.986298,407.593811 122.839386,412.957031 
	C122.417694,428.351410 122.690758,443.764801 122.690758,459.669464 
	C129.926620,459.669464 137.209442,459.669464 145.487427,459.669617 
z"/>
<path fill="#33465A" opacity="1.000000" stroke="none" 
	d="
M1410.933105,521.000000 
	C1410.932373,483.676544 1410.949585,446.853058 1410.900269,410.029663 
	C1410.895874,406.714935 1410.574829,403.388062 1410.204590,400.088837 
	C1409.205078,391.182312 1405.000122,384.631104 1395.959473,382.258179 
	C1386.028564,379.651642 1374.866455,383.200684 1369.839844,391.407074 
	C1366.986084,396.066071 1365.560181,401.731659 1364.195801,407.122253 
	C1363.357910,410.432800 1363.760986,414.080261 1363.759888,417.576477 
	C1363.741333,479.893097 1363.746460,542.209717 1363.746460,604.526306 
	C1363.746460,606.491821 1363.746460,608.457275 1363.746460,610.710327 
	C1352.097534,610.710327 1340.848633,610.710327 1329.258789,610.710327 
	C1329.258789,509.733459 1329.258789,408.692200 1329.258789,307.322235 
	C1340.508667,307.322235 1351.883301,307.322235 1363.676636,307.322235 
	C1363.676636,331.386078 1363.676636,355.295349 1363.676636,378.676086 
	C1368.046753,373.169495 1371.906860,366.922577 1377.075928,362.070129 
	C1389.138428,350.746552 1403.774292,348.964661 1418.972290,353.981995 
	C1434.462280,359.095734 1441.140869,371.808411 1443.922729,386.805450 
	C1445.160400,393.477509 1445.696045,400.370544 1445.709106,407.164917 
	C1445.837280,473.646851 1445.787964,540.129089 1445.788940,606.611267 
	C1445.788940,607.910706 1445.788818,609.210083 1445.788818,610.742432 
	C1434.084717,610.742432 1422.829834,610.742432 1410.933105,610.742432 
	C1410.933105,580.999146 1410.933105,551.249573 1410.933105,521.000000 
z"/>
<path fill="#32455A" opacity="1.000000" stroke="none" 
	d="
M344.161438,440.249268 
	C340.014893,469.333160 335.927032,497.981750 331.803253,526.625183 
	C327.892883,553.786560 323.946106,580.942688 320.007629,608.099976 
	C319.891724,608.899170 319.688873,609.685852 319.477783,610.716431 
	C301.056122,610.716431 282.807983,610.716431 264.220917,610.716431 
	C251.910522,525.644897 239.603363,440.595764 227.245117,355.193451 
	C241.339203,355.193451 255.244705,355.193451 269.629150,355.193451 
	C270.763031,364.292236 271.927124,373.477509 273.049316,382.667969 
	C276.275787,409.092712 279.654175,435.500427 282.651367,461.951263 
	C285.349518,485.763000 287.633484,509.621765 290.074188,533.462402 
	C290.616699,538.761658 290.938110,544.086670 291.624817,549.365540 
	C291.770081,550.482422 293.068054,551.449341 293.834930,552.485352 
	C294.507324,551.354126 295.677185,550.265747 295.778778,549.085388 
	C297.905884,524.371643 299.699951,499.627686 302.002777,474.931061 
	C304.243195,450.903870 306.987274,426.923798 309.496918,402.921600 
	C310.985413,388.685577 312.447327,374.446747 313.923767,360.209442 
	C314.091949,358.587646 314.276550,356.967560 314.477173,355.130707 
	C328.556946,355.130707 342.295471,355.130707 356.571442,355.130707 
	C352.416138,383.583405 348.310272,411.697571 344.161438,440.249268 
z"/>
<path fill="#33455A" opacity="1.000000" stroke="none" 
	d="
M1073.437256,583.933960 
	C1089.239502,587.902283 1098.839478,580.569702 1099.842407,563.507996 
	C1100.604248,550.546143 1100.638184,537.540955 1100.962280,524.554199 
	C1101.036621,521.575623 1100.973389,518.593506 1100.973389,515.302612 
	C1112.288940,515.302612 1123.362915,515.302612 1135.053833,515.302612 
	C1135.053833,522.311890 1135.486938,529.434387 1134.960938,536.485352 
	C1133.959717,549.905823 1133.433228,563.485168 1130.863159,576.637817 
	C1126.348511,599.742981 1113.880493,610.711487 1090.412476,613.211914 
	C1082.237061,614.082947 1073.686401,613.888367 1065.584595,612.527527 
	C1042.587158,608.664307 1031.880249,592.496582 1028.149536,571.264038 
	C1025.826660,558.044189 1024.626343,544.473694 1024.516846,531.047607 
	C1024.208252,493.224945 1024.226562,455.382568 1025.216553,417.576782 
	C1025.515625,406.151855 1028.312134,394.461426 1031.896973,383.526062 
	C1038.317993,363.939514 1053.197754,353.799072 1073.431030,352.201111 
	C1081.636108,351.553101 1090.191772,351.912109 1098.250122,353.512970 
	C1118.297363,357.495575 1128.019531,371.919617 1131.862793,390.635529 
	C1133.960693,400.851410 1135.079102,411.399994 1135.348633,421.831848 
	C1135.877563,442.300629 1135.504150,462.792725 1135.504150,483.881897 
	C1110.381348,483.881897 1085.009521,483.881897 1059.168701,483.881897 
	C1059.168701,488.763214 1059.116577,493.055115 1059.177490,497.345398 
	C1059.453979,516.835327 1059.627075,536.328308 1060.150269,555.811890 
	C1060.287720,560.927185 1061.315308,566.059692 1062.348999,571.099243 
	C1063.592041,577.160156 1066.896484,581.764709 1073.437256,583.933960 
M1100.976807,455.411865 
	C1100.942139,441.435425 1101.228638,427.447845 1100.742676,413.487122 
	C1100.484619,406.075134 1099.328247,398.613647 1097.748535,391.354889 
	C1096.562378,385.904785 1092.875610,382.155212 1086.957031,380.855286 
	C1073.889160,377.985229 1063.184692,384.504059 1061.547485,399.207367 
	C1059.313721,419.266479 1059.171509,439.558533 1058.115356,460.086060 
	C1073.219360,460.086060 1086.903076,460.086060 1100.495361,460.086060 
	C1100.708496,459.492462 1100.890015,459.194702 1100.911743,458.885712 
	C1100.969849,458.057190 1100.959717,457.223877 1100.976807,455.411865 
z"/>
<path fill="#32455A" opacity="1.000000" stroke="none" 
	d="
M1210.168213,486.000061 
	C1210.463745,510.147217 1210.617554,533.797668 1211.170654,557.438843 
	C1211.285400,562.340332 1212.372314,567.375183 1213.908569,572.053955 
	C1216.825195,580.937195 1222.397949,584.161682 1232.855957,583.994751 
	C1241.260986,583.860535 1246.590088,580.329529 1248.736938,571.626343 
	C1250.553345,564.263672 1251.444336,556.559082 1251.755981,548.965210 
	C1252.239868,537.172729 1251.883667,525.345825 1251.883667,513.168274 
	C1263.255859,513.168274 1274.323486,513.168274 1285.597778,513.168274 
	C1285.622192,513.194641 1286.037109,513.433167 1286.041626,513.679260 
	C1286.408447,533.499817 1286.929199,553.378479 1282.893677,572.911743 
	C1276.450073,604.102539 1258.075562,616.168640 1224.623047,613.656860 
	C1205.040527,612.186523 1190.381104,603.523499 1183.126709,584.545715 
	C1181.355591,579.912170 1179.592529,575.091797 1179.024170,570.217590 
	C1177.446045,556.682861 1175.592651,543.082275 1175.476929,529.493896 
	C1175.167725,493.184357 1175.262939,456.856232 1176.175537,420.560150 
	C1176.468628,408.906952 1178.731445,397.015228 1181.998657,385.787109 
	C1188.112305,364.777344 1202.984131,353.425476 1224.729370,352.146149 
	C1232.967163,351.661469 1241.476440,351.922333 1249.558960,353.448242 
	C1267.860352,356.903351 1277.734009,369.553925 1281.868408,386.842804 
	C1283.946045,395.531097 1285.221191,404.527863 1285.717773,413.448700 
	C1286.364014,425.059753 1285.875610,436.733978 1285.875610,448.717438 
	C1274.912109,448.717438 1263.821167,448.717438 1251.973877,448.717438 
	C1251.973877,447.189575 1252.008179,445.442230 1251.968384,443.696625 
	C1251.646484,429.549774 1251.338135,415.402435 1250.945190,401.257507 
	C1250.895020,399.450684 1250.482056,397.633484 1250.067871,395.860626 
	C1247.812500,386.206177 1243.962891,382.542084 1235.256104,381.659302 
	C1225.429810,380.662994 1217.764038,383.910675 1215.211182,392.719879 
	C1212.380981,402.485443 1210.764160,412.860901 1210.413208,423.032654 
	C1209.695801,443.833191 1210.179443,464.675140 1210.168213,486.000061 
z"/>
<path fill="#32455A" opacity="1.000000" stroke="none" 
	d="
M732.911316,597.906860 
	C728.698425,588.661743 728.586792,579.155029 728.581360,569.664185 
	C728.548706,512.865784 728.564941,456.067413 728.564758,399.269012 
	C728.564758,397.295258 728.564697,395.321503 728.564697,392.822876 
	C721.627441,392.822876 715.044128,392.822876 708.119141,392.822876 
	C708.119141,381.736603 708.119141,371.173187 708.119141,360.043030 
	C714.740112,360.043030 721.481079,360.043030 728.687622,360.043030 
	C728.687622,343.231262 728.687622,326.976562 728.687622,310.542419 
	C743.744019,310.542419 758.320190,310.542419 773.393311,310.542419 
	C773.393311,327.013458 773.393311,343.258820 773.393311,359.898804 
	C781.816895,359.898804 789.757324,359.898804 798.026855,359.898804 
	C798.026855,370.847687 798.026855,381.400421 798.026855,392.473663 
	C790.105957,392.473663 782.196655,392.473663 773.487976,392.473663 
	C773.487976,394.719147 773.487915,396.459503 773.487915,398.199829 
	C773.488220,452.666351 773.486023,507.132843 773.500061,561.599365 
	C773.500549,563.427185 773.564270,565.266602 773.772217,567.080750 
	C774.529114,573.684875 776.357300,575.797302 782.803284,577.130188 
	C785.389587,577.664917 788.069397,577.782898 790.714539,577.988281 
	C793.342041,578.192139 795.979614,578.267517 798.907410,578.414062 
	C798.907410,589.745361 798.907410,600.822266 798.907410,612.395142 
	C787.291931,612.395142 775.690125,612.622253 764.104187,612.292969 
	C758.836121,612.143250 753.520020,611.238342 748.368225,610.055420 
	C741.591553,608.499207 736.335144,604.554993 732.911316,597.906860 
z"/>
<path fill="#33465A" opacity="1.000000" stroke="none" 
	d="
M1740.240234,374.918579 
	C1740.240234,377.552612 1740.240234,379.700256 1740.240234,382.437073 
	C1731.029419,382.437073 1722.140503,382.437073 1712.724609,382.437073 
	C1712.724609,384.806976 1712.724609,386.592010 1712.724609,388.377045 
	C1712.724731,447.847565 1712.721313,507.318054 1712.727661,566.788574 
	C1712.729248,581.516907 1714.001221,582.984436 1728.486206,584.477905 
	C1732.413330,584.882874 1736.380127,584.902832 1740.535400,585.109802 
	C1740.535400,594.162292 1740.535400,602.914246 1740.535400,612.335693 
	C1725.772705,611.634033 1711.145874,613.903992 1696.736938,610.157959 
	C1687.480469,607.751465 1681.546509,601.921997 1679.943481,592.455139 
	C1678.837891,585.926392 1678.016235,579.258362 1678.000610,572.650452 
	C1677.856201,511.514435 1677.914673,450.377930 1677.914185,389.241577 
	C1677.914185,387.263336 1677.914185,385.285095 1677.914185,382.644897 
	C1670.078979,382.644897 1662.544800,382.644897 1654.769775,382.644897 
	C1654.769775,373.728668 1654.769775,365.485840 1654.769775,356.849365 
	C1662.464478,356.849365 1669.906860,356.849365 1677.873291,356.849365 
	C1677.873291,341.242065 1677.873291,326.015106 1677.873291,310.549927 
	C1689.649902,310.549927 1700.892700,310.549927 1712.708130,310.549927 
	C1712.708130,325.978088 1712.708130,341.200134 1712.708130,356.796265 
	C1722.037842,356.796265 1730.803589,356.796265 1740.240112,356.796265 
	C1740.240112,362.923492 1740.240112,368.677826 1740.240234,374.918579 
z"/>
<path fill="#33465A" opacity="1.000000" stroke="none" 
	d="
M931.815979,355.591064 
	C931.892944,340.348236 931.892944,325.568573 931.892944,310.547119 
	C943.657837,310.547119 954.900635,310.547119 966.717041,310.547119 
	C966.717041,325.985504 966.717041,341.208069 966.717041,356.804688 
	C976.048157,356.804688 984.814087,356.804688 993.907349,356.804688 
	C993.907349,365.416443 993.907349,373.648193 993.907349,382.306580 
	C985.125549,382.306580 976.356812,382.306580 966.724792,382.306580 
	C966.724792,384.453430 966.724792,386.187012 966.724792,387.920624 
	C966.725220,447.893402 966.723877,507.866150 966.735046,567.838928 
	C966.735352,569.668884 966.802246,571.503906 966.947144,573.327881 
	C967.511047,580.429016 969.995239,583.127197 977.075623,583.883545 
	C982.693054,584.483643 988.343628,584.774170 994.376953,585.232361 
	C994.376953,593.980530 994.376953,602.842957 994.376953,613.164673 
	C979.861755,612.189453 965.437561,611.842041 951.195923,610.046875 
	C941.561829,608.832520 935.575806,602.086121 933.933533,592.399475 
	C932.826660,585.871033 932.015686,579.201538 932.000183,572.593018 
	C931.856384,511.454437 931.914673,450.315399 931.914185,389.176483 
	C931.914124,387.204010 931.914124,385.231537 931.914124,382.771606 
	C924.157654,382.771606 916.744873,382.771606 908.922119,382.771606 
	C908.922119,374.073914 908.922119,365.850952 908.922119,356.882568 
	C914.546875,356.882568 920.288208,356.950104 926.026428,356.844543 
	C927.934814,356.809448 929.835022,356.330322 931.815979,355.591064 
z"/>
<path fill="#33465A" opacity="1.000000" stroke="none" 
	d="
M877.314697,598.973450 
	C877.314514,603.115112 877.314514,606.762573 877.314514,610.705322 
	C862.303040,610.705322 847.595154,610.705322 832.617310,610.705322 
	C832.617310,525.574158 832.617310,440.552124 832.617310,355.193878 
	C847.453125,355.193878 862.174683,355.193878 877.314941,355.193878 
	C877.314941,436.324005 877.314941,517.401611 877.314697,598.973450 
z"/>
<path fill="#314459" opacity="1.000000" stroke="none" 
	d="
M1621.451416,523.000122 
	C1621.437012,552.144287 1621.423218,580.788452 1621.400024,609.432617 
	C1621.399780,609.758240 1621.277222,610.083740 1621.152588,610.704224 
	C1609.960083,610.704224 1598.703735,610.704224 1587.086548,610.704224 
	C1587.086548,525.616150 1587.086548,440.490570 1587.086548,355.114136 
	C1598.426025,355.114136 1609.663208,355.114136 1621.451172,355.114136 
	C1621.451172,411.041473 1621.451172,466.770813 1621.451416,523.000122 
z"/>
<path fill="#34475B" opacity="1.000000" stroke="none" 
	d="
M832.099609,327.770599 
	C832.098877,315.667847 832.098877,304.045135 832.098877,292.169342 
	C847.309265,292.169342 862.075623,292.169342 877.210327,292.169342 
	C877.210327,304.896179 877.210327,317.621948 877.210327,331.023926 
	C871.655640,331.023926 866.066772,331.024048 860.477844,331.023895 
	C852.145813,331.023682 843.810913,331.129730 835.485229,330.899902 
	C834.333435,330.868073 833.227478,329.174774 832.099609,327.770599 
z"/>
<path fill="#314459" opacity="1.000000" stroke="none" 
	d="
M1621.451294,316.997070 
	C1621.451416,321.811310 1621.451416,326.126770 1621.451416,330.728333 
	C1609.921631,330.728333 1598.667358,330.728333 1587.069336,330.728333 
	C1587.069336,320.351349 1587.069336,309.966583 1587.069336,299.280823 
	C1598.252930,299.280823 1609.498657,299.280823 1621.451172,299.280823 
	C1621.451172,305.012726 1621.451172,310.755524 1621.451294,316.997070 
z"/>
<path fill="#36485C" opacity="1.000000" stroke="none" 
	d="
M1529.049683,596.994263 
	C1529.049683,601.799011 1529.049683,606.105469 1529.049683,610.708374 
	C1519.198853,610.708374 1509.615967,610.708374 1499.660400,610.708374 
	C1499.660400,599.759766 1499.660400,588.734192 1499.660400,577.453979 
	C1509.398315,577.453979 1518.964111,577.453979 1529.049683,577.453979 
	C1529.049683,583.940552 1529.049683,590.218262 1529.049683,596.994263 
z"/>
<path fill="#FCFCFC" opacity="1.000000" stroke="none" 
	d="
M465.950623,440.999237 
	C465.950623,447.314148 465.950623,453.129211 465.950623,459.305664 
	C453.672852,459.305664 441.641022,459.305664 429.628296,459.305664 
	C429.628296,443.889313 429.408966,428.636505 429.751953,413.396362 
	C429.865967,408.329865 430.853333,403.107178 432.448212,398.289154 
	C435.161713,390.091919 441.502777,386.498322 450.331482,387.138184 
	C457.544342,387.660919 462.432617,391.696960 463.728027,400.252563 
	C465.139374,409.573425 465.347900,419.084045 465.910858,428.522095 
	C466.148193,432.501160 465.950531,436.506165 465.950623,440.999237 
z"/>
<path fill="#FCFCFC" opacity="1.000000" stroke="none" 
	d="
M144.989838,459.669556 
	C137.209442,459.669464 129.926620,459.669464 122.690758,459.669464 
	C122.690758,443.764801 122.417694,428.351410 122.839386,412.957031 
	C122.986298,407.593811 124.224174,402.048370 126.077011,396.994263 
	C128.777267,389.628723 134.925293,386.554077 143.278305,387.135284 
	C150.129242,387.611969 154.350327,391.031982 156.378403,398.767181 
	C157.632843,403.551727 158.512726,408.568512 158.604630,413.498871 
	C158.886597,428.624725 158.707230,443.759247 158.707230,459.669617 
	C154.325485,459.669617 149.906464,459.669617 144.989838,459.669556 
z"/>
<path fill="#FDFEFE" opacity="1.000000" stroke="none" 
	d="
M1100.976685,455.902161 
	C1100.959717,457.223877 1100.969849,458.057190 1100.911743,458.885712 
	C1100.890015,459.194702 1100.708496,459.492462 1100.495361,460.086060 
	C1086.903076,460.086060 1073.219360,460.086060 1058.115356,460.086060 
	C1059.171509,439.558533 1059.313721,419.266479 1061.547485,399.207367 
	C1063.184692,384.504059 1073.889160,377.985229 1086.957031,380.855286 
	C1092.875610,382.155212 1096.562378,385.904785 1097.748535,391.354889 
	C1099.328247,398.613647 1100.484619,406.075134 1100.742676,413.487122 
	C1101.228638,427.447845 1100.942139,441.435425 1100.976685,455.902161 
z"/>
</svg>