<svg xmlns="http://www.w3.org/2000/svg" xmlns:xlink="http://www.w3.org/1999/xlink" width="220" zoomAndPan="magnify" viewBox="0 0 165 82.499998" height="110" preserveAspectRatio="xMidYMid meet" version="1.0"><defs><clipPath id="2d084128b5"><path d="M 0.496094 0 L 164.503906 0 L 164.503906 82.003906 L 0.496094 82.003906 Z M 0.496094 0 " clip-rule="nonzero"/></clipPath><clipPath id="62a3a466d3"><path d="M 9 25.425781 L 142 25.425781 L 142 55 L 9 55 Z M 9 25.425781 " clip-rule="nonzero"/></clipPath></defs><g clip-path="url(#2d084128b5)"><path fill="#ffffff" d="M 0.496094 0 L 164.503906 0 L 164.503906 82.003906 L 0.496094 82.003906 Z M 0.496094 0 " fill-opacity="1" fill-rule="nonzero"/><path fill="#ffffff" d="M 0.496094 0 L 164.503906 0 L 164.503906 82.003906 L 0.496094 82.003906 Z M 0.496094 0 " fill-opacity="1" fill-rule="nonzero"/></g><g clip-path="url(#62a3a466d3)"><path fill="#2d3223" d="M 22.046875 50.464844 C 22.046875 51.140625 21.878906 51.761719 21.542969 52.324219 C 21.207031 52.914062 20.757812 53.375 20.195312 53.714844 C 19.636719 54.074219 19.007812 54.253906 18.3125 54.253906 L 13.628906 54.253906 C 13.203125 54.253906 12.832031 54.097656 12.519531 53.78125 C 12.226562 53.488281 12.082031 53.125 12.082031 52.699219 L 12.082031 51.75 C 12.082031 51.320312 12.226562 50.960938 12.519531 50.667969 C 12.832031 50.375 13.203125 50.226562 13.628906 50.226562 L 17.605469 50.226562 C 17.714844 50.226562 17.816406 50.183594 17.90625 50.089844 C 18.019531 50 18.074219 49.898438 18.074219 49.785156 L 18.074219 49.28125 C 18.074219 49.167969 18.019531 49.066406 17.90625 48.976562 C 17.816406 48.882812 17.714844 48.839844 17.605469 48.839844 L 13.628906 48.839844 C 12.597656 48.839844 11.710938 48.476562 10.96875 47.757812 C 10.230469 47.011719 9.859375 46.109375 9.859375 45.046875 L 9.859375 35.097656 C 9.859375 34.398438 10.027344 33.765625 10.363281 33.199219 C 10.722656 32.613281 11.183594 32.152344 11.746094 31.8125 C 12.304688 31.476562 12.933594 31.304688 13.628906 31.304688 L 18.3125 31.304688 C 19.007812 31.304688 19.636719 31.476562 20.195312 31.8125 C 20.757812 32.152344 21.207031 32.613281 21.542969 33.199219 C 21.878906 33.765625 22.046875 34.398438 22.046875 35.097656 Z M 18.074219 44.40625 L 18.074219 35.808594 C 18.074219 35.671875 18.019531 35.558594 17.90625 35.46875 C 17.816406 35.378906 17.714844 35.332031 17.605469 35.332031 L 14.335938 35.332031 C 14.226562 35.332031 14.113281 35.378906 14 35.46875 C 13.910156 35.558594 13.867188 35.671875 13.867188 35.808594 L 13.867188 44.40625 C 13.867188 44.519531 13.910156 44.621094 14 44.710938 C 14.113281 44.800781 14.226562 44.84375 14.335938 44.84375 L 17.605469 44.84375 C 17.714844 44.84375 17.816406 44.800781 17.90625 44.710938 C 18.019531 44.621094 18.074219 44.519531 18.074219 44.40625 Z M 29.871094 28.125 C 29.871094 28.824219 29.613281 29.433594 29.097656 29.953125 C 28.605469 30.449219 28.019531 30.695312 27.347656 30.695312 C 26.652344 30.695312 26.046875 30.449219 25.527344 29.953125 C 25.035156 29.433594 24.789062 28.824219 24.789062 28.125 C 24.789062 27.445312 25.035156 26.859375 25.527344 26.363281 C 26.046875 25.84375 26.652344 25.585938 27.347656 25.585938 C 28.019531 25.585938 28.605469 25.84375 29.097656 26.363281 C 29.613281 26.859375 29.871094 27.445312 29.871094 28.125 Z M 29.335938 47.28125 C 29.335938 47.710938 29.175781 48.082031 28.863281 48.398438 C 28.570312 48.691406 28.210938 48.839844 27.785156 48.839844 L 26.875 48.839844 C 26.449219 48.839844 26.078125 48.691406 25.765625 48.398438 C 25.472656 48.082031 25.328125 47.710938 25.328125 47.28125 L 25.328125 33.234375 C 25.328125 32.804688 25.472656 32.445312 25.765625 32.152344 C 26.078125 31.835938 26.449219 31.679688 26.875 31.679688 L 27.785156 31.679688 C 28.210938 31.679688 28.570312 31.835938 28.863281 32.152344 C 29.175781 32.445312 29.335938 32.804688 29.335938 33.234375 Z M 44.769531 45.046875 C 44.769531 46.109375 44.402344 47.011719 43.660156 47.757812 C 42.941406 48.476562 42.066406 48.839844 41.035156 48.839844 L 36.351562 48.839844 C 35.320312 48.839844 34.433594 48.476562 33.691406 47.757812 C 32.953125 47.011719 32.582031 46.109375 32.582031 45.046875 L 32.582031 32.898438 C 32.582031 32.445312 32.726562 32.074219 33.019531 31.78125 C 33.332031 31.464844 33.703125 31.304688 34.128906 31.304688 L 35.074219 31.304688 C 35.5 31.304688 35.859375 31.464844 36.152344 31.78125 C 36.441406 32.074219 36.589844 32.445312 36.589844 32.898438 L 36.589844 44.40625 C 36.589844 44.519531 36.632812 44.621094 36.722656 44.710938 C 36.835938 44.800781 36.949219 44.84375 37.058594 44.84375 L 40.328125 44.84375 C 40.4375 44.84375 40.539062 44.800781 40.628906 44.710938 C 40.742188 44.621094 40.796875 44.519531 40.796875 44.40625 L 40.796875 32.898438 C 40.796875 32.445312 40.945312 32.074219 41.234375 31.78125 C 41.527344 31.464844 41.886719 31.304688 42.3125 31.304688 L 43.257812 31.304688 C 43.683594 31.304688 44.042969 31.464844 44.332031 31.78125 C 44.625 32.074219 44.769531 32.445312 44.769531 32.898438 Z M 59.699219 45.046875 C 59.699219 46.109375 59.328125 47.011719 58.589844 47.757812 C 57.871094 48.476562 56.996094 48.839844 55.960938 48.839844 L 51.988281 48.839844 C 51.878906 48.839844 51.765625 48.882812 51.652344 48.976562 C 51.5625 49.066406 51.519531 49.167969 51.519531 49.28125 L 51.519531 52.699219 C 51.519531 53.125 51.371094 53.488281 51.082031 53.78125 C 50.789062 54.097656 50.429688 54.253906 50.003906 54.253906 L 49.058594 54.253906 C 48.632812 54.253906 48.261719 54.097656 47.949219 53.78125 C 47.65625 53.488281 47.511719 53.125 47.511719 52.699219 L 47.511719 35.097656 C 47.511719 34.398438 47.679688 33.765625 48.015625 33.199219 C 48.375 32.613281 48.835938 32.152344 49.394531 31.8125 C 49.957031 31.476562 50.585938 31.304688 51.28125 31.304688 L 55.960938 31.304688 C 56.660156 31.304688 57.285156 31.476562 57.847656 31.8125 C 58.410156 32.152344 58.859375 32.613281 59.195312 33.199219 C 59.53125 33.765625 59.699219 34.398438 59.699219 35.097656 Z M 55.726562 44.40625 L 55.726562 35.808594 C 55.726562 35.671875 55.671875 35.558594 55.558594 35.46875 C 55.46875 35.378906 55.367188 35.332031 55.253906 35.332031 L 51.988281 35.332031 C 51.878906 35.332031 51.765625 35.378906 51.652344 35.46875 C 51.5625 35.558594 51.519531 35.671875 51.519531 35.808594 L 51.519531 44.40625 C 51.519531 44.519531 51.5625 44.621094 51.652344 44.710938 C 51.765625 44.800781 51.878906 44.84375 51.988281 44.84375 L 55.253906 44.84375 C 55.367188 44.84375 55.46875 44.800781 55.558594 44.710938 C 55.671875 44.621094 55.726562 44.519531 55.726562 44.40625 Z M 74.628906 45.046875 C 74.628906 46.109375 74.257812 47.011719 73.519531 47.757812 C 72.800781 48.476562 71.925781 48.839844 70.890625 48.839844 L 66.917969 48.839844 C 66.804688 48.839844 66.695312 48.882812 66.582031 48.976562 C 66.492188 49.066406 66.445312 49.167969 66.445312 49.28125 L 66.445312 52.699219 C 66.445312 53.125 66.300781 53.488281 66.007812 53.78125 C 65.71875 54.097656 65.359375 54.253906 64.929688 54.253906 L 63.988281 54.253906 C 63.5625 54.253906 63.191406 54.097656 62.878906 53.78125 C 62.585938 53.488281 62.441406 53.125 62.441406 52.699219 L 62.441406 35.097656 C 62.441406 34.398438 62.609375 33.765625 62.945312 33.199219 C 63.304688 32.613281 63.765625 32.152344 64.324219 31.8125 C 64.886719 31.476562 65.515625 31.304688 66.210938 31.304688 L 70.890625 31.304688 C 71.585938 31.304688 72.214844 31.476562 72.777344 31.8125 C 73.339844 32.152344 73.789062 32.613281 74.125 33.199219 C 74.460938 33.765625 74.628906 34.398438 74.628906 35.097656 Z M 70.65625 44.40625 L 70.65625 35.808594 C 70.65625 35.671875 70.601562 35.558594 70.488281 35.46875 C 70.398438 35.378906 70.296875 35.332031 70.183594 35.332031 L 66.917969 35.332031 C 66.804688 35.332031 66.695312 35.378906 66.582031 35.46875 C 66.492188 35.558594 66.445312 35.671875 66.445312 35.808594 L 66.445312 44.40625 C 66.445312 44.519531 66.492188 44.621094 66.582031 44.710938 C 66.695312 44.800781 66.804688 44.84375 66.917969 44.84375 L 70.183594 44.84375 C 70.296875 44.84375 70.398438 44.800781 70.488281 44.710938 C 70.601562 44.621094 70.65625 44.519531 70.65625 44.40625 Z M 82.453125 28.125 C 82.453125 28.824219 82.195312 29.433594 81.679688 29.953125 C 81.183594 30.449219 80.601562 30.695312 79.929688 30.695312 C 79.230469 30.695312 78.625 30.449219 78.109375 29.953125 C 77.617188 29.433594 77.367188 28.824219 77.367188 28.125 C 77.367188 27.445312 77.617188 26.859375 78.109375 26.363281 C 78.625 25.84375 79.230469 25.585938 79.929688 25.585938 C 80.601562 25.585938 81.183594 25.84375 81.679688 26.363281 C 82.195312 26.859375 82.453125 27.445312 82.453125 28.125 Z M 81.914062 47.28125 C 81.914062 47.710938 81.757812 48.082031 81.441406 48.398438 C 81.152344 48.691406 80.792969 48.839844 80.367188 48.839844 L 79.457031 48.839844 C 79.03125 48.839844 78.660156 48.691406 78.34375 48.398438 C 78.054688 48.082031 77.90625 47.710938 77.90625 47.28125 L 77.90625 33.234375 C 77.90625 32.804688 78.054688 32.445312 78.34375 32.152344 C 78.660156 31.835938 79.03125 31.679688 79.457031 31.679688 L 80.367188 31.679688 C 80.792969 31.679688 81.152344 31.835938 81.441406 32.152344 C 81.757812 32.445312 81.914062 32.804688 81.914062 33.234375 Z M 111.128906 45.046875 C 111.128906 46.109375 110.757812 47.011719 110.019531 47.757812 C 109.300781 48.476562 108.425781 48.839844 107.390625 48.839844 L 102.710938 48.839844 C 101.679688 48.839844 100.792969 48.476562 100.050781 47.757812 C 99.3125 47.011719 98.941406 46.109375 98.941406 45.046875 L 98.941406 35.097656 C 98.941406 34.398438 99.109375 33.765625 99.445312 33.199219 C 99.804688 32.613281 100.265625 32.152344 100.824219 31.8125 C 101.386719 31.476562 102.015625 31.304688 102.710938 31.304688 L 106.683594 31.304688 C 107 31.304688 107.15625 31.171875 107.15625 30.898438 L 107.15625 27.515625 C 107.15625 27.0625 107.300781 26.691406 107.59375 26.398438 C 107.886719 26.105469 108.246094 25.957031 108.671875 25.957031 L 109.613281 25.957031 C 110.042969 25.957031 110.398438 26.105469 110.691406 26.398438 C 110.984375 26.691406 111.128906 27.0625 111.128906 27.515625 Z M 107.15625 44.40625 L 107.15625 35.808594 C 107.15625 35.492188 107 35.332031 106.683594 35.332031 L 103.417969 35.332031 C 103.304688 35.332031 103.195312 35.378906 103.082031 35.46875 C 102.992188 35.558594 102.949219 35.671875 102.949219 35.808594 L 102.949219 44.40625 C 102.949219 44.519531 102.992188 44.621094 103.082031 44.710938 C 103.195312 44.800781 103.304688 44.84375 103.417969 44.84375 L 106.683594 44.84375 C 107 44.84375 107.15625 44.699219 107.15625 44.40625 Z M 126.058594 38.785156 C 126.058594 39.464844 125.890625 40.09375 125.554688 40.683594 C 125.21875 41.246094 124.769531 41.707031 124.207031 42.070312 C 123.644531 42.40625 123.015625 42.578125 122.320312 42.578125 L 118.347656 42.578125 C 118.234375 42.578125 118.125 42.621094 118.011719 42.710938 C 117.921875 42.78125 117.875 42.871094 117.875 42.984375 L 117.875 44.40625 C 117.875 44.519531 117.921875 44.621094 118.011719 44.710938 C 118.125 44.800781 118.234375 44.84375 118.347656 44.84375 L 122.320312 44.84375 C 122.746094 44.84375 123.105469 44.992188 123.398438 45.285156 C 123.714844 45.578125 123.871094 45.949219 123.871094 46.402344 L 123.871094 47.28125 C 123.871094 47.710938 123.714844 48.082031 123.398438 48.398438 C 123.105469 48.691406 122.746094 48.839844 122.320312 48.839844 L 117.640625 48.839844 C 116.609375 48.839844 115.722656 48.476562 114.980469 47.757812 C 114.238281 47.011719 113.871094 46.109375 113.871094 45.046875 L 113.871094 35.097656 C 113.871094 34.398438 114.039062 33.765625 114.375 33.199219 C 114.734375 32.636719 115.195312 32.1875 115.753906 31.847656 C 116.316406 31.484375 116.945312 31.304688 117.640625 31.304688 L 122.320312 31.304688 C 123.015625 31.304688 123.644531 31.484375 124.207031 31.847656 C 124.769531 32.1875 125.21875 32.636719 125.554688 33.199219 C 125.890625 33.765625 126.058594 34.398438 126.058594 35.097656 Z M 122.085938 38.109375 L 122.085938 35.808594 C 122.085938 35.671875 122.03125 35.558594 121.917969 35.46875 C 121.828125 35.378906 121.726562 35.332031 121.613281 35.332031 L 118.347656 35.332031 C 118.234375 35.332031 118.125 35.378906 118.011719 35.46875 C 117.921875 35.558594 117.875 35.671875 117.875 35.808594 L 117.875 38.109375 C 117.875 38.199219 117.921875 38.289062 118.011719 38.378906 C 118.125 38.46875 118.234375 38.515625 118.347656 38.515625 L 121.613281 38.515625 C 121.726562 38.515625 121.828125 38.46875 121.917969 38.378906 C 122.03125 38.289062 122.085938 38.199219 122.085938 38.109375 Z M 141.191406 33.300781 L 137.015625 47.722656 C 136.925781 48.039062 136.734375 48.308594 136.441406 48.535156 C 136.171875 48.738281 135.859375 48.839844 135.5 48.839844 L 134.589844 48.839844 C 134.230469 48.839844 133.917969 48.738281 133.648438 48.535156 C 133.378906 48.308594 133.1875 48.039062 133.074219 47.722656 L 128.898438 33.300781 C 128.742188 32.785156 128.808594 32.332031 129.101562 31.949219 C 129.460938 31.519531 129.875 31.304688 130.347656 31.304688 L 131.324219 31.304688 C 131.683594 31.304688 131.996094 31.417969 132.265625 31.644531 C 132.535156 31.847656 132.714844 32.117188 132.804688 32.457031 L 134.894531 39.566406 C 134.914062 39.65625 134.960938 39.699219 135.027344 39.699219 C 135.117188 39.699219 135.171875 39.65625 135.195312 39.566406 L 137.285156 32.457031 C 137.394531 32.117188 137.574219 31.847656 137.824219 31.644531 C 138.09375 31.417969 138.40625 31.304688 138.765625 31.304688 L 139.742188 31.304688 C 140.234375 31.304688 140.640625 31.519531 140.953125 31.949219 C 141.246094 32.355469 141.324219 32.804688 141.191406 33.300781 Z M 141.191406 33.300781 " fill-opacity="1" fill-rule="nonzero"/></g><path fill="#6d9022" d="M 96.140625 32.289062 C 96.386719 32.917969 96.285156 33.484375 95.835938 33.980469 L 90.011719 39.769531 C 89.808594 40.015625 89.808594 40.21875 90.011719 40.378906 L 95.769531 46.199219 C 96.261719 46.695312 96.386719 47.257812 96.140625 47.890625 C 96.027344 48.164062 95.835938 48.386719 95.566406 48.570312 C 95.296875 48.75 95.007812 48.839844 94.691406 48.839844 L 93.414062 48.839844 C 92.964844 48.839844 92.605469 48.679688 92.335938 48.367188 L 85.601562 41.628906 C 85.308594 41.335938 85.164062 40.976562 85.164062 40.546875 L 85.164062 39.597656 C 85.164062 39.214844 85.308594 38.855469 85.601562 38.515625 L 92.335938 31.78125 C 92.605469 31.464844 92.964844 31.304688 93.414062 31.304688 L 94.726562 31.304688 C 95.039062 31.304688 95.320312 31.394531 95.566406 31.578125 C 95.835938 31.757812 96.027344 31.992188 96.140625 32.289062 Z M 155.101562 40.546875 C 155.101562 40.996094 154.957031 41.359375 154.664062 41.628906 L 147.964844 48.367188 C 147.605469 48.679688 147.234375 48.839844 146.851562 48.839844 L 145.539062 48.839844 C 145.246094 48.839844 144.96875 48.75 144.699219 48.570312 C 144.449219 48.386719 144.261719 48.164062 144.125 47.890625 C 143.878906 47.28125 143.992188 46.71875 144.460938 46.199219 L 150.21875 40.378906 C 150.46875 40.21875 150.46875 40.015625 150.21875 39.769531 L 144.460938 33.980469 C 143.96875 33.527344 143.855469 32.964844 144.125 32.289062 C 144.238281 31.992188 144.429688 31.757812 144.699219 31.578125 C 144.96875 31.394531 145.246094 31.304688 145.539062 31.304688 L 146.851562 31.304688 C 147.234375 31.304688 147.605469 31.464844 147.964844 31.78125 L 154.664062 38.515625 C 154.957031 38.808594 155.101562 39.167969 155.101562 39.597656 Z M 155.101562 40.546875 " fill-opacity="1" fill-rule="nonzero"/></svg>