<svg xmlns="http://www.w3.org/2000/svg" xmlns:xlink="http://www.w3.org/1999/xlink" width="220" zoomAndPan="magnify" viewBox="0 0 165 82.499998" height="110" preserveAspectRatio="xMidYMid meet" version="1.0"><defs><clipPath id="d0227754df"><path d="M 0.496094 0 L 164.503906 0 L 164.503906 82.003906 L 0.496094 82.003906 Z M 0.496094 0 " clip-rule="nonzero"/></clipPath><clipPath id="6b311002e5"><path d="M 10.601562 18.777344 L 55 18.777344 L 55 63.507812 L 10.601562 63.507812 Z M 10.601562 18.777344 " clip-rule="nonzero"/></clipPath><clipPath id="b8ed92072a"><path d="M 32.902344 18.777344 C 41.835938 18.773438 49.894531 24.222656 53.3125 32.578125 C 56.734375 40.933594 54.847656 50.554688 48.53125 56.953125 C 42.214844 63.351562 32.714844 65.265625 24.460938 61.804688 C 16.207031 58.34375 10.824219 50.1875 10.824219 41.140625 C 10.824219 28.792969 20.707031 18.78125 32.902344 18.777344 Z M 32.292969 51.46875 L 32.292969 55.898438 L 39.714844 55.898438 C 40.203125 55.886719 40.683594 55.816406 41.152344 55.691406 C 41.648438 55.558594 42.113281 55.320312 42.515625 55 C 42.84375 54.710938 43.101562 54.347656 43.273438 53.945312 C 43.511719 53.355469 43.621094 52.726562 43.601562 52.089844 L 43.601562 42.113281 L 49.097656 42.113281 L 49.097656 37.1875 L 32.585938 37.1875 L 32.585938 42.113281 L 38.109375 42.113281 L 38.109375 49.476562 C 38.105469 49.730469 38.082031 49.984375 38.039062 50.234375 C 37.996094 50.523438 37.859375 50.792969 37.644531 50.992188 C 37.464844 51.195312 37.226562 51.335938 36.964844 51.394531 C 36.71875 51.433594 36.464844 51.453125 36.214844 51.453125 Z M 29.566406 55.898438 L 29.566406 51.46875 L 29.128906 51.46875 C 28.03125 51.484375 26.941406 51.277344 25.921875 50.863281 C 24.859375 50.363281 24.015625 49.484375 23.550781 48.390625 C 23.191406 47.644531 22.9375 46.851562 22.800781 46.03125 C 22.691406 45.441406 22.589844 44.742188 22.507812 43.964844 C 22.421875 43.03125 22.378906 42.097656 22.386719 41.164062 C 22.378906 40.242188 22.421875 39.320312 22.507812 38.402344 C 22.589844 37.617188 22.691406 36.941406 22.800781 36.382812 C 22.886719 35.914062 23.011719 35.453125 23.175781 35.003906 C 23.285156 34.6875 23.421875 34.386719 23.589844 34.097656 C 24.144531 33.0625 25.003906 32.226562 26.050781 31.710938 C 27.300781 31.128906 28.667969 30.847656 30.042969 30.890625 L 42.988281 30.890625 L 42.988281 26.367188 L 28.488281 26.367188 C 26.019531 26.265625 23.574219 26.894531 21.453125 28.179688 C 20.421875 28.828125 19.546875 29.703125 18.890625 30.734375 C 18.265625 31.742188 17.789062 32.835938 17.472656 33.980469 C 17.15625 35.167969 16.945312 36.378906 16.855469 37.601562 C 16.75 38.859375 16.703125 40.085938 16.703125 41.292969 C 16.703125 42.335938 16.703125 43.417969 16.8125 44.542969 C 16.878906 45.660156 17.039062 46.765625 17.289062 47.855469 C 17.539062 48.929688 17.925781 49.972656 18.433594 50.953125 C 18.960938 51.953125 19.675781 52.84375 20.539062 53.566406 C 21.347656 54.214844 22.246094 54.75 23.203125 55.144531 C 24.5 55.671875 25.890625 55.921875 27.289062 55.882812 Z M 29.566406 55.898438 " clip-rule="evenodd"/></clipPath><linearGradient x1="100" gradientTransform="matrix(0.717144, 0, 0, 0.721434, 10.824774, 18.77791)" y1="-0.000000533413" x2="100" gradientUnits="userSpaceOnUse" y2="62" id="05b44847bb"><stop stop-opacity="1" stop-color="rgb(19.198608%, 54.499817%, 87.799072%)" offset="0"/><stop stop-opacity="1" stop-color="rgb(19.143677%, 54.394531%, 87.683105%)" offset="0.015625"/><stop stop-opacity="1" stop-color="rgb(19.035339%, 54.187012%, 87.449646%)" offset="0.03125"/><stop stop-opacity="1" stop-color="rgb(18.925476%, 53.979492%, 87.216187%)" offset="0.046875"/><stop stop-opacity="1" stop-color="rgb(18.815613%, 53.771973%, 86.984253%)" offset="0.0625"/><stop stop-opacity="1" stop-color="rgb(18.707275%, 53.564453%, 86.750793%)" offset="0.078125"/><stop stop-opacity="1" stop-color="rgb(18.597412%, 53.355408%, 86.51886%)" offset="0.09375"/><stop stop-opacity="1" stop-color="rgb(18.487549%, 53.147888%, 86.2854%)" offset="0.109375"/><stop stop-opacity="1" stop-color="rgb(18.379211%, 52.940369%, 86.053467%)" offset="0.125"/><stop stop-opacity="1" stop-color="rgb(18.269348%, 52.732849%, 85.820007%)" offset="0.140625"/><stop stop-opacity="1" stop-color="rgb(18.159485%, 52.52533%, 85.586548%)" offset="0.15625"/><stop stop-opacity="1" stop-color="rgb(18.051147%, 52.31781%, 85.354614%)" offset="0.171875"/><stop stop-opacity="1" stop-color="rgb(17.941284%, 52.108765%, 85.121155%)" offset="0.1875"/><stop stop-opacity="1" stop-color="rgb(17.831421%, 51.901245%, 84.889221%)" offset="0.203125"/><stop stop-opacity="1" stop-color="rgb(17.723083%, 51.693726%, 84.655762%)" offset="0.21875"/><stop stop-opacity="1" stop-color="rgb(17.61322%, 51.486206%, 84.422302%)" offset="0.234375"/><stop stop-opacity="1" stop-color="rgb(17.503357%, 51.278687%, 84.190369%)" offset="0.25"/><stop stop-opacity="1" stop-color="rgb(17.39502%, 51.069641%, 83.956909%)" offset="0.265625"/><stop stop-opacity="1" stop-color="rgb(17.285156%, 50.862122%, 83.724976%)" offset="0.28125"/><stop stop-opacity="1" stop-color="rgb(17.175293%, 50.654602%, 83.491516%)" offset="0.296875"/><stop stop-opacity="1" stop-color="rgb(17.06543%, 50.447083%, 83.259583%)" offset="0.3125"/><stop stop-opacity="1" stop-color="rgb(16.957092%, 50.239563%, 83.026123%)" offset="0.328125"/><stop stop-opacity="1" stop-color="rgb(16.847229%, 50.030518%, 82.792664%)" offset="0.34375"/><stop stop-opacity="1" stop-color="rgb(16.737366%, 49.822998%, 82.56073%)" offset="0.359375"/><stop stop-opacity="1" stop-color="rgb(16.629028%, 49.615479%, 82.327271%)" offset="0.375"/><stop stop-opacity="1" stop-color="rgb(16.519165%, 49.407959%, 82.095337%)" offset="0.390625"/><stop stop-opacity="1" stop-color="rgb(16.409302%, 49.200439%, 81.861877%)" offset="0.40625"/><stop stop-opacity="1" stop-color="rgb(16.300964%, 48.991394%, 81.629944%)" offset="0.421875"/><stop stop-opacity="1" stop-color="rgb(16.191101%, 48.783875%, 81.396484%)" offset="0.4375"/><stop stop-opacity="1" stop-color="rgb(16.081238%, 48.576355%, 81.163025%)" offset="0.453125"/><stop stop-opacity="1" stop-color="rgb(15.9729%, 48.368835%, 80.931091%)" offset="0.46875"/><stop stop-opacity="1" stop-color="rgb(15.863037%, 48.161316%, 80.697632%)" offset="0.484375"/><stop stop-opacity="1" stop-color="rgb(15.753174%, 47.952271%, 80.465698%)" offset="0.5"/><stop stop-opacity="1" stop-color="rgb(15.644836%, 47.744751%, 80.232239%)" offset="0.515625"/><stop stop-opacity="1" stop-color="rgb(15.534973%, 47.537231%, 80.000305%)" offset="0.53125"/><stop stop-opacity="1" stop-color="rgb(15.42511%, 47.329712%, 79.766846%)" offset="0.546875"/><stop stop-opacity="1" stop-color="rgb(15.316772%, 47.122192%, 79.533386%)" offset="0.5625"/><stop stop-opacity="1" stop-color="rgb(15.206909%, 46.914673%, 79.301453%)" offset="0.578125"/><stop stop-opacity="1" stop-color="rgb(15.097046%, 46.705627%, 79.067993%)" offset="0.59375"/><stop stop-opacity="1" stop-color="rgb(14.988708%, 46.498108%, 78.83606%)" offset="0.609375"/><stop stop-opacity="1" stop-color="rgb(14.878845%, 46.290588%, 78.6026%)" offset="0.625"/><stop stop-opacity="1" stop-color="rgb(14.768982%, 46.083069%, 78.369141%)" offset="0.640625"/><stop stop-opacity="1" stop-color="rgb(14.660645%, 45.875549%, 78.137207%)" offset="0.65625"/><stop stop-opacity="1" stop-color="rgb(14.550781%, 45.666504%, 77.903748%)" offset="0.671875"/><stop stop-opacity="1" stop-color="rgb(14.440918%, 45.458984%, 77.671814%)" offset="0.6875"/><stop stop-opacity="1" stop-color="rgb(14.331055%, 45.251465%, 77.438354%)" offset="0.703125"/><stop stop-opacity="1" stop-color="rgb(14.222717%, 45.043945%, 77.206421%)" offset="0.71875"/><stop stop-opacity="1" stop-color="rgb(14.112854%, 44.836426%, 76.972961%)" offset="0.734375"/><stop stop-opacity="1" stop-color="rgb(14.002991%, 44.62738%, 76.739502%)" offset="0.75"/><stop stop-opacity="1" stop-color="rgb(13.894653%, 44.419861%, 76.507568%)" offset="0.765625"/><stop stop-opacity="1" stop-color="rgb(13.78479%, 44.212341%, 76.274109%)" offset="0.78125"/><stop stop-opacity="1" stop-color="rgb(13.674927%, 44.004822%, 76.042175%)" offset="0.796875"/><stop stop-opacity="1" stop-color="rgb(13.566589%, 43.797302%, 75.808716%)" offset="0.8125"/><stop stop-opacity="1" stop-color="rgb(13.456726%, 43.588257%, 75.576782%)" offset="0.828125"/><stop stop-opacity="1" stop-color="rgb(13.346863%, 43.380737%, 75.343323%)" offset="0.84375"/><stop stop-opacity="1" stop-color="rgb(13.238525%, 43.173218%, 75.109863%)" offset="0.859375"/><stop stop-opacity="1" stop-color="rgb(13.128662%, 42.965698%, 74.87793%)" offset="0.875"/><stop stop-opacity="1" stop-color="rgb(13.018799%, 42.758179%, 74.64447%)" offset="0.890625"/><stop stop-opacity="1" stop-color="rgb(12.910461%, 42.549133%, 74.412537%)" offset="0.90625"/><stop stop-opacity="1" stop-color="rgb(12.800598%, 42.341614%, 74.179077%)" offset="0.921875"/><stop stop-opacity="1" stop-color="rgb(12.690735%, 42.134094%, 73.947144%)" offset="0.9375"/><stop stop-opacity="1" stop-color="rgb(12.582397%, 41.926575%, 73.713684%)" offset="0.953125"/><stop stop-opacity="1" stop-color="rgb(12.472534%, 41.719055%, 73.480225%)" offset="0.96875"/><stop stop-opacity="1" stop-color="rgb(12.362671%, 41.511536%, 73.248291%)" offset="0.984375"/><stop stop-opacity="1" stop-color="rgb(12.254333%, 41.30249%, 73.014832%)" offset="1"/></linearGradient><clipPath id="0e65134c08"><path d="M 60 30 L 154.476562 30 L 154.476562 46 L 60 46 Z M 60 30 " clip-rule="nonzero"/></clipPath><clipPath id="60ee86da6d"><path d="M 151.230469 33.65625 C 151.171875 33.753906 151.128906 33.855469 151.09375 33.960938 L 147.453125 43.75 C 147.34375 44.023438 147.242188 44.277344 147.140625 44.488281 C 147.050781 44.695312 146.921875 44.882812 146.769531 45.046875 C 146.617188 45.207031 146.429688 45.324219 146.226562 45.390625 C 145.972656 45.476562 145.707031 45.511719 145.441406 45.503906 C 145.160156 45.515625 144.875 45.464844 144.609375 45.355469 C 144.402344 45.273438 144.214844 45.140625 144.0625 44.96875 C 143.910156 44.808594 143.789062 44.621094 143.695312 44.417969 C 143.597656 44.191406 143.511719 43.953125 143.4375 43.714844 L 139.835938 33.945312 C 139.800781 33.839844 139.753906 33.738281 139.695312 33.644531 L 139.6875 33.628906 C 139.632812 33.519531 139.605469 33.460938 139.5 33.460938 C 139.390625 33.460938 139.308594 33.539062 139.308594 33.664062 L 139.308594 33.90625 L 139.371094 45.300781 L 136.71875 45.300781 L 136.71875 32.417969 C 136.695312 32.027344 136.800781 31.636719 137.023438 31.316406 C 137.203125 31.074219 137.433594 30.875 137.699219 30.738281 C 137.933594 30.621094 138.191406 30.546875 138.449219 30.523438 L 138.984375 30.523438 C 139.328125 30.511719 139.671875 30.5625 140 30.667969 C 140.25 30.75 140.480469 30.886719 140.675781 31.070312 C 140.859375 31.25 141.011719 31.457031 141.128906 31.683594 C 141.253906 31.910156 141.363281 32.148438 141.457031 32.390625 L 145.089844 42.15625 C 145.148438 42.289062 145.210938 42.417969 145.28125 42.546875 C 145.339844 42.652344 145.402344 42.699219 145.46875 42.699219 C 145.539062 42.699219 145.605469 42.652344 145.664062 42.546875 C 145.734375 42.417969 145.800781 42.289062 145.855469 42.15625 L 149.488281 32.390625 C 149.609375 32.035156 149.773438 31.699219 149.984375 31.394531 C 150.144531 31.171875 150.347656 30.980469 150.574219 30.832031 C 150.78125 30.703125 151.011719 30.613281 151.25 30.570312 C 151.488281 30.527344 151.730469 30.507812 151.972656 30.507812 C 152.550781 30.484375 153.117188 30.644531 153.605469 30.964844 C 154.046875 31.304688 154.292969 31.859375 154.25 32.429688 L 154.25 45.316406 L 151.59375 45.316406 L 151.675781 33.917969 C 151.675781 33.722656 151.644531 33.601562 151.582031 33.550781 C 151.542969 33.511719 151.488281 33.484375 151.433594 33.476562 C 151.367188 33.476562 151.296875 33.539062 151.230469 33.65625 Z M 93.066406 30.507812 L 94.417969 30.507812 C 94.917969 30.523438 95.417969 30.578125 95.90625 30.667969 C 96.414062 30.769531 96.90625 30.925781 97.375 31.132812 C 97.859375 31.34375 98.296875 31.648438 98.667969 32.03125 C 99.03125 32.398438 99.328125 32.832031 99.535156 33.3125 C 99.75 33.800781 99.914062 34.308594 100.023438 34.835938 C 100.140625 35.363281 100.210938 35.90625 100.242188 36.449219 L 100.242188 37.96875 C 100.242188 38.441406 100.242188 38.972656 100.191406 39.515625 C 100.160156 40.050781 100.089844 40.585938 99.984375 41.113281 C 99.875 41.636719 99.714844 42.148438 99.503906 42.636719 C 99.292969 43.117188 99 43.550781 98.636719 43.917969 C 98.261719 44.296875 97.824219 44.601562 97.34375 44.8125 C 96.871094 45.023438 96.378906 45.175781 95.875 45.273438 C 95.382812 45.371094 94.878906 45.425781 94.378906 45.441406 L 91.671875 45.441406 C 91.171875 45.425781 90.675781 45.371094 90.1875 45.273438 C 89.683594 45.179688 89.191406 45.023438 88.71875 44.8125 C 88.238281 44.601562 87.800781 44.296875 87.425781 43.917969 C 87.027344 43.519531 86.710938 43.039062 86.492188 42.507812 C 86.273438 42 86.109375 41.46875 86.003906 40.921875 C 85.90625 40.402344 85.847656 39.875 85.828125 39.34375 L 85.828125 37.933594 C 85.828125 37.503906 85.828125 36.921875 85.871094 36.378906 C 85.898438 35.84375 85.964844 35.3125 86.074219 34.792969 C 86.179688 34.273438 86.339844 33.765625 86.554688 33.285156 C 86.773438 32.796875 87.082031 32.359375 87.460938 31.992188 C 87.832031 31.632812 88.261719 31.347656 88.734375 31.148438 C 89.199219 30.9375 89.6875 30.785156 90.1875 30.683594 C 90.675781 30.589844 91.167969 30.539062 91.664062 30.519531 L 93.019531 30.519531 Z M 73.007812 38.132812 L 73.03125 38.132812 L 73.007812 38.046875 Z M 73.007812 43.339844 L 73.007812 38.132812 L 66.539062 38.132812 L 66.539062 40.710938 L 70.375 40.710938 L 70.375 42.121094 C 70.386719 42.25 70.386719 42.375 70.375 42.503906 C 70.351562 42.644531 70.285156 42.773438 70.1875 42.875 C 70.09375 42.980469 69.972656 43.046875 69.839844 43.074219 C 69.722656 43.085938 69.601562 43.085938 69.484375 43.074219 L 66.042969 43.074219 C 65.515625 43.078125 64.992188 42.976562 64.5 42.769531 C 63.988281 42.523438 63.578125 42.085938 63.355469 41.542969 C 63.289062 41.398438 63.226562 41.246094 63.175781 41.09375 C 63.09375 40.863281 63.035156 40.628906 62.992188 40.386719 C 62.9375 40.09375 62.890625 39.746094 62.847656 39.351562 C 62.804688 38.882812 62.785156 38.414062 62.789062 37.941406 C 62.785156 37.472656 62.804688 37 62.847656 36.535156 C 62.890625 36.140625 62.9375 35.828125 62.992188 35.527344 C 63.03125 35.285156 63.09375 35.050781 63.175781 34.820312 C 63.226562 34.664062 63.292969 34.515625 63.371094 34.371094 C 63.640625 33.855469 64.054688 33.441406 64.5625 33.1875 C 65.167969 32.898438 65.824219 32.757812 66.492188 32.777344 L 72.738281 32.777344 L 72.738281 30.585938 L 65.71875 30.585938 C 64.53125 30.535156 63.355469 30.847656 62.335938 31.480469 C 61.839844 31.804688 61.417969 32.238281 61.101562 32.75 C 60.796875 33.246094 60.570312 33.785156 60.425781 34.355469 C 60.269531 34.945312 60.167969 35.550781 60.121094 36.160156 C 60.074219 36.78125 60.054688 37.386719 60.054688 37.984375 C 60.054688 38.585938 60.054688 39.042969 60.101562 39.597656 C 60.132812 40.152344 60.210938 40.703125 60.332031 41.242188 C 60.453125 41.777344 60.636719 42.292969 60.886719 42.777344 C 61.140625 43.273438 61.484375 43.714844 61.902344 44.074219 C 62.292969 44.398438 62.722656 44.664062 63.1875 44.855469 C 63.820312 45.121094 64.496094 45.246094 65.175781 45.222656 L 71.132812 45.222656 C 71.363281 45.214844 71.589844 45.183594 71.8125 45.125 C 72.058594 45.0625 72.289062 44.945312 72.488281 44.785156 C 72.648438 44.644531 72.773438 44.464844 72.851562 44.265625 C 72.964844 43.972656 73.019531 43.65625 73.007812 43.339844 Z M 86.257812 43.128906 L 86.257812 45.308594 L 76.828125 45.320312 C 76.601562 45.316406 76.375 45.292969 76.148438 45.246094 C 75.929688 45.195312 75.722656 45.09375 75.546875 44.949219 C 75.421875 44.816406 75.308594 44.671875 75.214844 44.511719 C 75.097656 44.273438 75.039062 44.003906 75.046875 43.738281 L 75.046875 30.683594 L 77.699219 30.683594 L 77.699219 42.636719 C 77.714844 42.765625 77.777344 42.882812 77.875 42.960938 C 77.9375 43.003906 78.003906 43.039062 78.074219 43.066406 C 78.222656 43.117188 78.382812 43.140625 78.539062 43.128906 Z M 88.632812 39.558594 C 88.582031 39.035156 88.558594 38.515625 88.5625 37.992188 L 88.582031 37.992188 C 88.558594 37.113281 88.636719 36.230469 88.8125 35.371094 C 88.929688 34.839844 89.144531 34.339844 89.449219 33.898438 C 89.835938 33.378906 90.394531 33.023438 91.015625 32.902344 C 91.683594 32.765625 92.363281 32.695312 93.042969 32.699219 C 93.726562 32.699219 94.40625 32.765625 95.074219 32.902344 C 95.703125 33.019531 96.265625 33.375 96.660156 33.898438 C 96.785156 34.058594 96.894531 34.234375 96.984375 34.417969 C 97.101562 34.675781 97.195312 34.941406 97.261719 35.214844 C 97.351562 35.59375 97.414062 35.980469 97.453125 36.371094 C 97.503906 36.910156 97.527344 37.449219 97.527344 37.992188 C 97.527344 38.511719 97.503906 39.027344 97.453125 39.542969 C 97.414062 39.929688 97.351562 40.3125 97.261719 40.691406 C 97.195312 40.972656 97.105469 41.246094 96.992188 41.507812 C 96.90625 41.710938 96.792969 41.902344 96.660156 42.074219 C 96.460938 42.339844 96.214844 42.5625 95.933594 42.734375 C 95.664062 42.898438 95.367188 43.023438 95.0625 43.101562 C 94.742188 43.1875 94.410156 43.238281 94.082031 43.257812 L 91.957031 43.257812 C 91.625 43.238281 91.292969 43.1875 90.972656 43.101562 C 90.671875 43.019531 90.378906 42.894531 90.105469 42.734375 C 89.839844 42.566406 89.609375 42.339844 89.429688 42.074219 C 89.296875 41.90625 89.183594 41.722656 89.097656 41.523438 C 88.980469 41.261719 88.886719 40.988281 88.820312 40.707031 C 88.734375 40.328125 88.671875 39.941406 88.632812 39.558594 Z M 102.285156 45.316406 L 104.9375 45.316406 L 104.9375 33.917969 C 104.925781 33.777344 104.925781 33.632812 104.9375 33.488281 C 104.972656 33.332031 105.0625 33.195312 105.1875 33.101562 C 105.273438 33.003906 105.382812 32.933594 105.507812 32.902344 C 105.632812 32.890625 105.765625 32.890625 105.890625 32.902344 L 110.191406 32.902344 C 110.441406 32.90625 110.6875 32.925781 110.933594 32.960938 C 111.21875 32.996094 111.476562 33.132812 111.671875 33.347656 C 111.847656 33.546875 111.976562 33.789062 112.039062 34.050781 C 112.148438 34.488281 112.195312 34.9375 112.179688 35.382812 L 112.179688 35.851562 C 112.179688 36.03125 112.179688 36.214844 112.140625 36.398438 C 112.121094 36.585938 112.085938 36.773438 112.039062 36.957031 C 112.003906 37.109375 111.949219 37.257812 111.871094 37.394531 C 111.71875 37.660156 111.476562 37.855469 111.191406 37.941406 C 110.945312 38.007812 110.691406 38.039062 110.433594 38.042969 L 107.789062 38.042969 C 107.46875 38.019531 107.152344 38.121094 106.902344 38.332031 C 106.707031 38.507812 106.597656 38.765625 106.601562 39.035156 L 106.601562 39.367188 C 106.609375 39.605469 106.683594 39.835938 106.820312 40.027344 C 106.949219 40.234375 107.097656 40.429688 107.261719 40.605469 L 111.882812 45.351562 L 115.21875 45.351562 L 109.875 40.183594 L 109.875 40.078125 L 111.6875 40.078125 C 112.039062 40.085938 112.390625 40.039062 112.730469 39.945312 C 112.996094 39.867188 113.246094 39.746094 113.480469 39.59375 C 113.675781 39.457031 113.847656 39.292969 113.996094 39.105469 C 114.125 38.941406 114.238281 38.765625 114.332031 38.578125 C 114.605469 38.0625 114.78125 37.496094 114.847656 36.914062 C 114.90625 36.367188 114.9375 35.820312 114.933594 35.273438 C 114.933594 34.726562 114.902344 34.179688 114.839844 33.636719 C 114.765625 33.0625 114.558594 32.519531 114.230469 32.050781 C 114.058594 31.753906 113.828125 31.496094 113.554688 31.296875 C 113.320312 31.121094 113.058594 30.984375 112.785156 30.894531 C 112.519531 30.8125 112.25 30.761719 111.976562 30.738281 L 104.546875 30.738281 C 104.257812 30.738281 103.972656 30.773438 103.691406 30.839844 C 103.375 30.917969 103.085938 31.085938 102.855469 31.324219 C 102.589844 31.570312 102.414062 31.894531 102.351562 32.253906 C 102.300781 32.578125 102.273438 32.902344 102.269531 33.226562 L 102.269531 45.378906 Z M 119.6875 30.675781 L 119.6875 45.316406 L 117.035156 45.316406 L 117.035156 30.675781 Z M 128.210938 43.285156 L 127.53125 43.285156 C 127.28125 43.261719 127.03125 43.21875 126.789062 43.15625 C 126.535156 43.09375 126.292969 43 126.0625 42.875 C 125.828125 42.746094 125.613281 42.578125 125.433594 42.375 C 125.113281 42.03125 124.90625 41.59375 124.839844 41.121094 C 124.78125 40.691406 124.75 40.257812 124.75 39.824219 L 124.75 30.703125 L 122.097656 30.703125 L 122.097656 40.199219 C 122.101562 40.84375 122.171875 41.484375 122.308594 42.113281 C 122.476562 42.8125 122.828125 43.445312 123.324219 43.945312 C 123.660156 44.3125 124.058594 44.609375 124.5 44.820312 C 124.921875 45.027344 125.359375 45.183594 125.8125 45.292969 C 126.234375 45.394531 126.664062 45.460938 127.097656 45.484375 L 129.3125 45.484375 C 129.746094 45.460938 130.175781 45.394531 130.597656 45.292969 C 131.050781 45.183594 131.492188 45.027344 131.914062 44.820312 C 132.355469 44.609375 132.753906 44.3125 133.089844 43.945312 C 133.582031 43.445312 133.933594 42.8125 134.105469 42.113281 C 134.242188 41.484375 134.3125 40.84375 134.316406 40.199219 L 134.316406 30.703125 L 131.660156 30.703125 L 131.660156 40.429688 C 131.65625 40.667969 131.628906 40.902344 131.582031 41.136719 C 131.53125 41.375 131.464844 41.613281 131.375 41.839844 C 131.289062 42.0625 131.164062 42.269531 131.003906 42.445312 C 130.8125 42.65625 130.582031 42.824219 130.328125 42.945312 C 130.09375 43.070312 129.84375 43.167969 129.582031 43.226562 C 129.335938 43.292969 129.085938 43.332031 128.832031 43.355469 L 128.15625 43.355469 Z M 128.210938 43.285156 " clip-rule="evenodd"/></clipPath><linearGradient x1="100" gradientTransform="matrix(0.717144, 0, 0, 0.721434, 10.824774, 18.77791)" y1="16.2282" x2="100" gradientUnits="userSpaceOnUse" y2="37.059398" id="d9d8e47b32"><stop stop-opacity="1" stop-color="rgb(17.367554%, 51.017761%, 83.898926%)" offset="0"/><stop stop-opacity="1" stop-color="rgb(17.292786%, 50.87738%, 83.74176%)" offset="0.0625"/><stop stop-opacity="1" stop-color="rgb(17.146301%, 50.598145%, 83.428955%)" offset="0.125"/><stop stop-opacity="1" stop-color="rgb(16.999817%, 50.318909%, 83.11615%)" offset="0.1875"/><stop stop-opacity="1" stop-color="rgb(16.851807%, 50.039673%, 82.803345%)" offset="0.25"/><stop stop-opacity="1" stop-color="rgb(16.705322%, 49.760437%, 82.49054%)" offset="0.3125"/><stop stop-opacity="1" stop-color="rgb(16.558838%, 49.481201%, 82.177734%)" offset="0.375"/><stop stop-opacity="1" stop-color="rgb(16.410828%, 49.201965%, 81.864929%)" offset="0.4375"/><stop stop-opacity="1" stop-color="rgb(16.264343%, 48.922729%, 81.552124%)" offset="0.5"/><stop stop-opacity="1" stop-color="rgb(16.117859%, 48.643494%, 81.239319%)" offset="0.5625"/><stop stop-opacity="1" stop-color="rgb(15.969849%, 48.364258%, 80.926514%)" offset="0.625"/><stop stop-opacity="1" stop-color="rgb(15.823364%, 48.085022%, 80.613708%)" offset="0.6875"/><stop stop-opacity="1" stop-color="rgb(15.67688%, 47.805786%, 80.300903%)" offset="0.75"/><stop stop-opacity="1" stop-color="rgb(15.52887%, 47.52655%, 79.988098%)" offset="0.8125"/><stop stop-opacity="1" stop-color="rgb(15.382385%, 47.247314%, 79.673767%)" offset="0.875"/><stop stop-opacity="1" stop-color="rgb(15.235901%, 46.968079%, 79.360962%)" offset="0.9375"/><stop stop-opacity="1" stop-color="rgb(15.087891%, 46.688843%, 79.048157%)" offset="1"/></linearGradient><clipPath id="ee86308047"><path d="M 60.585938 49.050781 L 66.707031 49.050781 L 66.707031 50.074219 L 60.585938 50.074219 Z M 63.046875 50.074219 L 64.234375 50.074219 L 64.234375 55.871094 L 63.046875 55.871094 Z M 63.046875 50.074219 " clip-rule="nonzero"/></clipPath><linearGradient x1="100" gradientTransform="matrix(0.717144, 0, 0, 0.721434, 10.824774, 18.77791)" y1="41.963401" x2="100" gradientUnits="userSpaceOnUse" y2="51.414599" id="d05b680ef9"><stop stop-opacity="1" stop-color="rgb(14.460754%, 45.497131%, 77.714539%)" offset="0"/><stop stop-opacity="1" stop-color="rgb(14.393616%, 45.370483%, 77.572632%)" offset="0.125"/><stop stop-opacity="1" stop-color="rgb(14.260864%, 45.117188%, 77.288818%)" offset="0.25"/><stop stop-opacity="1" stop-color="rgb(14.128113%, 44.863892%, 77.005005%)" offset="0.375"/><stop stop-opacity="1" stop-color="rgb(13.993835%, 44.610596%, 76.721191%)" offset="0.5"/><stop stop-opacity="1" stop-color="rgb(13.861084%, 44.3573%, 76.437378%)" offset="0.625"/><stop stop-opacity="1" stop-color="rgb(13.726807%, 44.104004%, 76.153564%)" offset="0.75"/><stop stop-opacity="1" stop-color="rgb(13.594055%, 43.850708%, 75.868225%)" offset="0.875"/><stop stop-opacity="1" stop-color="rgb(13.461304%, 43.595886%, 75.584412%)" offset="1"/></linearGradient><clipPath id="07850be618"><path d="M 69 49 L 75 49 L 75 56 L 69 56 Z M 69 49 " clip-rule="nonzero"/></clipPath><clipPath id="4eb7aff17c"><path d="M 70.375 55.859375 C 70.105469 55.898438 69.828125 55.820312 69.617188 55.644531 C 69.429688 55.425781 69.34375 55.136719 69.371094 54.847656 L 69.371094 50.035156 C 69.363281 49.777344 69.445312 49.523438 69.601562 49.320312 C 69.820312 49.121094 70.109375 49.027344 70.398438 49.058594 L 74.648438 49.058594 L 74.648438 50.078125 L 71.066406 50.078125 C 70.945312 50.066406 70.824219 50.101562 70.722656 50.171875 C 70.644531 50.261719 70.605469 50.386719 70.621094 50.507812 L 70.621094 51.871094 L 74.558594 51.871094 L 74.558594 52.890625 L 70.621094 52.890625 L 70.621094 54.484375 C 70.617188 54.582031 70.652344 54.675781 70.71875 54.746094 C 70.792969 54.824219 70.949219 54.832031 71.140625 54.832031 L 74.6875 54.832031 L 74.6875 55.851562 Z M 70.375 55.859375 " clip-rule="nonzero"/></clipPath><linearGradient x1="100" gradientTransform="matrix(0.717144, 0, 0, 0.721434, 10.824774, 18.77791)" y1="41.927001" x2="100" gradientUnits="userSpaceOnUse" y2="51.455298" id="10ff48561d"><stop stop-opacity="1" stop-color="rgb(14.465332%, 45.504761%, 77.723694%)" offset="0"/><stop stop-opacity="1" stop-color="rgb(14.398193%, 45.376587%, 77.580261%)" offset="0.125"/><stop stop-opacity="1" stop-color="rgb(14.263916%, 45.121765%, 77.293396%)" offset="0.25"/><stop stop-opacity="1" stop-color="rgb(14.129639%, 44.865417%, 77.008057%)" offset="0.375"/><stop stop-opacity="1" stop-color="rgb(13.995361%, 44.610596%, 76.721191%)" offset="0.5"/><stop stop-opacity="1" stop-color="rgb(13.861084%, 44.355774%, 76.434326%)" offset="0.625"/><stop stop-opacity="1" stop-color="rgb(13.725281%, 44.099426%, 76.148987%)" offset="0.75"/><stop stop-opacity="1" stop-color="rgb(13.591003%, 43.844604%, 75.862122%)" offset="0.875"/><stop stop-opacity="1" stop-color="rgb(13.456726%, 43.588257%, 75.576782%)" offset="1"/></linearGradient><clipPath id="c5216dbbdf"><path d="M 76 49 L 83 49 L 83 56 L 76 56 Z M 76 49 " clip-rule="nonzero"/></clipPath><clipPath id="4a11f8647e"><path d="M 79.492188 55.863281 C 78.75 55.921875 78.023438 55.628906 77.5 55.0625 C 77.003906 54.339844 76.765625 53.449219 76.835938 52.554688 C 76.75 51.625 76.964844 50.691406 77.445312 49.914062 C 77.988281 49.316406 78.746094 49.003906 79.519531 49.058594 L 82.054688 49.058594 L 82.054688 50.078125 L 80.0625 50.078125 C 79.359375 50.078125 78.734375 50.128906 78.402344 50.707031 C 78.117188 51.265625 77.996094 51.90625 78.050781 52.539062 C 78 53.109375 78.105469 53.683594 78.351562 54.191406 C 78.675781 54.726562 79.253906 54.839844 80.003906 54.839844 L 82.140625 54.839844 L 82.140625 55.863281 Z M 79.492188 55.863281 " clip-rule="nonzero"/></clipPath><linearGradient x1="100" gradientTransform="matrix(0.717144, 0, 0, 0.721434, 10.824774, 18.77791)" y1="41.897498" x2="100" gradientUnits="userSpaceOnUse" y2="51.486098" id="8aa70e6ce6"><stop stop-opacity="1" stop-color="rgb(14.468384%, 45.510864%, 77.729797%)" offset="0"/><stop stop-opacity="1" stop-color="rgb(14.401245%, 45.38269%, 77.586365%)" offset="0.125"/><stop stop-opacity="1" stop-color="rgb(14.265442%, 45.124817%, 77.297974%)" offset="0.25"/><stop stop-opacity="1" stop-color="rgb(14.129639%, 44.868469%, 77.009583%)" offset="0.375"/><stop stop-opacity="1" stop-color="rgb(13.995361%, 44.610596%, 76.721191%)" offset="0.5"/><stop stop-opacity="1" stop-color="rgb(13.859558%, 44.354248%, 76.4328%)" offset="0.625"/><stop stop-opacity="1" stop-color="rgb(13.723755%, 44.096375%, 76.145935%)" offset="0.75"/><stop stop-opacity="1" stop-color="rgb(13.589478%, 43.840027%, 75.857544%)" offset="0.875"/><stop stop-opacity="1" stop-color="rgb(13.453674%, 43.582153%, 75.569153%)" offset="1"/></linearGradient><clipPath id="749c4556cf"><path d="M 89.484375 49.050781 L 90.65625 49.050781 L 90.65625 51.84375 L 89.484375 51.84375 Z M 85.066406 49.050781 L 86.246094 49.050781 L 86.246094 51.84375 L 85.066406 51.84375 Z M 85.066406 51.84375 L 90.65625 51.84375 L 90.65625 52.871094 L 85.066406 52.871094 Z M 85.066406 52.871094 L 86.246094 52.871094 L 86.246094 55.871094 L 85.066406 55.871094 Z M 89.484375 52.871094 L 90.65625 52.871094 L 90.65625 55.871094 L 89.484375 55.871094 Z M 89.484375 52.871094 " clip-rule="nonzero"/></clipPath><linearGradient x1="100" gradientTransform="matrix(0.717144, 0, 0, 0.721434, 10.824774, 18.77791)" y1="41.963401" x2="100" gradientUnits="userSpaceOnUse" y2="51.414599" id="f65544df0d"><stop stop-opacity="1" stop-color="rgb(14.460754%, 45.497131%, 77.714539%)" offset="0"/><stop stop-opacity="1" stop-color="rgb(14.393616%, 45.370483%, 77.572632%)" offset="0.125"/><stop stop-opacity="1" stop-color="rgb(14.260864%, 45.117188%, 77.288818%)" offset="0.25"/><stop stop-opacity="1" stop-color="rgb(14.128113%, 44.863892%, 77.005005%)" offset="0.375"/><stop stop-opacity="1" stop-color="rgb(13.993835%, 44.610596%, 76.721191%)" offset="0.5"/><stop stop-opacity="1" stop-color="rgb(13.861084%, 44.3573%, 76.437378%)" offset="0.625"/><stop stop-opacity="1" stop-color="rgb(13.726807%, 44.104004%, 76.153564%)" offset="0.75"/><stop stop-opacity="1" stop-color="rgb(13.594055%, 43.850708%, 75.868225%)" offset="0.875"/><stop stop-opacity="1" stop-color="rgb(13.461304%, 43.595886%, 75.584412%)" offset="1"/></linearGradient><clipPath id="886dbc9a2b"><path d="M 93 49 L 100 49 L 100 56 L 93 56 Z M 93 49 " clip-rule="nonzero"/></clipPath><clipPath id="4fcce28acc"><path d="M 99.964844 54.917969 C 99.988281 55.183594 99.890625 55.441406 99.707031 55.625 C 99.523438 55.808594 99.269531 55.894531 99.019531 55.863281 C 98.597656 55.894531 98.195312 55.675781 97.984375 55.296875 L 95.292969 50.867188 C 95.207031 50.722656 95.164062 50.707031 95.144531 50.707031 C 95.0625 50.726562 95.007812 50.808594 95.019531 50.898438 L 95.019531 55.792969 L 93.847656 55.792969 L 93.847656 49.960938 C 93.847656 49.390625 94.226562 49.058594 94.832031 49.058594 C 95.238281 49.015625 95.628906 49.21875 95.84375 49.582031 L 98.535156 54.042969 C 98.582031 54.109375 98.601562 54.207031 98.683594 54.207031 C 98.761719 54.207031 98.78125 54.085938 98.78125 54.042969 L 98.78125 49.148438 L 99.953125 49.148438 Z M 99.964844 54.917969 " clip-rule="nonzero"/></clipPath><linearGradient x1="100" gradientTransform="matrix(0.717144, 0, 0, 0.721434, 10.824774, 18.77791)" y1="41.915" x2="100" gradientUnits="userSpaceOnUse" y2="51.450999" id="d6d5da2d08"><stop stop-opacity="1" stop-color="rgb(14.466858%, 45.507812%, 77.726746%)" offset="0"/><stop stop-opacity="1" stop-color="rgb(14.399719%, 45.379639%, 77.583313%)" offset="0.125"/><stop stop-opacity="1" stop-color="rgb(14.265442%, 45.123291%, 77.296448%)" offset="0.25"/><stop stop-opacity="1" stop-color="rgb(14.129639%, 44.868469%, 77.009583%)" offset="0.375"/><stop stop-opacity="1" stop-color="rgb(13.995361%, 44.612122%, 76.722717%)" offset="0.5"/><stop stop-opacity="1" stop-color="rgb(13.861084%, 44.3573%, 76.437378%)" offset="0.625"/><stop stop-opacity="1" stop-color="rgb(13.726807%, 44.100952%, 76.150513%)" offset="0.75"/><stop stop-opacity="1" stop-color="rgb(13.592529%, 43.84613%, 75.863647%)" offset="0.875"/><stop stop-opacity="1" stop-color="rgb(13.456726%, 43.589783%, 75.576782%)" offset="1"/></linearGradient><clipPath id="4a6d4a6fa7"><path d="M 102 49 L 110 49 L 110 56 L 102 56 Z M 102 49 " clip-rule="nonzero"/></clipPath><clipPath id="c3323d97cd"><path d="M 109.546875 52.460938 C 109.546875 51.585938 109.488281 50.453125 108.808594 49.753906 C 108.097656 49.050781 107.039062 49.050781 106.25 49.050781 C 106.246094 49.050781 106.238281 49.050781 106.230469 49.050781 C 105.441406 49.050781 104.34375 49.066406 103.644531 49.753906 C 102.941406 50.441406 102.894531 51.554688 102.894531 52.460938 C 102.894531 53.210938 102.929688 54.46875 103.644531 55.167969 C 104.359375 55.871094 105.480469 55.871094 106.230469 55.871094 C 106.976562 55.871094 108.140625 55.835938 108.808594 55.167969 C 109.472656 54.503906 109.546875 53.335938 109.546875 52.460938 Z M 106.214844 54.875 C 105.609375 54.972656 104.992188 54.769531 104.554688 54.320312 L 104.578125 54.320312 C 104.234375 53.769531 104.085938 53.113281 104.15625 52.460938 C 104.082031 51.808594 104.222656 51.148438 104.554688 50.585938 C 104.996094 50.152344 105.609375 49.953125 106.214844 50.046875 C 106.824219 49.957031 107.4375 50.15625 107.890625 50.585938 C 108.230469 51.144531 108.375 51.808594 108.292969 52.460938 C 108.363281 53.109375 108.222656 53.765625 107.890625 54.320312 C 107.445312 54.765625 106.828125 54.972656 106.214844 54.875 Z M 106.214844 54.875 " clip-rule="evenodd"/></clipPath><linearGradient x1="100" gradientTransform="matrix(0.717144, 0, 0, 0.721434, 10.824774, 18.77791)" y1="41.963199" x2="100" gradientUnits="userSpaceOnUse" y2="51.414599" id="47a264e805"><stop stop-opacity="1" stop-color="rgb(14.460754%, 45.497131%, 77.714539%)" offset="0"/><stop stop-opacity="1" stop-color="rgb(14.393616%, 45.370483%, 77.572632%)" offset="0.125"/><stop stop-opacity="1" stop-color="rgb(14.260864%, 45.117188%, 77.288818%)" offset="0.25"/><stop stop-opacity="1" stop-color="rgb(14.128113%, 44.863892%, 77.005005%)" offset="0.375"/><stop stop-opacity="1" stop-color="rgb(13.993835%, 44.610596%, 76.721191%)" offset="0.5"/><stop stop-opacity="1" stop-color="rgb(13.861084%, 44.3573%, 76.437378%)" offset="0.625"/><stop stop-opacity="1" stop-color="rgb(13.726807%, 44.104004%, 76.153564%)" offset="0.75"/><stop stop-opacity="1" stop-color="rgb(13.594055%, 43.850708%, 75.868225%)" offset="0.875"/><stop stop-opacity="1" stop-color="rgb(13.461304%, 43.595886%, 75.584412%)" offset="1"/></linearGradient><clipPath id="74bb95ff8e"><path d="M 112 49 L 118 49 L 118 56 L 112 56 Z M 112 49 " clip-rule="nonzero"/></clipPath><clipPath id="977ac35f86"><path d="M 113.070312 55.871094 C 112.847656 55.878906 112.632812 55.816406 112.449219 55.691406 C 112.289062 55.546875 112.203125 55.339844 112.210938 55.125 L 112.210938 49.050781 L 113.46875 49.050781 L 113.46875 54.472656 C 113.453125 54.578125 113.488281 54.6875 113.5625 54.765625 C 113.652344 54.828125 113.761719 54.855469 113.871094 54.84375 L 117.53125 54.84375 L 117.53125 55.871094 Z M 113.070312 55.871094 " clip-rule="nonzero"/></clipPath><linearGradient x1="100" gradientTransform="matrix(0.717144, 0, 0, 0.721434, 10.824774, 18.77791)" y1="41.963401" x2="100" gradientUnits="userSpaceOnUse" y2="51.426898" id="eb1fa77ae5"><stop stop-opacity="1" stop-color="rgb(14.460754%, 45.497131%, 77.714539%)" offset="0"/><stop stop-opacity="1" stop-color="rgb(14.393616%, 45.370483%, 77.572632%)" offset="0.125"/><stop stop-opacity="1" stop-color="rgb(14.260864%, 45.117188%, 77.287292%)" offset="0.25"/><stop stop-opacity="1" stop-color="rgb(14.126587%, 44.862366%, 77.003479%)" offset="0.375"/><stop stop-opacity="1" stop-color="rgb(13.993835%, 44.60907%, 76.719666%)" offset="0.5"/><stop stop-opacity="1" stop-color="rgb(13.859558%, 44.355774%, 76.434326%)" offset="0.625"/><stop stop-opacity="1" stop-color="rgb(13.726807%, 44.100952%, 76.150513%)" offset="0.75"/><stop stop-opacity="1" stop-color="rgb(13.592529%, 43.847656%, 75.866699%)" offset="0.875"/><stop stop-opacity="1" stop-color="rgb(13.459778%, 43.59436%, 75.58136%)" offset="1"/></linearGradient><clipPath id="5c20f8b9e0"><path d="M 119 49 L 126 49 L 126 56 L 119 56 Z M 119 49 " clip-rule="nonzero"/></clipPath><clipPath id="adccb42eb3"><path d="M 125.78125 52.460938 C 125.78125 51.585938 125.71875 50.453125 125.039062 49.753906 C 124.332031 49.050781 123.269531 49.050781 122.484375 49.050781 C 122.476562 49.050781 122.46875 49.050781 122.460938 49.050781 C 121.671875 49.050781 120.578125 49.066406 119.875 49.753906 C 119.175781 50.441406 119.128906 51.554688 119.128906 52.460938 C 119.128906 53.210938 119.164062 54.46875 119.875 55.167969 C 120.589844 55.871094 121.714844 55.871094 122.460938 55.871094 C 123.210938 55.871094 124.371094 55.835938 125.039062 55.167969 C 125.707031 54.503906 125.78125 53.335938 125.78125 52.460938 Z M 122.449219 54.875 C 121.839844 54.972656 121.21875 54.769531 120.78125 54.320312 C 120.453125 53.761719 120.316406 53.109375 120.386719 52.460938 C 120.316406 51.808594 120.457031 51.152344 120.78125 50.589844 C 121.226562 50.152344 121.839844 49.953125 122.449219 50.046875 C 123.054688 49.960938 123.671875 50.15625 124.121094 50.589844 C 124.464844 51.144531 124.605469 51.808594 124.523438 52.460938 C 124.597656 53.109375 124.453125 53.765625 124.121094 54.320312 C 123.679688 54.765625 123.058594 54.972656 122.449219 54.875 Z M 122.449219 54.875 " clip-rule="evenodd"/></clipPath><linearGradient x1="100" gradientTransform="matrix(0.717144, 0, 0, 0.721434, 10.824774, 18.77791)" y1="41.963199" x2="100" gradientUnits="userSpaceOnUse" y2="51.414599" id="cbf56eea7c"><stop stop-opacity="1" stop-color="rgb(14.460754%, 45.497131%, 77.714539%)" offset="0"/><stop stop-opacity="1" stop-color="rgb(14.393616%, 45.370483%, 77.572632%)" offset="0.125"/><stop stop-opacity="1" stop-color="rgb(14.260864%, 45.117188%, 77.288818%)" offset="0.25"/><stop stop-opacity="1" stop-color="rgb(14.128113%, 44.863892%, 77.005005%)" offset="0.375"/><stop stop-opacity="1" stop-color="rgb(13.993835%, 44.610596%, 76.721191%)" offset="0.5"/><stop stop-opacity="1" stop-color="rgb(13.861084%, 44.3573%, 76.437378%)" offset="0.625"/><stop stop-opacity="1" stop-color="rgb(13.726807%, 44.104004%, 76.153564%)" offset="0.75"/><stop stop-opacity="1" stop-color="rgb(13.594055%, 43.850708%, 75.868225%)" offset="0.875"/><stop stop-opacity="1" stop-color="rgb(13.461304%, 43.595886%, 75.584412%)" offset="1"/></linearGradient><clipPath id="b123eefa64"><path d="M 128 49 L 135 49 L 135 56 L 128 56 Z M 128 49 " clip-rule="nonzero"/></clipPath><clipPath id="7ab31fef40"><path d="M 134.292969 54.992188 C 134.308594 55.242188 134.222656 55.484375 134.050781 55.664062 C 133.863281 55.800781 133.632812 55.875 133.402344 55.867188 L 130.582031 55.867188 C 130.023438 55.886719 129.476562 55.699219 129.046875 55.335938 C 128.238281 54.621094 128.175781 53.464844 128.175781 52.484375 C 128.175781 51.371094 128.273438 50.125 129.246094 49.472656 C 129.730469 49.179688 130.285156 49.03125 130.847656 49.054688 L 134.140625 49.054688 L 134.140625 50.074219 L 131.203125 50.074219 C 130.621094 50.007812 130.054688 50.28125 129.734375 50.785156 C 129.511719 51.300781 129.417969 51.863281 129.457031 52.425781 C 129.421875 52.996094 129.511719 53.566406 129.722656 54.09375 C 129.957031 54.582031 130.464844 54.863281 130.996094 54.808594 L 132.609375 54.808594 C 132.730469 54.824219 132.851562 54.785156 132.945312 54.699219 C 133.023438 54.605469 133.0625 54.476562 133.046875 54.351562 L 133.046875 52.496094 L 134.292969 52.496094 Z M 134.292969 54.992188 " clip-rule="nonzero"/></clipPath><linearGradient x1="100" gradientTransform="matrix(0.717144, 0, 0, 0.721434, 10.824774, 18.77791)" y1="41.936801" x2="100" gradientUnits="userSpaceOnUse" y2="51.4383" id="1cfb518460"><stop stop-opacity="1" stop-color="rgb(14.463806%, 45.503235%, 77.720642%)" offset="0"/><stop stop-opacity="1" stop-color="rgb(14.396667%, 45.375061%, 77.577209%)" offset="0.125"/><stop stop-opacity="1" stop-color="rgb(14.263916%, 45.120239%, 77.29187%)" offset="0.25"/><stop stop-opacity="1" stop-color="rgb(14.129639%, 44.865417%, 77.006531%)" offset="0.375"/><stop stop-opacity="1" stop-color="rgb(13.995361%, 44.610596%, 76.721191%)" offset="0.5"/><stop stop-opacity="1" stop-color="rgb(13.861084%, 44.355774%, 76.435852%)" offset="0.625"/><stop stop-opacity="1" stop-color="rgb(13.726807%, 44.100952%, 76.150513%)" offset="0.75"/><stop stop-opacity="1" stop-color="rgb(13.592529%, 43.84613%, 75.865173%)" offset="0.875"/><stop stop-opacity="1" stop-color="rgb(13.458252%, 43.591309%, 75.579834%)" offset="1"/></linearGradient><clipPath id="b9a08ea117"><path d="M 136.957031 49.050781 L 138.289062 49.050781 L 138.289062 55.871094 L 136.957031 55.871094 Z M 136.957031 49.050781 " clip-rule="nonzero"/></clipPath><linearGradient x1="100" gradientTransform="matrix(0.717144, 0, 0, 0.721434, 10.824774, 18.77791)" y1="41.963401" x2="100" gradientUnits="userSpaceOnUse" y2="51.414599" id="75937cbe61"><stop stop-opacity="1" stop-color="rgb(14.460754%, 45.497131%, 77.714539%)" offset="0"/><stop stop-opacity="1" stop-color="rgb(14.393616%, 45.370483%, 77.572632%)" offset="0.125"/><stop stop-opacity="1" stop-color="rgb(14.260864%, 45.117188%, 77.288818%)" offset="0.25"/><stop stop-opacity="1" stop-color="rgb(14.128113%, 44.863892%, 77.005005%)" offset="0.375"/><stop stop-opacity="1" stop-color="rgb(13.993835%, 44.610596%, 76.721191%)" offset="0.5"/><stop stop-opacity="1" stop-color="rgb(13.861084%, 44.3573%, 76.437378%)" offset="0.625"/><stop stop-opacity="1" stop-color="rgb(13.726807%, 44.104004%, 76.153564%)" offset="0.75"/><stop stop-opacity="1" stop-color="rgb(13.594055%, 43.850708%, 75.868225%)" offset="0.875"/><stop stop-opacity="1" stop-color="rgb(13.461304%, 43.595886%, 75.584412%)" offset="1"/></linearGradient><clipPath id="e02ca31cd6"><path d="M 141 49 L 147 49 L 147 56 L 141 56 Z M 141 49 " clip-rule="nonzero"/></clipPath><clipPath id="1a89a71eb8"><path d="M 142.488281 55.859375 C 142.21875 55.898438 141.945312 55.820312 141.730469 55.644531 C 141.546875 55.425781 141.457031 55.136719 141.484375 54.847656 L 141.484375 50.035156 C 141.476562 49.777344 141.558594 49.523438 141.714844 49.320312 C 141.929688 49.121094 142.21875 49.027344 142.511719 49.058594 L 146.761719 49.058594 L 146.761719 50.078125 L 143.179688 50.078125 C 143.058594 50.066406 142.9375 50.101562 142.839844 50.171875 C 142.757812 50.261719 142.71875 50.386719 142.734375 50.507812 L 142.734375 51.871094 L 146.671875 51.871094 L 146.671875 52.890625 L 142.734375 52.890625 L 142.734375 54.484375 C 142.730469 54.582031 142.765625 54.675781 142.832031 54.746094 C 142.910156 54.824219 143.0625 54.832031 143.257812 54.832031 L 146.800781 54.832031 L 146.800781 55.851562 Z M 142.488281 55.859375 " clip-rule="nonzero"/></clipPath><linearGradient x1="100" gradientTransform="matrix(0.717144, 0, 0, 0.721434, 10.824774, 18.77791)" y1="41.927001" x2="100" gradientUnits="userSpaceOnUse" y2="51.455298" id="59a2a2dc3b"><stop stop-opacity="1" stop-color="rgb(14.465332%, 45.504761%, 77.723694%)" offset="0"/><stop stop-opacity="1" stop-color="rgb(14.398193%, 45.376587%, 77.580261%)" offset="0.125"/><stop stop-opacity="1" stop-color="rgb(14.263916%, 45.121765%, 77.293396%)" offset="0.25"/><stop stop-opacity="1" stop-color="rgb(14.129639%, 44.865417%, 77.008057%)" offset="0.375"/><stop stop-opacity="1" stop-color="rgb(13.995361%, 44.610596%, 76.721191%)" offset="0.5"/><stop stop-opacity="1" stop-color="rgb(13.861084%, 44.355774%, 76.434326%)" offset="0.625"/><stop stop-opacity="1" stop-color="rgb(13.725281%, 44.099426%, 76.148987%)" offset="0.75"/><stop stop-opacity="1" stop-color="rgb(13.591003%, 43.844604%, 75.862122%)" offset="0.875"/><stop stop-opacity="1" stop-color="rgb(13.456726%, 43.588257%, 75.576782%)" offset="1"/></linearGradient><clipPath id="9d1950dcab"><path d="M 148 49 L 154.476562 49 L 154.476562 56 L 148 56 Z M 148 49 " clip-rule="nonzero"/></clipPath><clipPath id="fe73f13905"><path d="M 148.761719 54.816406 L 152.367188 54.816406 C 152.957031 54.816406 152.984375 54.308594 152.984375 54.101562 C 152.984375 53.894531 152.914062 53.515625 152.347656 53.328125 L 149.78125 52.484375 C 149.480469 52.394531 149.214844 52.21875 149.007812 51.976562 C 148.761719 51.605469 148.640625 51.152344 148.671875 50.699219 C 148.632812 50.234375 148.785156 49.769531 149.097656 49.433594 C 149.390625 49.167969 149.773438 49.03125 150.164062 49.054688 L 153.914062 49.054688 L 153.914062 50.078125 L 150.582031 50.078125 C 150.398438 50.054688 150.210938 50.109375 150.066406 50.234375 C 149.949219 50.378906 149.890625 50.566406 149.902344 50.753906 C 149.902344 51.054688 149.984375 51.347656 150.503906 51.519531 L 152.886719 52.308594 C 153.226562 52.398438 153.546875 52.5625 153.816406 52.792969 C 154.121094 53.15625 154.277344 53.628906 154.25 54.109375 C 154.277344 54.558594 154.164062 55.003906 153.921875 55.375 C 153.636719 55.734375 153.199219 55.917969 152.757812 55.859375 L 148.761719 55.859375 Z M 148.761719 54.816406 " clip-rule="nonzero"/></clipPath><linearGradient x1="100" gradientTransform="matrix(0.717144, 0, 0, 0.721434, 10.824774, 18.77791)" y1="41.934199" x2="100" gradientUnits="userSpaceOnUse" y2="51.479197" id="ef258da77c"><stop stop-opacity="1" stop-color="rgb(14.465332%, 45.503235%, 77.722168%)" offset="0"/><stop stop-opacity="1" stop-color="rgb(14.396667%, 45.375061%, 77.578735%)" offset="0.125"/><stop stop-opacity="1" stop-color="rgb(14.26239%, 45.120239%, 77.29187%)" offset="0.25"/><stop stop-opacity="1" stop-color="rgb(14.128113%, 44.863892%, 77.005005%)" offset="0.375"/><stop stop-opacity="1" stop-color="rgb(13.99231%, 44.607544%, 76.71814%)" offset="0.5"/><stop stop-opacity="1" stop-color="rgb(13.858032%, 44.351196%, 76.431274%)" offset="0.625"/><stop stop-opacity="1" stop-color="rgb(13.723755%, 44.096375%, 76.144409%)" offset="0.75"/><stop stop-opacity="1" stop-color="rgb(13.589478%, 43.840027%, 75.857544%)" offset="0.875"/><stop stop-opacity="1" stop-color="rgb(13.453674%, 43.583679%, 75.570679%)" offset="1"/></linearGradient><clipPath id="dbbc979f59"><path d="M 148 49 L 154.476562 49 L 154.476562 56 L 148 56 Z M 148 49 " clip-rule="nonzero"/></clipPath></defs><g clip-path="url(#d0227754df)"><path fill="#ffffff" d="M 0.496094 0 L 164.503906 0 L 164.503906 82.003906 L 0.496094 82.003906 Z M 0.496094 0 " fill-opacity="1" fill-rule="nonzero"/><path fill="#ffffff" d="M 0.496094 0 L 164.503906 0 L 164.503906 82.003906 L 0.496094 82.003906 Z M 0.496094 0 " fill-opacity="1" fill-rule="nonzero"/></g><g clip-path="url(#6b311002e5)"><g clip-path="url(#b8ed92072a)"><path fill="url(#05b44847bb)" d="M 10.824219 18.777344 L 10.824219 63.507812 L 56.734375 63.507812 L 56.734375 18.777344 Z M 10.824219 18.777344 " fill-rule="nonzero"/></g></g><g clip-path="url(#0e65134c08)"><g clip-path="url(#60ee86da6d)"><path fill="url(#d9d8e47b32)" d="M 60.054688 30.484375 L 60.054688 45.515625 L 154.292969 45.515625 L 154.292969 30.484375 Z M 60.054688 30.484375 " fill-rule="nonzero"/></g></g><g clip-path="url(#ee86308047)"><path fill="url(#d05b680ef9)" d="M 60.585938 49.050781 L 60.585938 55.871094 L 66.707031 55.871094 L 66.707031 49.050781 Z M 60.585938 49.050781 " fill-rule="nonzero"/></g><g clip-path="url(#07850be618)"><g clip-path="url(#4eb7aff17c)"><path fill="url(#10ff48561d)" d="M 69.34375 49.027344 L 69.34375 55.898438 L 74.6875 55.898438 L 74.6875 49.027344 Z M 69.34375 49.027344 " fill-rule="nonzero"/></g></g><g clip-path="url(#c5216dbbdf)"><g clip-path="url(#4a11f8647e)"><path fill="url(#8aa70e6ce6)" d="M 76.75 49.003906 L 76.75 55.921875 L 82.140625 55.921875 L 82.140625 49.003906 Z M 76.75 49.003906 " fill-rule="nonzero"/></g></g><g clip-path="url(#749c4556cf)"><path fill="url(#f65544df0d)" d="M 85.066406 49.050781 L 85.066406 55.871094 L 90.65625 55.871094 L 90.65625 49.050781 Z M 85.066406 49.050781 " fill-rule="nonzero"/></g><g clip-path="url(#886dbc9a2b)"><g clip-path="url(#4fcce28acc)"><path fill="url(#d6d5da2d08)" d="M 93.847656 49.015625 L 93.847656 55.894531 L 99.988281 55.894531 L 99.988281 49.015625 Z M 93.847656 49.015625 " fill-rule="nonzero"/></g></g><g clip-path="url(#4a6d4a6fa7)"><g clip-path="url(#c3323d97cd)"><path fill="url(#47a264e805)" d="M 102.894531 49.050781 L 102.894531 55.871094 L 109.546875 55.871094 L 109.546875 49.050781 Z M 102.894531 49.050781 " fill-rule="nonzero"/></g></g><g clip-path="url(#74bb95ff8e)"><g clip-path="url(#977ac35f86)"><path fill="url(#eb1fa77ae5)" d="M 112.203125 49.050781 L 112.203125 55.878906 L 117.53125 55.878906 L 117.53125 49.050781 Z M 112.203125 49.050781 " fill-rule="nonzero"/></g></g><g clip-path="url(#5c20f8b9e0)"><g clip-path="url(#adccb42eb3)"><path fill="url(#cbf56eea7c)" d="M 119.128906 49.050781 L 119.128906 55.871094 L 125.78125 55.871094 L 125.78125 49.050781 Z M 119.128906 49.050781 " fill-rule="nonzero"/></g></g><g clip-path="url(#b123eefa64)"><g clip-path="url(#7ab31fef40)"><path fill="url(#1cfb518460)" d="M 128.175781 49.03125 L 128.175781 55.886719 L 134.308594 55.886719 L 134.308594 49.03125 Z M 128.175781 49.03125 " fill-rule="nonzero"/></g></g><g clip-path="url(#b9a08ea117)"><path fill="url(#75937cbe61)" d="M 136.957031 49.050781 L 136.957031 55.871094 L 138.289062 55.871094 L 138.289062 49.050781 Z M 136.957031 49.050781 " fill-rule="nonzero"/></g><g clip-path="url(#e02ca31cd6)"><g clip-path="url(#1a89a71eb8)"><path fill="url(#59a2a2dc3b)" d="M 141.457031 49.027344 L 141.457031 55.898438 L 146.800781 55.898438 L 146.800781 49.027344 Z M 141.457031 49.027344 " fill-rule="nonzero"/></g></g><g clip-path="url(#9d1950dcab)"><g clip-path="url(#fe73f13905)"><path fill="url(#ef258da77c)" d="M 148.632812 49.03125 L 148.632812 55.917969 L 154.277344 55.917969 L 154.277344 49.03125 Z M 148.632812 49.03125 " fill-rule="nonzero"/></g></g><path fill="#333333" d="M 63.046875 55.871094 L 63.046875 50.074219 L 60.585938 50.074219 L 60.585938 49.050781 L 66.707031 49.050781 L 66.707031 50.074219 L 64.230469 50.074219 L 64.230469 55.871094 Z M 63.046875 55.871094 " fill-opacity="1" fill-rule="nonzero"/><path fill="#333333" d="M 70.375 55.859375 C 70.105469 55.898438 69.828125 55.820312 69.617188 55.644531 C 69.429688 55.425781 69.34375 55.136719 69.371094 54.847656 L 69.371094 50.035156 C 69.363281 49.777344 69.445312 49.523438 69.601562 49.320312 C 69.816406 49.121094 70.105469 49.023438 70.394531 49.058594 L 74.648438 49.058594 L 74.648438 50.078125 L 71.066406 50.078125 C 70.945312 50.066406 70.824219 50.097656 70.722656 50.171875 C 70.644531 50.261719 70.605469 50.382812 70.621094 50.507812 L 70.621094 51.871094 L 74.554688 51.871094 L 74.554688 52.890625 L 70.621094 52.890625 L 70.621094 54.480469 C 70.617188 54.578125 70.652344 54.675781 70.71875 54.746094 C 70.792969 54.824219 70.945312 54.832031 71.140625 54.832031 L 74.6875 54.832031 L 74.6875 55.851562 Z M 70.375 55.859375 " fill-opacity="1" fill-rule="nonzero"/><path fill="#333333" d="M 79.492188 55.863281 C 78.75 55.921875 78.023438 55.628906 77.5 55.0625 C 77.003906 54.339844 76.765625 53.449219 76.835938 52.550781 C 76.75 51.625 76.964844 50.691406 77.445312 49.914062 C 77.988281 49.316406 78.742188 49.003906 79.515625 49.058594 L 82.054688 49.058594 L 82.054688 50.078125 L 80.0625 50.078125 C 79.359375 50.078125 78.734375 50.128906 78.402344 50.707031 C 78.117188 51.265625 77.996094 51.902344 78.050781 52.539062 C 78 53.109375 78.105469 53.683594 78.347656 54.191406 C 78.675781 54.726562 79.25 54.839844 80 54.839844 L 82.140625 54.839844 L 82.140625 55.863281 Z M 79.492188 55.863281 " fill-opacity="1" fill-rule="nonzero"/><path fill="#333333" d="M 90.65625 55.871094 L 89.484375 55.871094 L 89.484375 52.867188 L 86.242188 52.867188 L 86.242188 55.871094 L 85.066406 55.871094 L 85.066406 49.050781 L 86.242188 49.050781 L 86.242188 51.84375 L 89.484375 51.84375 L 89.484375 49.050781 L 90.65625 49.050781 Z M 90.65625 55.871094 " fill-opacity="1" fill-rule="nonzero"/><path fill="#333333" d="M 99.964844 54.917969 C 99.984375 55.183594 99.890625 55.441406 99.707031 55.625 C 99.523438 55.808594 99.269531 55.894531 99.019531 55.863281 C 98.597656 55.894531 98.195312 55.675781 97.980469 55.296875 L 95.292969 50.867188 C 95.207031 50.722656 95.164062 50.707031 95.144531 50.707031 C 95.0625 50.726562 95.007812 50.808594 95.015625 50.894531 L 95.015625 55.792969 L 93.847656 55.792969 L 93.847656 49.957031 C 93.847656 49.390625 94.222656 49.054688 94.828125 49.054688 C 95.234375 49.015625 95.628906 49.21875 95.84375 49.582031 L 98.535156 54.042969 C 98.582031 54.105469 98.601562 54.207031 98.679688 54.207031 C 98.761719 54.207031 98.78125 54.085938 98.78125 54.042969 L 98.78125 49.148438 L 99.953125 49.148438 Z M 99.964844 54.917969 " fill-opacity="1" fill-rule="nonzero"/><path fill="#333333" d="M 109.546875 52.460938 C 109.546875 51.582031 109.488281 50.453125 108.804688 49.753906 C 108.097656 49.050781 107.039062 49.050781 106.25 49.050781 C 106.242188 49.050781 106.234375 49.050781 106.230469 49.050781 C 105.4375 49.050781 104.34375 49.066406 103.644531 49.753906 C 102.941406 50.441406 102.894531 51.554688 102.894531 52.460938 C 102.894531 53.210938 102.929688 54.46875 103.644531 55.167969 C 104.359375 55.871094 105.480469 55.871094 106.230469 55.871094 C 106.976562 55.871094 108.140625 55.835938 108.804688 55.167969 C 109.472656 54.5 109.546875 53.335938 109.546875 52.460938 Z M 106.214844 54.875 C 105.605469 54.972656 104.992188 54.769531 104.554688 54.320312 L 104.574219 54.320312 C 104.234375 53.765625 104.085938 53.113281 104.152344 52.460938 C 104.082031 51.808594 104.222656 51.148438 104.554688 50.585938 C 104.996094 50.152344 105.609375 49.953125 106.214844 50.046875 C 106.824219 49.957031 107.4375 50.15625 107.886719 50.585938 C 108.230469 51.144531 108.375 51.808594 108.289062 52.460938 C 108.363281 53.109375 108.222656 53.765625 107.886719 54.320312 C 107.445312 54.765625 106.824219 54.96875 106.214844 54.875 Z M 106.214844 54.875 " fill-opacity="1" fill-rule="evenodd"/><path fill="#333333" d="M 113.066406 55.867188 C 112.847656 55.878906 112.628906 55.816406 112.449219 55.691406 C 112.289062 55.546875 112.203125 55.339844 112.207031 55.125 L 112.207031 49.050781 L 113.46875 49.050781 L 113.46875 54.472656 C 113.453125 54.578125 113.488281 54.6875 113.5625 54.765625 C 113.652344 54.828125 113.761719 54.855469 113.871094 54.84375 L 117.53125 54.84375 L 117.53125 55.867188 Z M 113.066406 55.867188 " fill-opacity="1" fill-rule="nonzero"/><path fill="#333333" d="M 125.78125 52.460938 C 125.78125 51.582031 125.71875 50.453125 125.039062 49.753906 C 124.332031 49.050781 123.269531 49.050781 122.484375 49.050781 C 122.476562 49.050781 122.46875 49.050781 122.460938 49.050781 C 121.671875 49.050781 120.578125 49.066406 119.875 49.753906 C 119.175781 50.441406 119.128906 51.554688 119.128906 52.460938 C 119.128906 53.210938 119.160156 54.46875 119.875 55.167969 C 120.589844 55.871094 121.710938 55.871094 122.460938 55.871094 C 123.207031 55.871094 124.371094 55.835938 125.039062 55.167969 C 125.703125 54.5 125.78125 53.335938 125.78125 52.460938 Z M 122.449219 54.875 C 121.835938 54.972656 121.21875 54.765625 120.78125 54.320312 C 120.453125 53.761719 120.3125 53.109375 120.386719 52.460938 C 120.316406 51.808594 120.453125 51.152344 120.78125 50.585938 C 121.226562 50.152344 121.839844 49.953125 122.449219 50.046875 C 123.054688 49.957031 123.667969 50.15625 124.121094 50.585938 C 124.464844 51.144531 124.605469 51.808594 124.519531 52.460938 C 124.597656 53.109375 124.453125 53.765625 124.121094 54.320312 C 123.679688 54.765625 123.058594 54.972656 122.449219 54.875 Z M 122.449219 54.875 " fill-opacity="1" fill-rule="evenodd"/><path fill="#333333" d="M 134.292969 54.992188 C 134.308594 55.242188 134.222656 55.484375 134.050781 55.660156 C 133.859375 55.800781 133.632812 55.871094 133.402344 55.867188 L 130.582031 55.867188 C 130.023438 55.886719 129.476562 55.695312 129.042969 55.332031 C 128.238281 54.621094 128.175781 53.464844 128.175781 52.480469 C 128.175781 51.371094 128.273438 50.121094 129.246094 49.472656 C 129.730469 49.179688 130.285156 49.03125 130.847656 49.054688 L 134.140625 49.054688 L 134.140625 50.074219 L 131.203125 50.074219 C 130.621094 50.007812 130.050781 50.28125 129.734375 50.785156 C 129.511719 51.300781 129.414062 51.863281 129.457031 52.425781 C 129.421875 52.996094 129.511719 53.5625 129.71875 54.09375 C 129.957031 54.578125 130.464844 54.863281 130.996094 54.804688 L 132.609375 54.804688 C 132.730469 54.824219 132.851562 54.785156 132.941406 54.699219 C 133.023438 54.601562 133.0625 54.476562 133.046875 54.351562 L 133.046875 52.496094 L 134.292969 52.496094 Z M 134.292969 54.992188 " fill-opacity="1" fill-rule="nonzero"/><path fill="#333333" d="M 136.957031 49.050781 L 138.285156 49.050781 L 138.285156 55.871094 L 136.957031 55.871094 Z M 136.957031 49.050781 " fill-opacity="1" fill-rule="nonzero"/><path fill="#333333" d="M 142.488281 55.859375 C 142.21875 55.898438 141.941406 55.820312 141.730469 55.644531 C 141.542969 55.425781 141.457031 55.136719 141.484375 54.847656 L 141.484375 50.035156 C 141.476562 49.777344 141.558594 49.523438 141.714844 49.320312 C 141.929688 49.121094 142.21875 49.023438 142.507812 49.058594 L 146.761719 49.058594 L 146.761719 50.078125 L 143.179688 50.078125 C 143.058594 50.066406 142.9375 50.097656 142.839844 50.171875 C 142.757812 50.261719 142.71875 50.382812 142.734375 50.507812 L 142.734375 51.871094 L 146.671875 51.871094 L 146.671875 52.890625 L 142.734375 52.890625 L 142.734375 54.480469 C 142.730469 54.578125 142.765625 54.675781 142.832031 54.746094 C 142.90625 54.824219 143.058594 54.832031 143.253906 54.832031 L 146.800781 54.832031 L 146.800781 55.851562 Z M 142.488281 55.859375 " fill-opacity="1" fill-rule="nonzero"/><g clip-path="url(#dbbc979f59)"><path fill="#333333" d="M 148.761719 54.816406 L 152.367188 54.816406 C 152.953125 54.816406 152.980469 54.308594 152.980469 54.101562 C 152.980469 53.894531 152.914062 53.515625 152.34375 53.328125 L 149.78125 52.484375 C 149.480469 52.394531 149.214844 52.21875 149.007812 51.976562 C 148.757812 51.601562 148.640625 51.152344 148.671875 50.699219 C 148.628906 50.230469 148.785156 49.769531 149.097656 49.433594 C 149.390625 49.167969 149.773438 49.03125 150.164062 49.054688 L 153.914062 49.054688 L 153.914062 50.078125 L 150.582031 50.078125 C 150.394531 50.054688 150.210938 50.109375 150.066406 50.234375 C 149.949219 50.378906 149.890625 50.566406 149.902344 50.753906 C 149.902344 51.054688 149.984375 51.347656 150.503906 51.519531 L 152.886719 52.308594 C 153.226562 52.398438 153.542969 52.5625 153.816406 52.792969 C 154.121094 53.15625 154.277344 53.628906 154.25 54.109375 C 154.277344 54.554688 154.160156 55 153.917969 55.375 C 153.636719 55.734375 153.199219 55.917969 152.757812 55.859375 L 148.761719 55.859375 Z M 148.761719 54.816406 " fill-opacity="1" fill-rule="nonzero"/></g></svg>