<svg xmlns="http://www.w3.org/2000/svg" xmlns:xlink="http://www.w3.org/1999/xlink" width="220" zoomAndPan="magnify" viewBox="0 0 165 82.499998" height="110" preserveAspectRatio="xMidYMid meet" version="1.0"><defs><g/><clipPath id="7771fdd1fa"><path d="M 0.496094 0 L 164.503906 0 L 164.503906 82.003906 L 0.496094 82.003906 Z M 0.496094 0 " clip-rule="nonzero"/></clipPath><clipPath id="2f9de76a2e"><path d="M 47.375 10 L 57 10 L 57 27 L 47.375 27 Z M 47.375 10 " clip-rule="nonzero"/></clipPath><clipPath id="13c34a3c29"><path d="M 47.375 33 L 97 33 L 97 51 L 47.375 51 Z M 47.375 33 " clip-rule="nonzero"/></clipPath><clipPath id="3c9e801e3c"><path d="M 107 60 L 117.625 60 L 117.625 73 L 107 73 Z M 107 60 " clip-rule="nonzero"/></clipPath><clipPath id="463224c028"><path d="M 47.375 57 L 117.625 57 L 117.625 75 L 47.375 75 Z M 47.375 57 " clip-rule="nonzero"/></clipPath></defs><g clip-path="url(#7771fdd1fa)"><path fill="#ffffff" d="M 0.496094 0 L 164.503906 0 L 164.503906 82.003906 L 0.496094 82.003906 Z M 0.496094 0 " fill-opacity="1" fill-rule="nonzero"/></g><g fill="#008c45" fill-opacity="1"><g transform="translate(48.605421, 24.534344)"><g><path d="M 3.921875 -0.71875 L 5.453125 -0.46875 L 5.453125 0 L 0.65625 0 L 0.65625 -0.46875 L 2.203125 -0.71875 L 2.203125 -11.28125 L 0.65625 -11.515625 L 0.65625 -11.984375 L 5.453125 -11.984375 L 5.453125 -11.515625 L 3.921875 -11.28125 Z M 3.921875 -0.71875 "/></g></g></g><g clip-path="url(#2f9de76a2e)"><path stroke-linecap="butt" transform="matrix(0.745482, 0, 0, 0.745482, 48.605421, 24.534344)" fill="none" stroke-linejoin="miter" d="M 5.250442 -0.957811 L 7.314962 -0.638178 L 7.314962 0.00109012 L 0.885606 0.00109012 L 0.885606 -0.638178 L 2.950127 -0.957811 L 2.950127 -15.131738 L 0.885606 -15.446132 L 0.885606 -16.08016 L 7.314962 -16.08016 L 7.314962 -15.446132 L 5.250442 -15.131738 Z M 5.250442 -0.957811 " stroke="#007cc3" stroke-width="0.55" stroke-opacity="1" stroke-miterlimit="4"/></g><g fill="#f4f9ff" fill-opacity="1"><g transform="translate(52.325896, 24.534344)"><g><path d="M 2.8125 0 L 2.8125 -0.46875 L 4.71875 -0.71875 L 4.71875 -11.21875 L 4.265625 -11.21875 C 2.753906 -11.21875 1.722656 -11.160156 1.171875 -11.046875 L 0.9375 -9.171875 L 0.328125 -9.171875 L 0.328125 -11.984375 L 10.875 -11.984375 L 10.875 -9.171875 L 10.28125 -9.171875 L 10.03125 -11.046875 C 9.851562 -11.085938 9.460938 -11.125 8.859375 -11.15625 C 8.253906 -11.1875 7.597656 -11.203125 6.890625 -11.203125 L 6.453125 -11.203125 L 6.453125 -0.71875 L 8.34375 -0.46875 L 8.34375 0 Z M 2.8125 0 "/></g></g></g><path stroke-linecap="butt" transform="matrix(0.745482, 0, 0, 0.745482, 52.325896, 24.534344)" fill="none" stroke-linejoin="miter" d="M 3.775717 0.00109012 L 3.775717 -0.638178 L 6.332788 -0.957811 L 6.332788 -15.0479 L 5.71972 -15.0479 C 3.697119 -15.0479 2.313785 -14.969301 1.56972 -14.812104 L 1.244846 -12.302193 L 0.443141 -12.302193 L 0.443141 -16.08016 L 14.596109 -16.08016 L 14.596109 -12.302193 L 13.778684 -12.302193 L 13.453811 -14.812104 C 13.212775 -14.864503 12.694025 -14.916902 11.881841 -14.958822 C 11.074897 -15.005981 10.194594 -15.02694 9.235692 -15.02694 L 8.648823 -15.02694 L 8.648823 -0.957811 L 11.200654 -0.638178 L 11.200654 0.00109012 Z M 3.775717 0.00109012 " stroke="#007cc3" stroke-width="0.55" stroke-opacity="1" stroke-miterlimit="4"/><g fill="#cd212a" fill-opacity="1"><g transform="translate(62.529534, 24.534344)"><g><path d="M 4.125 -0.46875 L 4.125 0 L 0.171875 0 L 0.171875 -0.46875 L 1.53125 -0.71875 L 5.625 -12.09375 L 7.328125 -12.09375 L 11.578125 -0.71875 L 13.09375 -0.46875 L 13.09375 0 L 8.015625 0 L 8.015625 -0.46875 L 9.625 -0.71875 L 8.4375 -4.171875 L 3.71875 -4.171875 L 2.515625 -0.71875 Z M 6.046875 -10.796875 L 3.984375 -4.984375 L 8.15625 -4.984375 Z M 6.046875 -10.796875 "/></g></g></g><path stroke-linecap="butt" transform="matrix(0.745482, 0, 0, 0.745482, 62.529534, 24.534344)" fill="none" stroke-linejoin="miter" d="M 5.530395 -0.638178 L 5.530395 0.00109012 L 0.238097 0.00109012 L 0.238097 -0.638178 L 2.061582 -0.957811 L 7.542516 -16.211157 L 9.821872 -16.211157 L 15.517642 -0.957811 L 17.555963 -0.638178 L 17.555963 0.00109012 L 10.754574 0.00109012 L 10.754574 -0.638178 L 12.913413 -0.957811 L 11.320483 -5.600362 L 4.990685 -5.600362 L 3.371557 -0.957811 Z M 8.108425 -14.487231 L 5.346998 -6.679781 L 10.948451 -6.679781 Z M 8.108425 -14.487231 " stroke="#007cc3" stroke-width="0.55" stroke-opacity="1" stroke-miterlimit="4"/><g fill="#007cc3" fill-opacity="1"><g transform="translate(75.645087, 24.534344)"><g><path d="M 5.640625 -11.515625 L 3.796875 -11.28125 L 3.796875 -0.765625 L 6.15625 -0.765625 C 7.425781 -0.765625 8.359375 -0.828125 8.953125 -0.953125 L 9.5 -3.4375 L 10.09375 -3.4375 L 9.921875 0 L 0.53125 0 L 0.53125 -0.46875 L 2.0625 -0.71875 L 2.0625 -11.28125 L 0.53125 -11.515625 L 0.53125 -11.984375 L 5.640625 -11.984375 Z M 5.640625 -11.515625 "/></g></g></g><g fill="#007cc3" fill-opacity="1"><g transform="translate(86.276317, 24.534344)"><g><path d="M 3.921875 -0.71875 L 5.453125 -0.46875 L 5.453125 0 L 0.65625 0 L 0.65625 -0.46875 L 2.203125 -0.71875 L 2.203125 -11.28125 L 0.65625 -11.515625 L 0.65625 -11.984375 L 5.453125 -11.984375 L 5.453125 -11.515625 L 3.921875 -11.28125 Z M 3.921875 -0.71875 "/></g></g></g><g fill="#007cc3" fill-opacity="1"><g transform="translate(91.823424, 24.534344)"><g><path d="M 4.125 -0.46875 L 4.125 0 L 0.171875 0 L 0.171875 -0.46875 L 1.53125 -0.71875 L 5.625 -12.09375 L 7.328125 -12.09375 L 11.578125 -0.71875 L 13.09375 -0.46875 L 13.09375 0 L 8.015625 0 L 8.015625 -0.46875 L 9.625 -0.71875 L 8.4375 -4.171875 L 3.71875 -4.171875 L 2.515625 -0.71875 Z M 6.046875 -10.796875 L 3.984375 -4.984375 L 8.15625 -4.984375 Z M 6.046875 -10.796875 "/></g></g></g><path stroke-linecap="butt" transform="matrix(0.745482, 0, 0, 0.745482, 75.645087, 24.534344)" fill="none" stroke-linejoin="miter" d="M 7.565669 -15.446132 L 5.087197 -15.131738 L 5.087197 -1.03117 L 8.252096 -1.03117 C 9.955063 -1.03117 11.202159 -1.109768 12.003863 -1.272205 L 12.747929 -4.615261 L 13.528674 -4.615261 L 13.313838 0.00109012 L 0.706641 0.00109012 L 0.706641 -0.638178 L 2.771161 -0.957811 L 2.771161 -15.131738 L 0.706641 -15.446132 L 0.706641 -16.08016 L 7.565669 -16.08016 Z M 19.512639 -0.957811 L 21.577159 -0.638178 L 21.577159 0.00109012 L 15.147803 0.00109012 L 15.147803 -0.638178 L 17.212323 -0.957811 L 17.212323 -15.131738 L 15.147803 -15.446132 L 15.147803 -16.08016 L 21.577159 -16.08016 L 21.577159 -15.446132 L 19.512639 -15.131738 Z M 27.23101 -0.638178 L 27.23101 0.00109012 L 21.943952 0.00109012 L 21.943952 -0.638178 L 23.762197 -0.957811 L 29.243131 -16.211157 L 31.522487 -16.211157 L 37.218258 -0.957811 L 39.256578 -0.638178 L 39.256578 0.00109012 L 32.460429 0.00109012 L 32.460429 -0.638178 L 34.619268 -0.957811 L 33.021098 -5.600362 L 26.6913 -5.600362 L 25.072172 -0.957811 Z M 29.80904 -14.487231 L 27.052853 -6.679781 L 32.649066 -6.679781 Z M 29.80904 -14.487231 " stroke="#007cc3" stroke-width="0.55" stroke-opacity="1" stroke-miterlimit="4"/><g fill="#007cc3" fill-opacity="1"><g transform="translate(48.605421, 48.348431)"><g><path d="M 2.625 -6.015625 C 2.625 -4.085938 2.941406 -2.691406 3.578125 -1.828125 C 4.222656 -0.960938 5.234375 -0.53125 6.609375 -0.53125 C 7.972656 -0.53125 8.976562 -0.960938 9.625 -1.828125 C 10.28125 -2.691406 10.609375 -4.085938 10.609375 -6.015625 C 10.609375 -7.921875 10.285156 -9.296875 9.640625 -10.140625 C 8.992188 -10.984375 7.984375 -11.40625 6.609375 -11.40625 C 5.234375 -11.40625 4.222656 -10.984375 3.578125 -10.140625 C 2.941406 -9.296875 2.625 -7.921875 2.625 -6.015625 Z M 0.75 -6.015625 C 0.75 -10.085938 2.703125 -12.125 6.609375 -12.125 C 8.535156 -12.125 9.992188 -11.601562 10.984375 -10.5625 C 11.972656 -9.53125 12.46875 -8.015625 12.46875 -6.015625 C 12.46875 -3.972656 11.96875 -2.429688 10.96875 -1.390625 C 9.96875 -0.347656 8.515625 0.171875 6.609375 0.171875 C 4.703125 0.171875 3.25 -0.34375 2.25 -1.375 C 1.25 -2.414062 0.75 -3.960938 0.75 -6.015625 Z M 0.75 -6.015625 "/></g></g></g><g fill="#007cc3" fill-opacity="1"><g transform="translate(61.273874, 48.348431)"><g><path d="M 7.671875 -8.4375 C 7.671875 -9.425781 7.441406 -10.128906 6.984375 -10.546875 C 6.523438 -10.972656 5.753906 -11.1875 4.671875 -11.1875 L 3.796875 -11.1875 L 3.796875 -5.515625 L 4.71875 -5.515625 C 5.726562 -5.515625 6.472656 -5.742188 6.953125 -6.203125 C 7.429688 -6.660156 7.671875 -7.40625 7.671875 -8.4375 Z M 3.796875 -4.703125 L 3.796875 -0.71875 L 5.703125 -0.46875 L 5.703125 0 L 0.640625 0 L 0.640625 -0.46875 L 2.0625 -0.71875 L 2.0625 -11.28125 L 0.53125 -11.515625 L 0.53125 -11.984375 L 5.046875 -11.984375 C 7.984375 -11.984375 9.453125 -10.804688 9.453125 -8.453125 C 9.453125 -7.222656 9.078125 -6.289062 8.328125 -5.65625 C 7.585938 -5.019531 6.523438 -4.703125 5.140625 -4.703125 Z M 3.796875 -4.703125 "/></g></g></g><g fill="#007cc3" fill-opacity="1"><g transform="translate(70.904364, 48.348431)"><g><path d="M 0.53125 -0.46875 L 2.0625 -0.71875 L 2.0625 -11.28125 L 0.53125 -11.515625 L 0.53125 -11.984375 L 9.515625 -11.984375 L 9.515625 -9.125 L 8.9375 -9.125 L 8.640625 -11.0625 C 7.972656 -11.144531 7.007812 -11.1875 5.75 -11.1875 L 3.796875 -11.1875 L 3.796875 -6.5 L 7.03125 -6.5 L 7.3125 -7.9375 L 7.875 -7.9375 L 7.875 -4.25 L 7.3125 -4.25 L 7.03125 -5.703125 L 3.796875 -5.703125 L 3.796875 -0.8125 L 6.15625 -0.8125 C 7.6875 -0.8125 8.691406 -0.859375 9.171875 -0.953125 L 9.6875 -3.171875 L 10.28125 -3.171875 L 10.109375 0 L 0.53125 0 Z M 0.53125 -0.46875 "/></g></g></g><g fill="#007cc3" fill-opacity="1"><g transform="translate(81.535595, 48.348431)"><g><path d="M 10.328125 -11.28125 L 8.71875 -11.515625 L 8.71875 -11.984375 L 12.796875 -11.984375 L 12.796875 -11.515625 L 11.265625 -11.28125 L 11.265625 0 L 10.40625 0 L 3 -10.78125 L 3 -0.71875 L 4.609375 -0.46875 L 4.609375 0 L 0.53125 0 L 0.53125 -0.46875 L 2.0625 -0.71875 L 2.0625 -11.28125 L 0.53125 -11.515625 L 0.53125 -11.984375 L 4.15625 -11.984375 L 10.328125 -3.109375 Z M 10.328125 -11.28125 "/></g></g></g><g clip-path="url(#13c34a3c29)"><path stroke-linecap="butt" transform="matrix(0.745482, 0, 0, 0.745482, 48.605421, 48.348431)" fill="none" stroke-linejoin="miter" d="M 3.516036 -8.060004 C 3.516036 -5.476734 3.945707 -3.60609 4.810291 -2.448072 C 5.674874 -1.284814 7.021528 -0.708426 8.860733 -0.708426 C 10.694697 -0.708426 12.046591 -1.284814 12.916415 -2.448072 C 13.786238 -3.60609 14.221149 -5.476734 14.221149 -8.060004 C 14.221149 -10.627554 13.791478 -12.471999 12.921654 -13.603817 C 12.051831 -14.735635 10.699937 -15.301544 8.860733 -15.301544 C 7.016288 -15.301544 5.664394 -14.735635 4.805051 -13.603817 C 3.945707 -12.471999 3.516036 -10.627554 3.516036 -8.060004 Z M 1.006124 -8.060004 C 1.006124 -13.525219 3.626074 -16.260446 8.860733 -16.260446 C 11.454483 -16.260446 13.408965 -15.568779 14.739899 -14.180206 C 16.065594 -12.791633 16.731061 -10.753312 16.731061 -8.060004 C 16.731061 -5.324777 16.055114 -3.260256 14.7137 -1.861203 C 13.372286 -0.46215 11.423043 0.239996 8.860733 0.239996 C 6.314142 0.239996 4.364899 -0.45691 3.023485 -1.850724 C 1.676831 -3.249777 1.006124 -5.314297 1.006124 -8.060004 Z M 27.284218 -11.319221 C 27.284218 -12.639676 26.975064 -13.582857 26.361995 -14.148767 C 25.743687 -14.719916 24.706187 -15.00287 23.254735 -15.00287 L 22.075758 -15.00287 L 22.075758 -7.389297 L 23.328094 -7.389297 C 24.674748 -7.389297 25.675569 -7.693211 26.320076 -8.311519 C 26.959344 -8.924587 27.284218 -9.930648 27.284218 -11.319221 Z M 22.075758 -6.309878 L 22.075758 -0.959941 L 24.632829 -0.635067 L 24.632829 -0.00103921 L 17.857639 -0.00103921 L 17.857639 -0.635067 L 19.764963 -0.959941 L 19.764963 -15.133868 L 17.700442 -15.448262 L 17.700442 -16.082289 L 23.768245 -16.082289 C 27.70341 -16.082289 29.668372 -14.50508 29.668372 -11.345421 C 29.668372 -9.700092 29.170581 -8.447756 28.175 -7.593653 C 27.17942 -6.734309 25.754167 -6.309878 23.888763 -6.309878 Z M 30.622033 -0.635067 L 32.681314 -0.959941 L 32.681314 -15.133868 L 30.622033 -15.448262 L 30.622033 -16.082289 L 42.684281 -16.082289 L 42.684281 -12.230964 L 41.893056 -12.230964 L 41.510544 -14.835193 C 40.614521 -14.945231 39.320266 -15.00287 37.622538 -15.00287 L 34.997349 -15.00287 L 34.997349 -8.720231 L 39.335985 -8.720231 L 39.708018 -10.638034 L 40.478283 -10.638034 L 40.478283 -5.696809 L 39.708018 -5.696809 L 39.335985 -7.640812 L 34.997349 -7.640812 L 34.997349 -1.080458 L 38.162248 -1.080458 C 40.226768 -1.080458 41.578662 -1.143337 42.21793 -1.269095 L 42.899117 -4.245357 L 43.690342 -4.245357 L 43.465026 -0.00103921 L 30.622033 -0.00103921 Z M 58.021465 -15.133868 L 55.867867 -15.448262 L 55.867867 -16.082289 L 61.343561 -16.082289 L 61.343561 -15.448262 L 59.284281 -15.133868 L 59.284281 -0.00103921 L 58.121023 -0.00103921 L 48.201895 -14.463161 L 48.201895 -0.959941 L 50.360733 -0.635067 L 50.360733 -0.00103921 L 44.879799 -0.00103921 L 44.879799 -0.635067 L 46.944319 -0.959941 L 46.944319 -15.133868 L 44.879799 -15.448262 L 44.879799 -16.082289 L 49.747665 -16.082289 L 58.021465 -4.171999 Z M 58.021465 -15.133868 " stroke="#007cc3" stroke-width="0.55" stroke-opacity="1" stroke-miterlimit="4"/></g><g fill="#007cc3" fill-opacity="1"><g transform="translate(48.605421, 72.162514)"><g><path d="M 1.25 -3.234375 L 1.828125 -3.234375 L 2.140625 -1.609375 C 2.359375 -1.328125 2.738281 -1.078125 3.28125 -0.859375 C 3.820312 -0.648438 4.351562 -0.546875 4.875 -0.546875 C 5.707031 -0.546875 6.359375 -0.757812 6.828125 -1.1875 C 7.296875 -1.613281 7.53125 -2.203125 7.53125 -2.953125 C 7.53125 -3.378906 7.4375 -3.734375 7.25 -4.015625 C 7.070312 -4.296875 6.832031 -4.53125 6.53125 -4.71875 C 6.238281 -4.914062 5.90625 -5.082031 5.53125 -5.21875 C 5.15625 -5.351562 4.769531 -5.488281 4.375 -5.625 C 3.976562 -5.757812 3.59375 -5.910156 3.21875 -6.078125 C 2.84375 -6.242188 2.503906 -6.453125 2.203125 -6.703125 C 1.910156 -6.960938 1.671875 -7.28125 1.484375 -7.65625 C 1.304688 -8.039062 1.21875 -8.507812 1.21875 -9.0625 C 1.21875 -10.019531 1.578125 -10.769531 2.296875 -11.3125 C 3.015625 -11.851562 4.007812 -12.125 5.28125 -12.125 C 6.238281 -12.125 7.285156 -11.992188 8.421875 -11.734375 L 8.421875 -9.25 L 7.84375 -9.25 L 7.53125 -10.71875 C 6.914062 -11.15625 6.164062 -11.375 5.28125 -11.375 C 4.476562 -11.375 3.851562 -11.210938 3.40625 -10.890625 C 2.957031 -10.566406 2.734375 -10.117188 2.734375 -9.546875 C 2.734375 -9.148438 2.820312 -8.820312 3 -8.5625 C 3.175781 -8.3125 3.410156 -8.09375 3.703125 -7.90625 C 4.003906 -7.726562 4.34375 -7.570312 4.71875 -7.4375 C 5.101562 -7.3125 5.492188 -7.175781 5.890625 -7.03125 C 6.285156 -6.894531 6.671875 -6.738281 7.046875 -6.5625 C 7.429688 -6.382812 7.769531 -6.160156 8.0625 -5.890625 C 8.351562 -5.617188 8.585938 -5.285156 8.765625 -4.890625 C 8.953125 -4.503906 9.046875 -4.023438 9.046875 -3.453125 C 9.046875 -2.296875 8.691406 -1.398438 7.984375 -0.765625 C 7.273438 -0.140625 6.253906 0.171875 4.921875 0.171875 C 4.273438 0.171875 3.625 0.113281 2.96875 0 C 2.320312 -0.101562 1.75 -0.253906 1.25 -0.453125 Z M 1.25 -3.234375 "/></g></g></g><g fill="#007cc3" fill-opacity="1"><g transform="translate(58.235912, 72.162514)"><g><path d="M 2.625 -6.015625 C 2.625 -4.085938 2.941406 -2.691406 3.578125 -1.828125 C 4.222656 -0.960938 5.234375 -0.53125 6.609375 -0.53125 C 7.972656 -0.53125 8.976562 -0.960938 9.625 -1.828125 C 10.28125 -2.691406 10.609375 -4.085938 10.609375 -6.015625 C 10.609375 -7.921875 10.285156 -9.296875 9.640625 -10.140625 C 8.992188 -10.984375 7.984375 -11.40625 6.609375 -11.40625 C 5.234375 -11.40625 4.222656 -10.984375 3.578125 -10.140625 C 2.941406 -9.296875 2.625 -7.921875 2.625 -6.015625 Z M 0.75 -6.015625 C 0.75 -10.085938 2.703125 -12.125 6.609375 -12.125 C 8.535156 -12.125 9.992188 -11.601562 10.984375 -10.5625 C 11.972656 -9.53125 12.46875 -8.015625 12.46875 -6.015625 C 12.46875 -3.972656 11.96875 -2.429688 10.96875 -1.390625 C 9.96875 -0.347656 8.515625 0.171875 6.609375 0.171875 C 4.703125 0.171875 3.25 -0.34375 2.25 -1.375 C 1.25 -2.414062 0.75 -3.960938 0.75 -6.015625 Z M 0.75 -6.015625 "/></g></g></g><g fill="#007cc3" fill-opacity="1"><g transform="translate(70.904364, 72.162514)"><g><path d="M 10.359375 -11.28125 L 8.75 -11.515625 L 8.75 -11.984375 L 12.84375 -11.984375 L 12.84375 -11.515625 L 11.296875 -11.28125 L 11.296875 -4.125 C 11.296875 -2.6875 10.898438 -1.609375 10.109375 -0.890625 C 9.328125 -0.179688 8.179688 0.171875 6.671875 0.171875 C 5.085938 0.171875 3.898438 -0.179688 3.109375 -0.890625 C 2.316406 -1.609375 1.921875 -2.628906 1.921875 -3.953125 L 1.921875 -11.28125 L 0.390625 -11.515625 L 0.390625 -11.984375 L 5.171875 -11.984375 L 5.171875 -11.515625 L 3.640625 -11.28125 L 3.640625 -4.09375 C 3.640625 -1.914062 4.695312 -0.828125 6.8125 -0.828125 C 7.957031 -0.828125 8.832031 -1.097656 9.4375 -1.640625 C 10.050781 -2.179688 10.359375 -2.984375 10.359375 -4.046875 Z M 10.359375 -11.28125 "/></g></g></g><g fill="#007cc3" fill-opacity="1"><g transform="translate(83.572816, 72.162514)"><g><path d="M 3.796875 -5.25 L 3.796875 -0.71875 L 5.609375 -0.46875 L 5.609375 0 L 0.640625 0 L 0.640625 -0.46875 L 2.0625 -0.71875 L 2.0625 -11.28125 L 0.53125 -11.515625 L 0.53125 -11.984375 L 5.703125 -11.984375 C 7.203125 -11.984375 8.3125 -11.726562 9.03125 -11.21875 C 9.75 -10.71875 10.109375 -9.910156 10.109375 -8.796875 C 10.109375 -7.992188 9.890625 -7.300781 9.453125 -6.71875 C 9.015625 -6.132812 8.410156 -5.734375 7.640625 -5.515625 L 10.890625 -0.71875 L 12.1875 -0.46875 L 12.1875 0 L 9.3125 0 L 5.953125 -5.25 Z M 8.328125 -8.671875 C 8.328125 -9.578125 8.101562 -10.222656 7.65625 -10.609375 C 7.21875 -10.992188 6.4375 -11.1875 5.3125 -11.1875 L 3.796875 -11.1875 L 3.796875 -6.0625 L 5.375 -6.0625 C 6.4375 -6.0625 7.191406 -6.257812 7.640625 -6.65625 C 8.097656 -7.050781 8.328125 -7.722656 8.328125 -8.671875 Z M 8.328125 -8.671875 "/></g></g></g><g fill="#007cc3" fill-opacity="1"><g transform="translate(95.231587, 72.162514)"><g><path d="M 6.921875 0.171875 C 4.972656 0.171875 3.457031 -0.351562 2.375 -1.40625 C 1.289062 -2.46875 0.75 -3.953125 0.75 -5.859375 C 0.75 -7.921875 1.269531 -9.476562 2.3125 -10.53125 C 3.351562 -11.59375 4.898438 -12.125 6.953125 -12.125 C 8.203125 -12.125 9.539062 -11.972656 10.96875 -11.671875 L 11.03125 -9.046875 L 10.4375 -9.046875 L 10.171875 -10.609375 C 9.753906 -10.859375 9.269531 -11.050781 8.71875 -11.1875 C 8.164062 -11.332031 7.601562 -11.40625 7.03125 -11.40625 C 5.5 -11.40625 4.378906 -10.953125 3.671875 -10.046875 C 2.972656 -9.148438 2.625 -7.757812 2.625 -5.875 C 2.625 -4.132812 2.988281 -2.804688 3.71875 -1.890625 C 4.457031 -0.972656 5.53125 -0.515625 6.9375 -0.515625 C 7.613281 -0.515625 8.253906 -0.59375 8.859375 -0.75 C 9.460938 -0.914062 9.941406 -1.132812 10.296875 -1.40625 L 10.625 -3.203125 L 11.203125 -3.203125 L 11.15625 -0.390625 C 9.84375 -0.015625 8.429688 0.171875 6.921875 0.171875 Z M 6.921875 0.171875 "/></g></g></g><g clip-path="url(#3c9e801e3c)"><g fill="#007cc3" fill-opacity="1"><g transform="translate(106.890355, 72.162514)"><g><path d="M 0.53125 -0.46875 L 2.0625 -0.71875 L 2.0625 -11.28125 L 0.53125 -11.515625 L 0.53125 -11.984375 L 9.515625 -11.984375 L 9.515625 -9.125 L 8.9375 -9.125 L 8.640625 -11.0625 C 7.972656 -11.144531 7.007812 -11.1875 5.75 -11.1875 L 3.796875 -11.1875 L 3.796875 -6.5 L 7.03125 -6.5 L 7.3125 -7.9375 L 7.875 -7.9375 L 7.875 -4.25 L 7.3125 -4.25 L 7.03125 -5.703125 L 3.796875 -5.703125 L 3.796875 -0.8125 L 6.15625 -0.8125 C 7.6875 -0.8125 8.691406 -0.859375 9.171875 -0.953125 L 9.6875 -3.171875 L 10.28125 -3.171875 L 10.109375 0 L 0.53125 0 Z M 0.53125 -0.46875 "/></g></g></g></g><g clip-path="url(#463224c028)"><path stroke-linecap="butt" transform="matrix(0.745482, 0, 0, 0.745482, 48.605421, 72.162514)" fill="none" stroke-linejoin="miter" d="M 1.666351 -4.33132 L 2.447096 -4.33132 L 2.866288 -2.156762 C 3.159723 -1.784729 3.673233 -1.449375 4.396339 -1.161181 C 5.119445 -0.872986 5.832071 -0.731509 6.534218 -0.731509 C 7.655556 -0.731509 8.530619 -1.019704 9.154167 -1.590853 C 9.782955 -2.162002 10.097349 -2.947986 10.097349 -3.959287 C 10.097349 -4.530436 9.976831 -5.007267 9.730556 -5.384539 C 9.489521 -5.761812 9.169887 -6.076206 8.771654 -6.338201 C 8.378662 -6.600196 7.928031 -6.815032 7.425 -6.998428 C 6.92197 -7.176585 6.40322 -7.359981 5.86875 -7.543378 C 5.339521 -7.726774 4.820771 -7.93113 4.31774 -8.156446 C 3.81471 -8.376522 3.364079 -8.664716 2.965846 -9.00531 C 2.572854 -9.351143 2.25322 -9.775575 2.006945 -10.283845 C 1.765909 -10.792115 1.645392 -11.415663 1.645392 -12.159729 C 1.645392 -13.438264 2.122223 -14.444325 3.081124 -15.172671 C 4.040026 -15.895777 5.37096 -16.26257 7.073927 -16.26257 C 8.368182 -16.26257 9.777715 -16.089653 11.297286 -15.74382 L 11.297286 -12.400764 L 10.516541 -12.400764 L 10.097349 -14.365726 C 9.279925 -14.957835 8.273864 -15.256509 7.073927 -15.256509 C 6.004988 -15.256509 5.166604 -15.036433 4.564015 -14.601522 C 3.961427 -14.16661 3.657513 -13.564022 3.657513 -12.793757 C 3.657513 -12.275007 3.778031 -11.845335 4.024306 -11.499502 C 4.265341 -11.158908 4.584975 -10.865474 4.983207 -10.619199 C 5.3762 -10.372923 5.832071 -10.163327 6.340341 -9.990411 C 6.843372 -9.812254 7.367361 -9.634098 7.896591 -9.445461 C 8.431061 -9.256825 8.949811 -9.041989 9.458081 -8.806193 C 9.961111 -8.570398 10.416983 -8.271724 10.809975 -7.910171 C 11.208207 -7.543378 11.527841 -7.103226 11.768877 -6.579236 C 12.015152 -6.055246 12.13567 -5.410739 12.13567 -4.640474 C 12.13567 -3.089464 11.658839 -1.889527 10.710417 -1.035423 C 9.756755 -0.18656 8.389142 0.237872 6.597096 0.237872 C 5.732513 0.237872 4.86269 0.164514 3.992866 0.0125566 C 3.123043 -0.1394 2.347538 -0.348996 1.666351 -0.610991 Z M 16.432387 -8.056888 C 16.432387 -5.478858 16.862058 -3.608214 17.726642 -2.444956 C 18.591225 -1.286938 19.943119 -0.70531 21.782324 -0.70531 C 23.611048 -0.70531 24.962942 -1.286938 25.832766 -2.444956 C 26.707829 -3.608214 27.14274 -5.478858 27.14274 -8.056888 C 27.14274 -10.624438 26.707829 -12.474123 25.838006 -13.605941 C 24.973422 -14.737759 23.621528 -15.303668 21.782324 -15.303668 C 19.932639 -15.303668 18.580745 -14.737759 17.721402 -13.605941 C 16.862058 -12.474123 16.432387 -10.624438 16.432387 -8.056888 Z M 13.927715 -8.056888 C 13.927715 -13.527342 16.542425 -16.26257 21.782324 -16.26257 C 24.370834 -16.26257 26.330556 -15.565663 27.65625 -14.18233 C 28.981945 -12.793757 29.647412 -10.755436 29.647412 -8.056888 C 29.647412 -5.326901 28.976705 -3.25714 27.635291 -1.858087 C 26.288637 -0.459034 24.339394 0.237872 21.782324 0.237872 C 19.230493 0.237872 17.28125 -0.459034 15.939836 -1.852847 C 14.598422 -3.246661 13.927715 -5.316421 13.927715 -8.056888 Z M 43.810859 -15.135991 L 41.652021 -15.445146 L 41.652021 -16.079173 L 47.132955 -16.079173 L 47.132955 -15.445146 L 45.068435 -15.135991 L 45.068435 -5.526017 C 45.068435 -3.602974 44.539205 -2.156762 43.480746 -1.19786 C 42.422286 -0.238959 40.886996 0.237872 38.869634 0.237872 C 36.736995 0.237872 35.138826 -0.244198 34.080367 -1.2031 C 33.021907 -2.167241 32.492677 -3.534855 32.492677 -5.300701 L 32.492677 -15.135991 L 30.428157 -15.445146 L 30.428157 -16.079173 L 36.857513 -16.079173 L 36.857513 -15.445146 L 34.792993 -15.135991 L 34.792993 -5.478858 C 34.792993 -2.560234 36.213006 -1.103542 39.047791 -1.103542 C 40.583081 -1.103542 41.762059 -1.465095 42.579483 -2.193441 C 43.402147 -2.921787 43.810859 -4.001206 43.810859 -5.431699 Z M 51.990342 -7.050827 L 51.990342 -0.956825 L 54.426895 -0.637191 L 54.426895 0.00207679 L 47.766983 0.00207679 L 47.766983 -0.637191 L 49.674306 -0.956825 L 49.674306 -15.135991 L 47.615026 -15.445146 L 47.615026 -16.079173 L 54.557892 -16.079173 C 56.570013 -16.079173 58.058145 -15.74382 59.017046 -15.062633 C 59.975948 -14.381446 60.458018 -13.291547 60.458018 -11.787696 C 60.458018 -10.718757 60.164584 -9.791294 59.582955 -9.01055 C 58.996087 -8.235044 58.189142 -7.690095 57.156882 -7.386181 L 61.511238 -0.956825 L 63.250885 -0.637191 L 63.250885 0.00207679 L 59.399559 0.00207679 L 54.882766 -7.050827 Z M 58.068624 -11.620019 C 58.068624 -12.846156 57.77519 -13.710739 57.177842 -14.229489 C 56.580493 -14.742999 55.537753 -14.999754 54.039142 -14.999754 L 51.990342 -14.999754 L 51.990342 -8.130246 L 54.112501 -8.130246 C 55.542993 -8.130246 56.559534 -8.397481 57.167362 -8.926711 C 57.76995 -9.461181 58.068624 -10.357204 58.068624 -11.620019 Z M 71.828599 0.237872 C 69.21913 0.237872 67.191289 -0.469514 65.734597 -1.889527 C 64.277905 -3.309539 63.554799 -5.295461 63.554799 -7.852532 C 63.554799 -10.619199 64.251705 -12.715158 65.650758 -14.135171 C 67.049811 -15.549944 69.124811 -16.26257 71.875758 -16.26257 C 73.547286 -16.26257 75.339332 -16.058214 77.257135 -15.649502 L 77.330493 -12.133529 L 76.539268 -12.133529 L 76.177715 -14.224249 C 75.622286 -14.564843 74.972539 -14.832077 74.233713 -15.020714 C 73.489647 -15.20935 72.740342 -15.303668 71.970077 -15.303668 C 69.916036 -15.303668 68.417425 -14.69584 67.474243 -13.490663 C 66.531061 -12.285486 66.05947 -10.414842 66.05947 -7.878731 C 66.05947 -5.546976 66.552021 -3.760171 67.542362 -2.528794 C 68.527463 -1.297418 69.963195 -0.68435 71.849559 -0.68435 C 72.761301 -0.68435 73.620645 -0.794388 74.427589 -1.014464 C 75.234534 -1.234539 75.873801 -1.527974 76.345392 -1.894767 L 76.790784 -4.29464 L 77.571529 -4.29464 L 77.49817 -0.516673 C 75.742804 -0.0136429 73.8512 0.237872 71.828599 0.237872 Z M 78.891983 -0.637191 L 80.956503 -0.956825 L 80.956503 -15.135991 L 78.891983 -15.445146 L 78.891983 -16.079173 L 90.954231 -16.079173 L 90.954231 -12.233087 L 90.163006 -12.233087 L 89.780493 -14.832077 C 88.884471 -14.947355 87.590216 -14.999754 85.897728 -14.999754 L 83.267299 -14.999754 L 83.267299 -8.717115 L 87.611175 -8.717115 L 87.983208 -10.634918 L 88.748233 -10.634918 L 88.748233 -5.693693 L 87.983208 -5.693693 L 87.611175 -7.637696 L 83.267299 -7.637696 L 83.267299 -1.077342 L 86.437438 -1.077342 C 88.496718 -1.077342 89.848612 -1.145461 90.48788 -1.271219 L 91.174306 -4.247481 L 91.965531 -4.247481 L 91.734976 0.00207679 L 78.891983 0.00207679 Z M 78.891983 -0.637191 " stroke="#007cc3" stroke-width="0.55" stroke-opacity="1" stroke-miterlimit="4"/></g></svg>