<svg xmlns="http://www.w3.org/2000/svg" xmlns:xlink="http://www.w3.org/1999/xlink" width="220" zoomAndPan="magnify" viewBox="0 0 165 82.499998" height="110" preserveAspectRatio="xMidYMid meet" version="1.0"><defs><clipPath id="4278e21e54"><path d="M 0.496094 0 L 164.503906 0 L 164.503906 82.003906 L 0.496094 82.003906 Z M 0.496094 0 " clip-rule="nonzero"/></clipPath></defs><g clip-path="url(#4278e21e54)"><path fill="#ffffff" d="M 0.496094 0 L 164.503906 0 L 164.503906 82.003906 L 0.496094 82.003906 Z M 0.496094 0 " fill-opacity="1" fill-rule="nonzero"/><path fill="#ffffff" d="M 0.496094 0 L 164.503906 0 L 164.503906 82.003906 L 0.496094 82.003906 Z M 0.496094 0 " fill-opacity="1" fill-rule="nonzero"/></g><path fill="#000000" d="M 53.550781 19.394531 L 53.550781 26.71875 L 68.179688 26.71875 L 60.890625 19.394531 C 56.882812 15.367188 53.59375 12.070312 53.582031 12.070312 C 53.5625 12.070312 53.550781 15.367188 53.550781 19.394531 Z M 53.550781 19.394531 " fill-opacity="1" fill-rule="nonzero"/><path fill="#000000" d="M 102.5 13.589844 C 102.1875 13.757812 101.929688 14.132812 102.011719 14.28125 C 102.0625 14.34375 102.242188 14.363281 102.511719 14.320312 C 102.875 14.257812 102.917969 14.269531 102.867188 14.425781 C 102.824219 14.519531 102.792969 14.644531 102.792969 14.699219 C 102.792969 14.75 102.679688 14.769531 102.542969 14.730469 C 102.40625 14.699219 102.261719 14.71875 102.230469 14.78125 C 102.136719 14.917969 101.542969 14.9375 101.542969 14.800781 C 101.542969 14.59375 101.179688 14.59375 100.847656 14.792969 C 100.449219 15.023438 99.980469 15.0625 99.660156 14.886719 C 99.492188 14.800781 99.398438 14.8125 99.265625 14.9375 C 99.023438 15.160156 98.484375 15.167969 98.566406 14.949219 C 98.628906 14.761719 98.617188 14.761719 98.273438 14.898438 C 98.128906 14.949219 98.003906 15.0625 98.003906 15.148438 C 98.003906 15.242188 97.867188 15.453125 97.691406 15.628906 C 97.453125 15.878906 97.296875 15.941406 96.953125 15.941406 C 96.621094 15.941406 96.515625 15.902344 96.472656 15.734375 C 96.433594 15.585938 96.328125 15.523438 96.121094 15.523438 C 95.953125 15.523438 95.796875 15.523438 95.765625 15.523438 C 95.734375 15.523438 95.714844 15.554688 95.722656 15.585938 C 95.734375 15.617188 95.597656 15.785156 95.441406 15.953125 L 95.152344 16.257812 L 95.484375 16.257812 C 95.902344 16.257812 95.996094 16.425781 95.722656 16.664062 C 95.597656 16.769531 95.503906 16.90625 95.503906 16.980469 C 95.503906 17.042969 95.234375 17.367188 94.914062 17.691406 C 94.578125 18.023438 94.308594 18.359375 94.296875 18.433594 C 94.265625 18.632812 93.945312 18.863281 93.601562 18.945312 C 93.257812 19.019531 93.226562 19.0625 93.195312 19.773438 C 93.164062 20.273438 93.132812 20.328125 92.601562 20.765625 C 92.289062 21.019531 92.007812 21.300781 91.964844 21.382812 C 91.925781 21.46875 91.808594 21.6875 91.714844 21.875 C 91.507812 22.285156 91.507812 22.417969 91.707031 22.640625 C 91.957031 22.910156 91.707031 23.675781 91.332031 23.8125 C 91.132812 23.882812 91.070312 23.957031 91.101562 24.105469 C 91.183594 24.40625 91.746094 24.34375 92.101562 24 C 92.363281 23.75 92.382812 23.6875 92.269531 23.496094 C 92.050781 23.140625 92.308594 22.816406 93.050781 22.503906 C 93.558594 22.292969 93.777344 22.253906 94.109375 22.316406 C 94.695312 22.429688 94.808594 22.515625 94.734375 22.808594 C 94.695312 22.964844 94.726562 23.152344 94.820312 23.277344 C 94.945312 23.464844 94.945312 23.539062 94.820312 23.851562 C 94.621094 24.324219 94.632812 24.417969 94.882812 24.417969 C 95.039062 24.417969 95.089844 24.492188 95.089844 24.679688 C 95.089844 24.824219 95.152344 24.941406 95.226562 24.941406 C 95.410156 24.941406 95.714844 25.277344 95.714844 25.484375 C 95.714844 25.863281 96.621094 26.195312 96.808594 25.882812 C 96.839844 25.820312 97.027344 25.777344 97.203125 25.777344 C 97.390625 25.777344 97.648438 25.683594 97.796875 25.570312 C 98.128906 25.308594 98.222656 25.308594 98.703125 25.570312 C 99.171875 25.820312 99.421875 25.832031 99.546875 25.609375 C 99.597656 25.527344 99.753906 25.390625 99.886719 25.328125 C 100.023438 25.253906 100.148438 25.097656 100.167969 24.972656 C 100.191406 24.847656 100.324219 24.667969 100.472656 24.574219 C 100.667969 24.4375 100.722656 24.335938 100.679688 24.125 C 100.648438 23.96875 100.605469 23.769531 100.585938 23.664062 C 100.566406 23.570312 100.699219 23.394531 100.910156 23.246094 C 101.105469 23.121094 101.347656 22.859375 101.441406 22.691406 C 101.554688 22.480469 101.710938 22.367188 101.886719 22.347656 L 102.167969 22.316406 L 102.167969 23.046875 C 102.167969 23.664062 102.199219 23.789062 102.355469 23.832031 C 102.46875 23.875 102.617188 24.011719 102.6875 24.15625 C 102.835938 24.429688 102.992188 24.523438 103.460938 24.585938 C 103.898438 24.636719 104.011719 24.792969 103.84375 25.066406 C 103.71875 25.265625 103.730469 25.308594 103.917969 25.453125 C 104.167969 25.652344 104.386719 26.0625 104.3125 26.1875 C 104.21875 26.332031 104.574219 26.417969 104.730469 26.289062 C 104.917969 26.132812 104.917969 25.933594 104.71875 25.777344 C 104.519531 25.621094 104.605469 25.046875 104.832031 24.910156 C 104.917969 24.867188 104.980469 24.753906 104.980469 24.648438 C 104.980469 24.554688 105.113281 24.335938 105.28125 24.15625 C 105.707031 23.71875 105.894531 23.195312 105.800781 22.742188 C 105.75 22.546875 105.738281 22.292969 105.769531 22.1875 C 105.832031 21.992188 106.175781 21.949219 106.28125 22.117188 C 106.332031 22.199219 106.394531 22.1875 106.5 22.105469 C 106.625 22.011719 106.644531 22.054688 106.644531 22.367188 C 106.644531 22.585938 106.707031 22.828125 106.78125 22.902344 C 106.84375 22.984375 106.96875 23.121094 107.039062 23.214844 C 107.238281 23.445312 107.789062 23.425781 107.789062 23.171875 C 107.789062 23.015625 107.894531 22.964844 108.308594 22.910156 C 108.894531 22.839844 109.039062 22.878906 109.039062 23.140625 C 109.050781 23.351562 109.394531 23.789062 109.550781 23.789062 C 109.746094 23.789062 109.789062 23.558594 109.652344 23.296875 C 109.550781 23.101562 109.539062 23.003906 109.644531 22.839844 C 109.757812 22.660156 109.738281 22.617188 109.507812 22.535156 C 109.308594 22.460938 109.246094 22.355469 109.246094 22.105469 C 109.246094 21.644531 109.621094 21.152344 109.933594 21.195312 C 110.082031 21.214844 110.195312 21.269531 110.207031 21.332031 C 110.226562 21.519531 110.601562 21.707031 110.890625 21.675781 C 111.257812 21.636719 111.351562 21.226562 111.007812 21.144531 C 110.828125 21.089844 110.796875 21.027344 110.839844 20.839844 C 111.195312 19.386719 111.214844 19.261719 111.039062 19.019531 C 110.828125 18.738281 110.695312 18.746094 110.546875 19.0625 C 110.496094 19.1875 110.402344 19.292969 110.351562 19.292969 C 110.300781 19.292969 110.152344 19.40625 110.027344 19.542969 C 109.777344 19.8125 109.464844 19.8125 109.238281 19.542969 C 109.175781 19.457031 109.039062 19.394531 108.933594 19.394531 C 108.707031 19.394531 108.550781 19.207031 108.496094 18.882812 C 108.476562 18.683594 108.363281 18.601562 108 18.496094 C 107.738281 18.414062 107.351562 18.347656 107.144531 18.347656 C 106.738281 18.347656 106.664062 18.265625 106.863281 18.066406 C 106.945312 17.984375 106.945312 17.890625 106.863281 17.730469 C 106.726562 17.492188 106.882812 17.082031 107.394531 16.226562 L 107.632812 15.816406 L 107.394531 15.628906 C 107.269531 15.523438 107.164062 15.386719 107.164062 15.324219 C 107.164062 15.273438 106.820312 15.023438 106.414062 14.769531 C 105.699219 14.34375 105.613281 14.320312 104.855469 14.320312 C 104.175781 14.320312 104.019531 14.289062 103.886719 14.113281 C 103.773438 13.964844 103.699219 13.945312 103.667969 14.027344 C 103.574219 14.25 103.4375 14.183594 103.28125 13.871094 C 103.210938 13.714844 103.085938 13.597656 103.023438 13.609375 C 102.949219 13.632812 102.898438 13.589844 102.898438 13.535156 C 102.898438 13.402344 102.804688 13.421875 102.5 13.589844 Z M 102.5 13.589844 " fill-opacity="1" fill-rule="nonzero"/><path fill="#000000" d="M 97.535156 38.0625 C 92.839844 38.835938 90.007812 42.265625 90.351562 46.746094 C 90.539062 49.214844 91.527344 51.246094 93.234375 52.679688 C 94.589844 53.808594 95.546875 54.339844 98.898438 55.804688 C 102.742188 57.480469 103.554688 58.203125 103.5625 59.9375 C 103.5625 60.796875 103.34375 61.289062 102.71875 61.894531 C 102.136719 62.460938 101.335938 62.796875 100.191406 62.929688 C 98.921875 63.089844 97.710938 62.898438 96.609375 62.367188 C 95.703125 61.9375 94.546875 60.878906 93.902344 59.917969 L 93.464844 59.269531 L 91.027344 60.691406 C 89.6875 61.464844 88.574219 62.125 88.550781 62.136719 C 88.40625 62.273438 89.550781 63.945312 90.414062 64.855469 C 92.007812 66.53125 94.132812 67.640625 96.808594 68.171875 C 98.265625 68.464844 100.867188 68.464844 102.324219 68.171875 C 106.082031 67.410156 108.570312 65.316406 109.425781 62.1875 C 109.570312 61.664062 109.613281 61.121094 109.613281 59.78125 C 109.613281 58.296875 109.582031 57.941406 109.371094 57.21875 C 108.988281 55.902344 108.382812 54.84375 107.425781 53.871094 C 106.09375 52.5 104.5 51.527344 101.335938 50.15625 C 98.484375 48.910156 97.910156 48.609375 97.214844 47.90625 C 96.722656 47.414062 96.558594 47.164062 96.464844 46.789062 C 96.191406 45.699219 96.402344 44.832031 97.089844 44.121094 C 97.679688 43.511719 98.265625 43.304688 99.304688 43.304688 C 101.023438 43.3125 101.867188 43.867188 103.167969 45.847656 C 103.1875 45.886719 107.582031 43.074219 107.769531 42.894531 C 108.101562 42.570312 106.042969 40.152344 104.71875 39.328125 C 103.304688 38.4375 101.792969 38.03125 99.667969 37.96875 C 98.878906 37.9375 98.046875 37.976562 97.535156 38.0625 Z M 97.535156 38.0625 " fill-opacity="1" fill-rule="nonzero"/><path fill="#000000" d="M 79.128906 38.300781 C 79.089844 38.332031 79.058594 43.25 79.058594 49.226562 C 79.058594 56.863281 79.027344 60.253906 78.941406 60.640625 C 78.691406 61.800781 78.121094 62.480469 77.109375 62.773438 C 76.339844 62.996094 75.027344 62.929688 74.371094 62.636719 C 73.746094 62.355469 73.03125 61.625 72.414062 60.621094 L 71.914062 59.804688 L 69.550781 61.238281 C 68.25 62.019531 67.136719 62.722656 67.074219 62.785156 C 66.867188 62.996094 67.867188 64.542969 68.90625 65.597656 C 70.832031 67.554688 72.988281 68.394531 76.140625 68.382812 C 79.183594 68.382812 81.359375 67.554688 82.980469 65.808594 C 84.167969 64.523438 84.835938 62.960938 85.085938 60.828125 C 85.179688 60.117188 85.199219 56.714844 85.179688 49.058594 L 85.148438 38.28125 L 82.171875 38.25 C 80.535156 38.238281 79.171875 38.261719 79.128906 38.300781 Z M 79.128906 38.300781 " fill-opacity="1" fill-rule="nonzero"/></svg>