<svg xmlns="http://www.w3.org/2000/svg" xmlns:xlink="http://www.w3.org/1999/xlink" width="220" zoomAndPan="magnify" viewBox="0 0 165 82.499998" height="110" preserveAspectRatio="xMidYMid meet" version="1.0"><defs><clipPath id="2f48877af7"><path d="M 0.496094 0 L 164.503906 0 L 164.503906 82.003906 L 0.496094 82.003906 Z M 0.496094 0 " clip-rule="nonzero"/></clipPath></defs><g clip-path="url(#2f48877af7)"><path fill="#ffffff" d="M 0.496094 0 L 164.503906 0 L 164.503906 89.457031 L 0.496094 89.457031 Z M 0.496094 0 " fill-opacity="1" fill-rule="nonzero"/><path fill="#ffffff" d="M 0.496094 0 L 164.503906 0 L 164.503906 82.003906 L 0.496094 82.003906 Z M 0.496094 0 " fill-opacity="1" fill-rule="nonzero"/><path fill="#ffffff" d="M 0.496094 0 L 164.503906 0 L 164.503906 82.003906 L 0.496094 82.003906 Z M 0.496094 0 " fill-opacity="1" fill-rule="nonzero"/></g><path fill="#000000" d="M 80.152344 78.246094 C 75.0625 77.851562 70.550781 76.652344 66.222656 74.542969 C 55.460938 69.292969 47.816406 59.125 45.824219 47.398438 C 45.390625 44.890625 45.332031 44.058594 45.332031 41.039062 C 45.332031 38.019531 45.390625 37.183594 45.824219 34.679688 C 48.453125 19.242188 60.738281 6.953125 76.175781 4.324219 C 78.683594 3.894531 79.515625 3.832031 82.539062 3.832031 C 85.488281 3.832031 86.367188 3.894531 88.691406 4.28125 C 95.417969 5.410156 101.625 8.324219 106.847656 12.804688 C 107.925781 13.730469 109.960938 15.757812 110.855469 16.8125 C 115.246094 21.953125 118.183594 28.226562 119.296875 34.882812 C 119.683594 37.207031 119.742188 38.085938 119.742188 41.039062 C 119.742188 43.992188 119.683594 44.871094 119.296875 47.195312 C 117.59375 57.378906 111.746094 66.363281 103.09375 72.117188 C 98.851562 74.933594 93.984375 76.875 88.933594 77.757812 C 86.875 78.117188 85.566406 78.230469 82.992188 78.25 C 81.636719 78.257812 80.363281 78.257812 80.152344 78.246094 Z M 80.152344 78.246094 " fill-opacity="1" fill-rule="nonzero"/><path fill="#f5de19" d="M 80.152344 78.246094 C 75.0625 77.851562 70.550781 76.652344 66.222656 74.542969 C 55.460938 69.292969 47.816406 59.125 45.824219 47.398438 C 45.390625 44.890625 45.332031 44.058594 45.332031 41.039062 C 45.332031 38.019531 45.390625 37.183594 45.824219 34.679688 C 48.453125 19.242188 60.738281 6.953125 76.175781 4.324219 C 78.683594 3.894531 79.515625 3.832031 82.539062 3.832031 C 85.488281 3.832031 86.367188 3.894531 88.691406 4.28125 C 95.417969 5.410156 101.625 8.324219 106.847656 12.804688 C 107.925781 13.730469 109.960938 15.757812 110.855469 16.8125 C 115.246094 21.953125 118.183594 28.226562 119.296875 34.882812 C 119.683594 37.207031 119.742188 38.085938 119.742188 41.039062 C 119.742188 43.992188 119.683594 44.871094 119.296875 47.195312 C 117.59375 57.378906 111.746094 66.363281 103.09375 72.117188 C 98.851562 74.933594 93.984375 76.875 88.933594 77.757812 C 86.875 78.117188 85.566406 78.230469 82.992188 78.25 C 81.636719 78.257812 80.363281 78.257812 80.152344 78.246094 Z M 57.171875 48.421875 L 57.171875 47.851562 L 56.816406 47.84375 C 55.886719 47.835938 55.644531 47.527344 55.628906 46.355469 C 55.628906 45.953125 55.636719 44.90625 55.660156 44.03125 C 55.695312 42.316406 55.660156 42.0625 55.3125 41.597656 C 55.210938 41.46875 54.976562 41.289062 54.78125 41.199219 L 54.425781 41.03125 L 54.804688 40.847656 C 55.015625 40.757812 55.25 40.578125 55.332031 40.464844 C 55.660156 39.992188 55.695312 39.730469 55.660156 38.046875 C 55.605469 35.6875 55.621094 35.066406 55.757812 34.730469 C 55.910156 34.382812 56.234375 34.226562 56.792969 34.226562 L 57.171875 34.226562 L 57.171875 33.074219 L 56.210938 33.105469 C 55.070312 33.132812 54.644531 33.285156 54.320312 33.777344 C 53.910156 34.398438 53.851562 35.171875 54.007812 37.632812 C 54.054688 38.402344 54.070312 39.160156 54.039062 39.3125 C 53.941406 39.851562 53.3125 40.355469 52.746094 40.355469 L 52.480469 40.355469 L 52.480469 41.628906 L 52.871094 41.710938 C 53.417969 41.832031 53.726562 42.046875 53.925781 42.445312 C 54.085938 42.78125 54.085938 42.839844 54.023438 43.976562 C 53.984375 44.636719 53.957031 45.679688 53.957031 46.300781 C 53.957031 47.648438 54.054688 48.042969 54.523438 48.496094 C 54.902344 48.867188 55.320312 48.972656 56.363281 48.980469 L 57.171875 48.988281 Z M 109.792969 48.90625 C 110.945312 48.648438 111.292969 47.722656 111.140625 45.332031 C 111.019531 43.347656 111.027344 42.695312 111.179688 42.425781 C 111.359375 42.074219 111.746094 41.8125 112.203125 41.710938 L 112.59375 41.628906 L 112.59375 40.355469 L 112.34375 40.355469 C 111.996094 40.355469 111.453125 40.0625 111.261719 39.773438 C 111.027344 39.425781 110.988281 39.046875 111.082031 37.875 C 111.203125 36.320312 111.195312 34.792969 111.058594 34.351562 C 110.90625 33.875 110.613281 33.503906 110.226562 33.300781 C 109.953125 33.15625 109.757812 33.125 108.90625 33.105469 L 107.902344 33.074219 L 107.902344 34.210938 L 108.429688 34.238281 C 108.847656 34.261719 108.992188 34.300781 109.144531 34.445312 C 109.46875 34.746094 109.507812 35.132812 109.445312 37.375 C 109.386719 39.730469 109.421875 40.046875 109.847656 40.515625 C 109.992188 40.675781 110.226562 40.84375 110.371094 40.886719 C 110.511719 40.933594 110.625 41 110.621094 41.023438 C 110.621094 41.054688 110.445312 41.160156 110.226562 41.265625 C 109.914062 41.417969 109.800781 41.53125 109.640625 41.832031 L 109.453125 42.210938 L 109.453125 44.671875 C 109.453125 47.414062 109.445312 47.480469 108.960938 47.714844 C 108.808594 47.792969 108.523438 47.851562 108.300781 47.851562 L 107.902344 47.851562 L 107.902344 48.988281 L 108.679688 48.988281 C 109.105469 48.988281 109.605469 48.949219 109.792969 48.90625 Z M 61.148438 46.1875 C 61.566406 45.929688 61.753906 45.550781 61.753906 44.976562 C 61.746094 44.65625 61.699219 44.402344 61.617188 44.242188 C 61.132812 43.339844 59.761719 43.300781 59.253906 44.171875 C 59.050781 44.527344 59 45.164062 59.148438 45.558594 C 59.429688 46.308594 60.4375 46.625 61.148438 46.1875 Z M 66.222656 46.1875 C 66.636719 45.929688 66.828125 45.550781 66.828125 44.976562 C 66.820312 44.65625 66.773438 44.402344 66.691406 44.242188 C 66.207031 43.339844 64.835938 43.300781 64.328125 44.171875 C 64.125 44.527344 64.070312 45.164062 64.222656 45.558594 C 64.503906 46.308594 65.507812 46.625 66.222656 46.1875 Z M 71.292969 46.1875 C 71.710938 45.929688 71.898438 45.550781 71.898438 44.976562 C 71.890625 44.65625 71.847656 44.402344 71.761719 44.242188 C 71.277344 43.339844 69.910156 43.300781 69.402344 44.171875 C 69.195312 44.527344 69.144531 45.164062 69.296875 45.558594 C 69.574219 46.308594 70.582031 46.625 71.292969 46.1875 Z M 82.324219 46.195312 C 83.136719 45.914062 83.785156 45.347656 84.148438 44.589844 C 84.558594 43.757812 84.582031 43.515625 84.582031 38.601562 L 84.582031 34.074219 L 82.46875 34.074219 L 82.445312 38.675781 C 82.421875 43.179688 82.421875 43.28125 82.265625 43.613281 C 81.960938 44.25 81.507812 44.523438 80.71875 44.523438 C 80.039062 44.523438 79.425781 44.152344 78.972656 43.460938 L 78.851562 43.28125 L 78.183594 43.773438 C 77.8125 44.035156 77.480469 44.28125 77.441406 44.300781 C 77.253906 44.429688 78.378906 45.65625 78.949219 45.945312 C 79.257812 46.105469 79.910156 46.308594 80.304688 46.367188 C 80.773438 46.4375 81.894531 46.347656 82.324219 46.195312 Z M 92.644531 46.21875 C 93.3125 46.042969 94.089844 45.605469 94.554688 45.148438 C 95.847656 43.886719 95.839844 41.636719 94.523438 40.433594 C 94.039062 39.988281 93.53125 39.722656 91.957031 39.0625 C 90.511719 38.464844 90.273438 38.351562 89.972656 38.054688 C 89.648438 37.753906 89.503906 37.480469 89.503906 37.148438 C 89.503906 36.140625 90.503906 35.566406 91.933594 35.746094 C 92.5 35.816406 93.0625 36.042969 93.660156 36.449219 C 93.886719 36.601562 94.074219 36.714844 94.082031 36.707031 C 94.089844 36.691406 94.324219 36.398438 94.597656 36.058594 C 94.878906 35.707031 95.105469 35.390625 95.105469 35.359375 C 95.105469 35.285156 94.394531 34.746094 93.96875 34.503906 C 92.976562 33.9375 91.480469 33.710938 90.359375 33.945312 C 89.148438 34.203125 88.117188 34.960938 87.640625 35.929688 C 87.4375 36.351562 87.421875 36.441406 87.421875 37.253906 C 87.421875 38.085938 87.4375 38.152344 87.664062 38.625 C 88.148438 39.601562 88.761719 40.039062 91.054688 41.015625 C 92.386719 41.582031 92.75 41.789062 93.015625 42.097656 C 93.675781 42.886719 93.257812 44.097656 92.222656 44.402344 C 91.714844 44.550781 90.796875 44.550781 90.238281 44.40625 C 89.691406 44.265625 89.054688 43.945312 88.519531 43.542969 C 88.292969 43.371094 88.085938 43.234375 88.058594 43.234375 C 88.019531 43.234375 87.59375 43.695312 87.035156 44.363281 L 86.832031 44.605469 L 87.011719 44.800781 C 87.632812 45.46875 89.085938 46.148438 90.28125 46.347656 C 90.835938 46.429688 92.105469 46.363281 92.644531 46.21875 Z M 99.875 44.402344 L 99.875 42.605469 L 100.722656 41.554688 C 101.390625 40.722656 101.585938 40.523438 101.65625 40.601562 C 101.707031 40.652344 102.449219 41.933594 103.320312 43.445312 L 104.886719 46.1875 L 106.054688 46.1875 C 106.699219 46.1875 107.21875 46.171875 107.21875 46.15625 C 107.21875 46.140625 106.402344 44.742188 105.394531 43.039062 C 104.386719 41.335938 103.417969 39.675781 103.230469 39.359375 L 102.898438 38.773438 L 104.75 36.429688 L 106.613281 34.074219 L 104.230469 34.074219 L 102.117188 36.761719 C 100.957031 38.238281 99.980469 39.472656 99.945312 39.496094 C 99.90625 39.515625 99.875 38.394531 99.875 36.804688 L 99.875 34.074219 L 97.679688 34.074219 L 97.679688 46.1875 L 99.875 46.1875 Z M 99.875 44.402344 " fill-opacity="1" fill-rule="nonzero"/></svg>