<svg xmlns="http://www.w3.org/2000/svg" xmlns:xlink="http://www.w3.org/1999/xlink" width="220" zoomAndPan="magnify" viewBox="0 0 165 82.499998" height="110" preserveAspectRatio="xMidYMid meet" version="1.0"><defs><clipPath id="450fe365eb"><path d="M 0.496094 0 L 164.503906 0 L 164.503906 82.003906 L 0.496094 82.003906 Z M 0.496094 0 " clip-rule="nonzero"/></clipPath></defs><g clip-path="url(#450fe365eb)"><path fill="#ffffff" d="M 0.496094 0 L 164.503906 0 L 164.503906 89.457031 L 0.496094 89.457031 Z M 0.496094 0 " fill-opacity="1" fill-rule="nonzero"/><path fill="#ffffff" d="M 0.496094 0 L 164.503906 0 L 164.503906 82.003906 L 0.496094 82.003906 Z M 0.496094 0 " fill-opacity="1" fill-rule="nonzero"/><path fill="#ffffff" d="M 0.496094 0 L 164.503906 0 L 164.503906 82.003906 L 0.496094 82.003906 Z M 0.496094 0 " fill-opacity="1" fill-rule="nonzero"/></g><path fill="#000000" d="M 48.75 7.25 L 116.402344 7.25 L 116.402344 74.902344 L 48.75 74.902344 Z M 48.75 7.25 " fill-opacity="1" fill-rule="nonzero"/><path fill="#ffffff" d="M 68 32.054688 L 65.660156 32.054688 L 60.023438 25.628906 L 60.023438 32.054688 L 57.203125 32.054688 L 57.203125 20.976562 L 59.488281 20.976562 L 65.125 27.601562 L 65.125 20.976562 L 67.945312 20.976562 Z M 68 32.054688 " fill-opacity="1" fill-rule="nonzero"/><path fill="#ffffff" d="M 79.753906 22.414062 C 80.3125 22.953125 80.742188 23.582031 81.039062 24.296875 C 81.339844 25.011719 81.484375 25.753906 81.476562 26.53125 C 81.480469 27.300781 81.332031 28.039062 81.035156 28.75 C 80.734375 29.460938 80.308594 30.082031 79.753906 30.617188 C 79.476562 30.890625 79.171875 31.132812 78.84375 31.347656 C 78.515625 31.5625 78.171875 31.742188 77.808594 31.890625 C 77.445312 32.039062 77.074219 32.148438 76.691406 32.222656 C 76.304688 32.300781 75.917969 32.335938 75.527344 32.335938 C 75.136719 32.335938 74.75 32.300781 74.363281 32.222656 C 73.980469 32.148438 73.609375 32.039062 73.246094 31.890625 C 72.882812 31.742188 72.539062 31.5625 72.210938 31.347656 C 71.882812 31.132812 71.578125 30.890625 71.300781 30.617188 C 70.746094 30.082031 70.320312 29.460938 70.019531 28.75 C 69.722656 28.039062 69.574219 27.300781 69.578125 26.53125 C 69.570312 25.753906 69.714844 25.011719 70.015625 24.296875 C 70.3125 23.582031 70.742188 22.953125 71.300781 22.414062 C 71.578125 22.140625 71.882812 21.898438 72.210938 21.683594 C 72.539062 21.46875 72.882812 21.289062 73.246094 21.144531 C 73.609375 20.996094 73.980469 20.882812 74.363281 20.808594 C 74.75 20.734375 75.136719 20.695312 75.527344 20.695312 C 75.917969 20.695312 76.304688 20.734375 76.691406 20.808594 C 77.074219 20.882812 77.445312 20.996094 77.808594 21.144531 C 78.171875 21.289062 78.515625 21.46875 78.84375 21.683594 C 79.171875 21.898438 79.476562 22.140625 79.753906 22.414062 Z M 77.8125 28.871094 C 78.109375 28.550781 78.339844 28.1875 78.5 27.78125 C 78.660156 27.375 78.742188 26.953125 78.742188 26.515625 C 78.742188 26.078125 78.660156 25.65625 78.5 25.25 C 78.339844 24.84375 78.109375 24.480469 77.8125 24.164062 C 77.199219 23.515625 76.445312 23.207031 75.554688 23.234375 C 74.660156 23.214844 73.898438 23.523438 73.273438 24.164062 C 72.980469 24.484375 72.757812 24.851562 72.605469 25.257812 C 72.449219 25.664062 72.371094 26.082031 72.371094 26.515625 C 72.371094 26.949219 72.449219 27.371094 72.605469 27.777344 C 72.757812 28.183594 72.980469 28.546875 73.273438 28.871094 C 73.898438 29.511719 74.660156 29.820312 75.554688 29.800781 C 76 29.828125 76.429688 29.761719 76.84375 29.601562 C 77.257812 29.4375 77.617188 29.195312 77.921875 28.871094 Z M 77.8125 28.871094 " fill-opacity="1" fill-rule="nonzero"/><path fill="#ffffff" d="M 60.023438 40.144531 L 64.253906 40.144531 L 64.253906 42.511719 L 60.023438 42.511719 L 60.023438 46.488281 L 57.203125 46.488281 L 57.203125 35.4375 L 65.660156 35.4375 L 65.660156 37.835938 L 60.023438 37.835938 Z M 60.023438 40.144531 " fill-opacity="1" fill-rule="nonzero"/><path fill="#ffffff" d="M 75.695312 46.488281 L 67.492188 46.488281 L 67.492188 35.4375 L 70.3125 35.4375 L 70.3125 44.148438 L 75.78125 44.148438 Z M 75.695312 46.488281 " fill-opacity="1" fill-rule="nonzero"/><path fill="#ffffff" d="M 86.660156 41.5 C 86.742188 42.933594 86.320312 44.203125 85.394531 45.304688 C 84.925781 45.789062 84.382812 46.15625 83.757812 46.40625 C 83.132812 46.65625 82.484375 46.769531 81.8125 46.742188 C 81.128906 46.773438 80.46875 46.664062 79.828125 46.410156 C 79.191406 46.160156 78.628906 45.792969 78.148438 45.304688 C 77.679688 44.785156 77.324219 44.195312 77.085938 43.539062 C 76.847656 42.878906 76.738281 42.199219 76.769531 41.5 L 76.769531 35.4375 L 79.585938 35.4375 L 79.585938 41.527344 C 79.550781 42.277344 79.769531 42.941406 80.234375 43.527344 C 80.671875 44.042969 81.226562 44.285156 81.898438 44.261719 C 82.542969 44.277344 83.070312 44.03125 83.476562 43.527344 C 83.910156 42.929688 84.105469 42.265625 84.070312 41.527344 L 84.070312 35.4375 L 86.886719 35.4375 Z M 86.660156 41.5 " fill-opacity="1" fill-rule="nonzero"/><path fill="#ffffff" d="M 91.480469 40.144531 L 95.597656 40.144531 L 95.597656 42.511719 L 91.480469 42.511719 L 91.480469 46.488281 L 88.664062 46.488281 L 88.664062 35.4375 L 97.121094 35.4375 L 97.121094 37.835938 L 91.480469 37.835938 Z M 91.480469 40.144531 " fill-opacity="1" fill-rule="nonzero"/><path fill="#ffffff" d="M 101.574219 40.144531 L 105.6875 40.144531 L 105.6875 42.511719 L 101.574219 42.511719 L 101.574219 46.488281 L 98.753906 46.488281 L 98.753906 35.4375 L 107.351562 35.4375 L 107.351562 37.835938 L 101.574219 37.835938 Z M 101.574219 40.144531 " fill-opacity="1" fill-rule="nonzero"/><path fill="#ffffff" d="M 74.878906 51.535156 C 75.152344 51.804688 75.394531 52.097656 75.609375 52.414062 C 75.824219 52.730469 76.003906 53.066406 76.152344 53.417969 C 76.300781 53.773438 76.414062 54.136719 76.488281 54.511719 C 76.5625 54.886719 76.601562 55.265625 76.601562 55.648438 C 76.601562 56.03125 76.5625 56.410156 76.488281 56.785156 C 76.414062 57.164062 76.300781 57.527344 76.152344 57.878906 C 76.003906 58.234375 75.824219 58.570312 75.609375 58.886719 C 75.394531 59.203125 75.152344 59.496094 74.878906 59.765625 C 74.597656 60.035156 74.292969 60.277344 73.964844 60.492188 C 73.636719 60.703125 73.292969 60.882812 72.929688 61.03125 C 72.570312 61.175781 72.195312 61.285156 71.8125 61.359375 C 71.429688 61.433594 71.042969 61.472656 70.652344 61.472656 C 70.261719 61.472656 69.871094 61.433594 69.488281 61.359375 C 69.105469 61.285156 68.734375 61.175781 68.371094 61.03125 C 68.007812 60.882812 67.664062 60.703125 67.335938 60.492188 C 67.007812 60.277344 66.703125 60.035156 66.421875 59.765625 C 66.148438 59.496094 65.90625 59.203125 65.691406 58.886719 C 65.476562 58.570312 65.296875 58.234375 65.148438 57.878906 C 65 57.527344 64.890625 57.164062 64.8125 56.785156 C 64.738281 56.410156 64.699219 56.03125 64.699219 55.648438 C 64.699219 55.265625 64.738281 54.886719 64.8125 54.511719 C 64.890625 54.136719 65 53.773438 65.148438 53.417969 C 65.296875 53.066406 65.476562 52.730469 65.691406 52.414062 C 65.90625 52.097656 66.148438 51.804688 66.421875 51.535156 C 66.703125 51.257812 67.003906 51.015625 67.332031 50.800781 C 67.660156 50.582031 68.003906 50.402344 68.367188 50.253906 C 68.730469 50.105469 69.101562 49.992188 69.488281 49.917969 C 69.871094 49.84375 70.257812 49.804688 70.652344 49.804688 C 71.042969 49.804688 71.429688 49.84375 71.816406 49.917969 C 72.199219 49.992188 72.574219 50.105469 72.933594 50.253906 C 73.296875 50.402344 73.640625 50.582031 73.96875 50.800781 C 74.296875 51.015625 74.601562 51.257812 74.878906 51.535156 Z M 72.960938 57.988281 C 73.585938 57.335938 73.886719 56.554688 73.863281 55.648438 C 73.882812 54.738281 73.582031 53.949219 72.960938 53.28125 C 72.335938 52.640625 71.574219 52.332031 70.679688 52.351562 C 69.789062 52.324219 69.035156 52.636719 68.425781 53.28125 C 67.792969 53.945312 67.492188 54.734375 67.523438 55.648438 C 67.5 56.570312 67.820312 57.347656 68.480469 57.988281 C 69.09375 58.636719 69.84375 58.945312 70.734375 58.917969 C 71.609375 58.921875 72.351562 58.613281 72.960938 57.988281 Z M 72.960938 57.988281 " fill-opacity="1" fill-rule="nonzero"/><path fill="#ffffff" d="M 85.617188 55.535156 C 86.210938 55.574219 86.707031 55.8125 87.113281 56.242188 C 87.574219 56.765625 87.792969 57.375 87.761719 58.074219 C 87.78125 58.503906 87.707031 58.914062 87.539062 59.3125 C 87.371094 59.707031 87.125 60.046875 86.804688 60.328125 C 85.976562 60.996094 85.039062 61.277344 83.984375 61.175781 L 78.347656 61.175781 L 78.347656 50.097656 L 83.984375 50.097656 C 84.90625 50.058594 85.722656 50.332031 86.4375 50.914062 C 87.089844 51.5 87.398438 52.234375 87.367188 53.113281 C 87.40625 53.75 87.207031 54.304688 86.773438 54.777344 C 86.457031 55.175781 86.042969 55.398438 85.535156 55.453125 Z M 81.082031 54.691406 L 83.449219 54.691406 C 83.820312 54.710938 84.152344 54.597656 84.433594 54.351562 C 84.679688 54.101562 84.800781 53.800781 84.800781 53.449219 C 84.804688 53.113281 84.683594 52.832031 84.433594 52.605469 C 84.183594 52.394531 83.890625 52.289062 83.5625 52.296875 L 81.082031 52.296875 Z M 83.617188 58.976562 C 83.992188 59 84.324219 58.886719 84.605469 58.636719 C 84.878906 58.398438 85 58.097656 84.96875 57.734375 C 84.988281 57.386719 84.867188 57.09375 84.605469 56.863281 C 84.332031 56.644531 84.023438 56.539062 83.675781 56.550781 L 81.082031 56.550781 L 81.082031 58.976562 Z M 83.617188 58.976562 " fill-opacity="1" fill-rule="nonzero"/><path fill="#ffffff" d="M 100.613281 21.511719 L 100.613281 26.277344 L 99.742188 26.277344 L 99.742188 21.511719 L 97.796875 21.511719 L 97.796875 20.722656 L 102.589844 20.722656 L 102.589844 21.511719 Z M 100.613281 21.511719 " fill-opacity="1" fill-rule="nonzero"/><path fill="#ffffff" d="M 109.496094 26.277344 L 108.621094 26.277344 L 108.621094 22.726562 L 106.730469 26.277344 L 106.195312 26.277344 L 104.28125 22.726562 L 104.28125 26.277344 L 103.40625 26.277344 L 103.40625 20.640625 L 104.195312 20.640625 L 106.449219 24.839844 L 108.734375 20.640625 L 109.496094 20.640625 Z M 109.496094 26.277344 " fill-opacity="1" fill-rule="nonzero"/><path fill="#ffffff" d="M 95.289062 54.550781 L 93.003906 54.042969 C 92.414062 53.902344 92.101562 53.648438 92.101562 53.167969 C 92.097656 52.828125 92.238281 52.566406 92.523438 52.378906 C 92.839844 52.136719 93.199219 52.023438 93.597656 52.042969 C 94.058594 52.039062 94.472656 52.179688 94.835938 52.464844 C 95.21875 52.75 95.453125 53.125 95.542969 53.589844 L 98.164062 53.589844 C 98.179688 53.414062 98.179688 53.234375 98.164062 53.054688 C 97.984375 52.058594 97.484375 51.261719 96.667969 50.660156 C 95.816406 50.082031 94.878906 49.8125 93.851562 49.84375 C 92.675781 49.785156 91.613281 50.105469 90.664062 50.800781 C 90.273438 51.101562 89.972656 51.476562 89.765625 51.925781 C 89.554688 52.375 89.460938 52.84375 89.480469 53.339844 C 89.480469 55.03125 90.46875 56.15625 92.441406 56.496094 L 94.753906 56.972656 C 95.0625 57.007812 95.335938 57.132812 95.570312 57.339844 C 95.730469 57.515625 95.804688 57.722656 95.796875 57.960938 C 95.800781 58.339844 95.648438 58.640625 95.34375 58.863281 C 94.980469 59.089844 94.585938 59.195312 94.160156 59.171875 C 92.949219 59.171875 92.496094 58.609375 92.214844 57.539062 L 89.394531 57.539062 C 89.371094 57.714844 89.371094 57.894531 89.394531 58.074219 C 89.449219 58.585938 89.613281 59.058594 89.882812 59.492188 C 90.15625 59.929688 90.511719 60.28125 90.945312 60.554688 C 91.957031 61.179688 93.058594 61.472656 94.246094 61.429688 C 95.351562 61.472656 96.347656 61.160156 97.234375 60.496094 C 97.679688 60.171875 98.023438 59.761719 98.257812 59.257812 C 98.496094 58.757812 98.59375 58.230469 98.558594 57.679688 C 98.359375 56.074219 97.34375 55 95.289062 54.550781 Z M 95.289062 54.550781 " fill-opacity="1" fill-rule="nonzero"/><path fill="#ffffff" d="M 63.066406 52.800781 L 63.066406 49.984375 L 60.25 49.984375 L 60.25 57.085938 C 60.277344 57.589844 60.121094 58.023438 59.769531 58.382812 C 59.433594 58.742188 59.019531 58.910156 58.53125 58.890625 C 58.046875 58.910156 57.632812 58.753906 57.289062 58.410156 C 57.238281 58.277344 57.210938 58.132812 57.203125 57.988281 L 55.089844 59.652344 C 55.269531 59.921875 55.484375 60.15625 55.738281 60.355469 C 56.613281 61.085938 57.617188 61.421875 58.753906 61.371094 C 59.996094 61.421875 61.078125 61.027344 61.996094 60.1875 C 62.40625 59.789062 62.714844 59.324219 62.925781 58.792969 C 63.136719 58.265625 63.230469 57.714844 63.210938 57.144531 Z M 63.066406 52.800781 " fill-opacity="1" fill-rule="nonzero"/></svg>