<svg xmlns="http://www.w3.org/2000/svg" xmlns:xlink="http://www.w3.org/1999/xlink" width="220" zoomAndPan="magnify" viewBox="0 0 165 82.499998" height="110" preserveAspectRatio="xMidYMid meet" version="1.0"><defs><clipPath id="8826f933e5"><path d="M 0.496094 0 L 164.503906 0 L 164.503906 82.003906 L 0.496094 82.003906 Z M 0.496094 0 " clip-rule="nonzero"/></clipPath></defs><g clip-path="url(#8826f933e5)"><path fill="#ffffff" d="M 0.496094 0 L 164.503906 0 L 164.503906 89.457031 L 0.496094 89.457031 Z M 0.496094 0 " fill-opacity="1" fill-rule="nonzero"/><path fill="#ffffff" d="M 0.496094 0 L 164.503906 0 L 164.503906 82.003906 L 0.496094 82.003906 Z M 0.496094 0 " fill-opacity="1" fill-rule="nonzero"/><path fill="#ffffff" d="M 0.496094 0 L 164.503906 0 L 164.503906 82.003906 L 0.496094 82.003906 Z M 0.496094 0 " fill-opacity="1" fill-rule="nonzero"/></g><path fill="#f97141" d="M 122.171875 34.316406 L 117.808594 34.316406 L 123.386719 41.050781 L 117.808594 47.785156 L 122.171875 47.785156 L 127.394531 41.050781 Z M 122.171875 34.316406 " fill-opacity="1" fill-rule="nonzero"/><path fill="#f97141" d="M 102.402344 34.316406 L 106.761719 34.316406 L 101.1875 41.050781 L 106.761719 47.785156 L 102.402344 47.785156 L 97.179688 41.050781 Z M 102.402344 34.316406 " fill-opacity="1" fill-rule="nonzero"/><path fill="#f97141" d="M 43.089844 34.316406 L 47.449219 34.316406 L 41.875 41.050781 L 47.449219 47.785156 L 43.089844 47.785156 L 37.863281 41.050781 Z M 43.089844 34.316406 " fill-opacity="1" fill-rule="nonzero"/><path fill="#f97141" d="M 74.277344 35.625 C 73.898438 35.222656 73.460938 34.894531 72.964844 34.644531 C 72.148438 34.238281 71.28125 34.046875 70.367188 34.0625 C 69.171875 34.046875 68.0625 34.351562 67.046875 34.980469 C 66.039062 35.605469 65.269531 36.441406 64.726562 37.492188 C 64.167969 38.550781 63.890625 39.75 63.890625 41.089844 C 63.871094 42.347656 64.148438 43.535156 64.726562 44.65625 C 65.269531 45.707031 66.039062 46.542969 67.046875 47.164062 C 68.0625 47.796875 69.171875 48.101562 70.367188 48.085938 C 71.285156 48.101562 72.148438 47.902344 72.964844 47.488281 C 73.457031 47.230469 73.898438 46.902344 74.28125 46.5 L 74.28125 47.808594 L 77.917969 47.808594 L 77.917969 34.339844 L 74.28125 34.339844 Z M 73.53125 43.691406 C 72.898438 44.371094 72.070312 44.710938 71.042969 44.710938 C 70.410156 44.722656 69.820312 44.570312 69.269531 44.25 C 68.75 43.9375 68.347656 43.511719 68.070312 42.96875 C 67.765625 42.367188 67.621094 41.734375 67.636719 41.058594 C 67.625 40.398438 67.769531 39.769531 68.070312 39.179688 C 68.347656 38.636719 68.75 38.210938 69.269531 37.898438 C 69.820312 37.578125 70.410156 37.421875 71.042969 37.4375 C 71.6875 37.421875 72.289062 37.574219 72.847656 37.898438 C 73.367188 38.210938 73.769531 38.636719 74.046875 39.179688 C 74.347656 39.769531 74.488281 40.398438 74.476562 41.058594 C 74.476562 42.136719 74.160156 43.015625 73.523438 43.691406 Z M 73.53125 43.691406 " fill-opacity="1" fill-rule="nonzero"/><path fill="#f97141" d="M 88.761719 44.363281 C 88.230469 44.582031 87.675781 44.691406 87.101562 44.683594 C 86.457031 44.691406 85.855469 44.539062 85.296875 44.222656 C 84.757812 43.910156 84.339844 43.484375 84.039062 42.941406 C 83.722656 42.355469 83.566406 41.726562 83.578125 41.058594 C 83.5625 40.390625 83.714844 39.761719 84.039062 39.175781 C 84.347656 38.644531 84.765625 38.226562 85.296875 37.921875 C 85.855469 37.605469 86.457031 37.453125 87.101562 37.460938 C 87.664062 37.457031 88.210938 37.558594 88.734375 37.769531 C 89.226562 37.96875 89.648438 38.269531 90.003906 38.660156 L 92.351562 36.289062 C 91.699219 35.5625 90.925781 35.007812 90.03125 34.617188 C 89.097656 34.21875 88.117188 34.023438 87.101562 34.03125 C 85.785156 34.015625 84.550781 34.328125 83.398438 34.96875 C 82.300781 35.574219 81.429688 36.414062 80.785156 37.488281 C 80.152344 38.550781 79.835938 39.746094 79.835938 41.085938 C 79.828125 41.707031 79.902344 42.316406 80.058594 42.914062 C 80.21875 43.515625 80.453125 44.082031 80.765625 44.617188 C 81.078125 45.152344 81.457031 45.636719 81.902344 46.070312 C 82.347656 46.5 82.839844 46.867188 83.386719 47.164062 C 84.484375 47.777344 85.722656 48.085938 87.101562 48.085938 C 88.117188 48.09375 89.097656 47.898438 90.03125 47.5 C 90.945312 47.097656 91.734375 46.53125 92.40625 45.796875 L 90.03125 43.429688 C 89.679688 43.835938 89.257812 44.148438 88.761719 44.363281 Z M 88.761719 44.363281 " fill-opacity="1" fill-rule="nonzero"/><path fill="#f97141" d="M 97.5 40.832031 L 97.5 29.742188 L 93.84375 29.742188 L 93.84375 47.804688 L 97.5 47.804688 L 97.5 41.554688 " fill-opacity="1" fill-rule="nonzero"/><path fill="#f97141" d="M 114.179688 29.679688 L 110.523438 29.679688 L 110.523438 34.300781 L 107.367188 34.300781 L 107.367188 37.507812 L 110.523438 37.507812 L 110.523438 47.765625 L 114.179688 47.765625 L 114.179688 37.507812 L 117.339844 37.507812 L 117.339844 34.300781 L 114.179688 34.300781 Z M 114.179688 29.679688 " fill-opacity="1" fill-rule="nonzero"/><path fill="#f97141" d="M 59.246094 35.042969 C 58.214844 34.410156 57.097656 34.101562 55.890625 34.121094 C 54.96875 34.105469 54.097656 34.3125 53.277344 34.734375 C 52.832031 34.96875 52.425781 35.261719 52.0625 35.613281 L 52.0625 34.316406 L 48.40625 34.316406 L 48.40625 52.320312 L 52.039062 52.320312 L 52.039062 46.675781 C 52.40625 47.027344 52.8125 47.316406 53.265625 47.546875 C 54.09375 47.957031 54.964844 48.15625 55.890625 48.144531 C 57.097656 48.164062 58.214844 47.859375 59.242188 47.226562 C 60.246094 46.601562 61.023438 45.761719 61.574219 44.714844 C 62.160156 43.597656 62.445312 42.410156 62.429688 41.148438 C 62.429688 39.808594 62.144531 38.609375 61.574219 37.550781 C 61.023438 36.503906 60.25 35.667969 59.246094 35.042969 Z M 58.253906 43.03125 C 57.972656 43.574219 57.566406 44 57.039062 44.3125 C 56.484375 44.628906 55.886719 44.785156 55.246094 44.773438 C 54.613281 44.785156 54.023438 44.632812 53.476562 44.3125 C 52.953125 44 52.554688 43.570312 52.277344 43.03125 C 51.972656 42.429688 51.828125 41.792969 51.84375 41.121094 C 51.828125 40.457031 51.972656 39.828125 52.277344 39.238281 C 52.554688 38.695312 52.960938 38.265625 53.492188 37.957031 C 54.03125 37.640625 54.617188 37.488281 55.246094 37.496094 C 55.886719 37.484375 56.480469 37.636719 57.035156 37.957031 C 57.5625 38.265625 57.96875 38.691406 58.25 39.238281 C 58.550781 39.828125 58.691406 40.457031 58.675781 41.117188 C 58.695312 41.789062 58.554688 42.429688 58.253906 43.03125 Z M 58.253906 43.03125 " fill-opacity="1" fill-rule="nonzero"/></svg>